<svg xmlns="http://www.w3.org/2000/svg" xmlns:xlink="http://www.w3.org/1999/xlink" version="1.1" height="600" width="600">
   <rect fill="#009900" fill-opacity="1.0" x="0" y="0" width="600" height="600" />
   <path fill="#000000" fill-opacity="0.2" d="M0 174.194 L174.194 174.194 L174.194 0 L0 0 Z M0 425.806 L174.194 425.806 L174.194 600 L0 600 Z M600 174.194 L425.806 174.194 L425.806 0 L600 0 Z )" />
   <path fill="#ffffff" fill-opacity="1.0" d="M58.065 58.065 L116.129 58.065 L116.129 116.129 L58.065 116.129 Z M58.065 541.935 L116.129 541.935 L116.129 483.871 L58.065 483.871 Z M541.935 58.065 L483.871 58.065 L483.871 116.129 L541.935 116.129 Z " />
   <path fill="#ffffff" fill-opacity="1.0" d="M135.484 135.484 L38.71 135.484 L38.71 38.71 L135.484 38.71 L135.484 135.484 Z M154.839 154.839 C154.839,154.839 154.839,19.355 154.839,19.355 L19.355 19.355 L19.355 154.839 L154.839 154.839 L154.839 154.839 Z M135.484 464.516 L38.71 464.516 L38.71 561.29 L135.484 561.29 L135.484 464.516 Z M154.839 445.161 C154.839,445.161 154.839,580.645 154.839,580.645 L19.355 580.645 L19.355 445.161 L154.839 445.161 L154.839 445.161 Z M464.516 135.484 L561.29 135.484 L561.29 38.71 L464.516 38.71 L464.516 135.484 Z M445.161 154.839 C445.161,154.839 445.161,19.355 445.161,19.355 L580.645 19.355 L580.645 154.839 L445.161 154.839 L445.161 154.839 Z " />
   <path fill="#000000" fill-opacity="0.2" d="M174.194 19.355 L193.548 19.355 L193.548 38.71 L174.194 38.71 Z M193.548 19.355 L212.903 19.355 L212.903 38.71 L193.548 38.71 Z M212.903 19.355 L232.258 19.355 L232.258 38.71 L212.903 38.71 Z M232.258 19.355 L251.613 19.355 L251.613 38.71 L232.258 38.71 Z M290.323 19.355 L309.677 19.355 L309.677 38.71 L290.323 38.71 Z M309.677 19.355 L329.032 19.355 L329.032 38.71 L309.677 38.71 Z M329.032 19.355 L348.387 19.355 L348.387 38.71 L329.032 38.71 Z M348.387 19.355 L367.742 19.355 L367.742 38.71 L348.387 38.71 Z M367.742 19.355 L387.097 19.355 L387.097 38.71 L367.742 38.71 Z M309.677 38.71 L329.032 38.71 L329.032 58.065 L309.677 58.065 Z M367.742 38.71 L387.097 38.71 L387.097 58.065 L367.742 58.065 Z M406.452 38.71 L425.806 38.71 L425.806 58.065 L406.452 58.065 Z M174.194 58.065 L193.548 58.065 L193.548 77.419 L174.194 77.419 Z M232.258 58.065 L251.613 58.065 L251.613 77.419 L232.258 77.419 Z M270.968 58.065 L290.323 58.065 L290.323 77.419 L270.968 77.419 Z M309.677 58.065 L329.032 58.065 L329.032 77.419 L309.677 77.419 Z M387.097 58.065 L406.452 58.065 L406.452 77.419 L387.097 77.419 Z M406.452 58.065 L425.806 58.065 L425.806 77.419 L406.452 77.419 Z M174.194 77.419 L193.548 77.419 L193.548 96.774 L174.194 96.774 Z M251.613 77.419 L270.968 77.419 L270.968 96.774 L251.613 96.774 Z M290.323 77.419 L309.677 77.419 L309.677 96.774 L290.323 96.774 Z M309.677 77.419 L329.032 77.419 L329.032 96.774 L309.677 96.774 Z M348.387 77.419 L367.742 77.419 L367.742 96.774 L348.387 96.774 Z M367.742 77.419 L387.097 77.419 L387.097 96.774 L367.742 96.774 Z M387.097 77.419 L406.452 77.419 L406.452 96.774 L387.097 96.774 Z M174.194 96.774 L193.548 96.774 L193.548 116.129 L174.194 116.129 Z M193.548 96.774 L212.903 96.774 L212.903 116.129 L193.548 116.129 Z M212.903 96.774 L232.258 96.774 L232.258 116.129 L212.903 116.129 Z M329.032 96.774 L348.387 96.774 L348.387 116.129 L329.032 116.129 Z M387.097 96.774 L406.452 96.774 L406.452 116.129 L387.097 116.129 Z M406.452 96.774 L425.806 96.774 L425.806 116.129 L406.452 116.129 Z M212.903 116.129 L232.258 116.129 L232.258 135.484 L212.903 135.484 Z M232.258 116.129 L251.613 116.129 L251.613 135.484 L232.258 135.484 Z M251.613 116.129 L270.968 116.129 L270.968 135.484 L251.613 135.484 Z M270.968 116.129 L290.323 116.129 L290.323 135.484 L270.968 135.484 Z M290.323 116.129 L309.677 116.129 L309.677 135.484 L290.323 135.484 Z M367.742 116.129 L387.097 116.129 L387.097 135.484 L367.742 135.484 Z M406.452 116.129 L425.806 116.129 L425.806 135.484 L406.452 135.484 Z M193.548 135.484 L212.903 135.484 L212.903 154.839 L193.548 154.839 Z M232.258 135.484 L251.613 135.484 L251.613 154.839 L232.258 154.839 Z M270.968 135.484 L290.323 135.484 L290.323 154.839 L270.968 154.839 Z M309.677 135.484 L329.032 135.484 L329.032 154.839 L309.677 154.839 Z M348.387 135.484 L367.742 135.484 L367.742 154.839 L348.387 154.839 Z M387.097 135.484 L406.452 135.484 L406.452 154.839 L387.097 154.839 Z M212.903 154.839 L232.258 154.839 L232.258 174.194 L212.903 174.194 Z M232.258 154.839 L251.613 154.839 L251.613 174.194 L232.258 174.194 Z M309.677 154.839 L329.032 154.839 L329.032 174.194 L309.677 174.194 Z M329.032 154.839 L348.387 154.839 L348.387 174.194 L329.032 174.194 Z M348.387 154.839 L367.742 154.839 L367.742 174.194 L348.387 174.194 Z M367.742 154.839 L387.097 154.839 L387.097 174.194 L367.742 174.194 Z M19.355 174.194 L38.71 174.194 L38.71 193.548 L19.355 193.548 Z M38.71 174.194 L58.065 174.194 L58.065 193.548 L38.71 193.548 Z M58.065 174.194 L77.419 174.194 L77.419 193.548 L58.065 193.548 Z M77.419 174.194 L96.774 174.194 L96.774 193.548 L77.419 193.548 Z M174.194 174.194 L193.548 174.194 L193.548 193.548 L174.194 193.548 Z M193.548 174.194 L212.903 174.194 L212.903 193.548 L193.548 193.548 Z M232.258 174.194 L251.613 174.194 L251.613 193.548 L232.258 193.548 Z M251.613 174.194 L270.968 174.194 L270.968 193.548 L251.613 193.548 Z M270.968 174.194 L290.323 174.194 L290.323 193.548 L270.968 193.548 Z M329.032 174.194 L348.387 174.194 L348.387 193.548 L329.032 193.548 Z M348.387 174.194 L367.742 174.194 L367.742 193.548 L348.387 193.548 Z M367.742 174.194 L387.097 174.194 L387.097 193.548 L367.742 193.548 Z M425.806 174.194 L445.161 174.194 L445.161 193.548 L425.806 193.548 Z M483.871 174.194 L503.226 174.194 L503.226 193.548 L483.871 193.548 Z M503.226 174.194 L522.581 174.194 L522.581 193.548 L503.226 193.548 Z M522.581 174.194 L541.935 174.194 L541.935 193.548 L522.581 193.548 Z M561.29 174.194 L580.645 174.194 L580.645 193.548 L561.29 193.548 Z M19.355 193.548 L38.71 193.548 L38.71 212.903 L19.355 212.903 Z M58.065 193.548 L77.419 193.548 L77.419 212.903 L58.065 212.903 Z M77.419 193.548 L96.774 193.548 L96.774 212.903 L77.419 212.903 Z M135.484 193.548 L154.839 193.548 L154.839 212.903 L135.484 212.903 Z M154.839 193.548 L174.194 193.548 L174.194 212.903 L154.839 212.903 Z M174.194 193.548 L193.548 193.548 L193.548 212.903 L174.194 212.903 Z M193.548 193.548 L212.903 193.548 L212.903 212.903 L193.548 212.903 Z M212.903 193.548 L232.258 193.548 L232.258 212.903 L212.903 212.903 Z M232.258 193.548 L251.613 193.548 L251.613 212.903 L232.258 212.903 Z M251.613 193.548 L270.968 193.548 L270.968 212.903 L251.613 212.903 Z M329.032 193.548 L348.387 193.548 L348.387 212.903 L329.032 212.903 Z M406.452 193.548 L425.806 193.548 L425.806 212.903 L406.452 212.903 Z M425.806 193.548 L445.161 193.548 L445.161 212.903 L425.806 212.903 Z M503.226 193.548 L522.581 193.548 L522.581 212.903 L503.226 212.903 Z M19.355 212.903 L38.71 212.903 L38.71 232.258 L19.355 232.258 Z M38.71 212.903 L58.065 212.903 L58.065 232.258 L38.71 232.258 Z M96.774 212.903 L116.129 212.903 L116.129 232.258 L96.774 232.258 Z M116.129 212.903 L135.484 212.903 L135.484 232.258 L116.129 232.258 Z M154.839 212.903 L174.194 212.903 L174.194 232.258 L154.839 232.258 Z M174.194 212.903 L193.548 212.903 L193.548 232.258 L174.194 232.258 Z M193.548 212.903 L212.903 212.903 L212.903 232.258 L193.548 232.258 Z M232.258 212.903 L251.613 212.903 L251.613 232.258 L232.258 232.258 Z M290.323 212.903 L309.677 212.903 L309.677 232.258 L290.323 232.258 Z M309.677 212.903 L329.032 212.903 L329.032 232.258 L309.677 232.258 Z M348.387 212.903 L367.742 212.903 L367.742 232.258 L348.387 232.258 Z M367.742 212.903 L387.097 212.903 L387.097 232.258 L367.742 232.258 Z M406.452 212.903 L425.806 212.903 L425.806 232.258 L406.452 232.258 Z M445.161 212.903 L464.516 212.903 L464.516 232.258 L445.161 232.258 Z M541.935 212.903 L561.29 212.903 L561.29 232.258 L541.935 232.258 Z M38.71 232.258 L58.065 232.258 L58.065 251.613 L38.71 251.613 Z M58.065 232.258 L77.419 232.258 L77.419 251.613 L58.065 251.613 Z M116.129 232.258 L135.484 232.258 L135.484 251.613 L116.129 251.613 Z M135.484 232.258 L154.839 232.258 L154.839 251.613 L135.484 251.613 Z M174.194 232.258 L193.548 232.258 L193.548 251.613 L174.194 251.613 Z M232.258 232.258 L251.613 232.258 L251.613 251.613 L232.258 251.613 Z M270.968 232.258 L290.323 232.258 L290.323 251.613 L270.968 251.613 Z M367.742 232.258 L387.097 232.258 L387.097 251.613 L367.742 251.613 Z M445.161 232.258 L464.516 232.258 L464.516 251.613 L445.161 251.613 Z M464.516 232.258 L483.871 232.258 L483.871 251.613 L464.516 251.613 Z M522.581 232.258 L541.935 232.258 L541.935 251.613 L522.581 251.613 Z M38.71 251.613 L58.065 251.613 L58.065 270.968 L38.71 270.968 Z M58.065 251.613 L77.419 251.613 L77.419 270.968 L58.065 270.968 Z M77.419 251.613 L96.774 251.613 L96.774 270.968 L77.419 270.968 Z M116.129 251.613 L135.484 251.613 L135.484 270.968 L116.129 270.968 Z M154.839 251.613 L174.194 251.613 L174.194 270.968 L154.839 270.968 Z M251.613 251.613 L270.968 251.613 L270.968 270.968 L251.613 270.968 Z M270.968 251.613 L290.323 251.613 L290.323 270.968 L270.968 270.968 Z M290.323 251.613 L309.677 251.613 L309.677 270.968 L290.323 270.968 Z M348.387 251.613 L367.742 251.613 L367.742 270.968 L348.387 270.968 Z M387.097 251.613 L406.452 251.613 L406.452 270.968 L387.097 270.968 Z M406.452 251.613 L425.806 251.613 L425.806 270.968 L406.452 270.968 Z M425.806 251.613 L445.161 251.613 L445.161 270.968 L425.806 270.968 Z M445.161 251.613 L464.516 251.613 L464.516 270.968 L445.161 270.968 Z M483.871 251.613 L503.226 251.613 L503.226 270.968 L483.871 270.968 Z M522.581 251.613 L541.935 251.613 L541.935 270.968 L522.581 270.968 Z M541.935 251.613 L561.29 251.613 L561.29 270.968 L541.935 270.968 Z M19.355 270.968 L38.71 270.968 L38.71 290.323 L19.355 290.323 Z M77.419 270.968 L96.774 270.968 L96.774 290.323 L77.419 290.323 Z M135.484 270.968 L154.839 270.968 L154.839 290.323 L135.484 290.323 Z M232.258 270.968 L251.613 270.968 L251.613 290.323 L232.258 290.323 Z M270.968 270.968 L290.323 270.968 L290.323 290.323 L270.968 290.323 Z M290.323 270.968 L309.677 270.968 L309.677 290.323 L290.323 290.323 Z M309.677 270.968 L329.032 270.968 L329.032 290.323 L309.677 290.323 Z M329.032 270.968 L348.387 270.968 L348.387 290.323 L329.032 290.323 Z M367.742 270.968 L387.097 270.968 L387.097 290.323 L367.742 290.323 Z M387.097 270.968 L406.452 270.968 L406.452 290.323 L387.097 290.323 Z M406.452 270.968 L425.806 270.968 L425.806 290.323 L406.452 290.323 Z M425.806 270.968 L445.161 270.968 L445.161 290.323 L425.806 290.323 Z M464.516 270.968 L483.871 270.968 L483.871 290.323 L464.516 290.323 Z M503.226 270.968 L522.581 270.968 L522.581 290.323 L503.226 290.323 Z M19.355 290.323 L38.71 290.323 L38.71 309.677 L19.355 309.677 Z M77.419 290.323 L96.774 290.323 L96.774 309.677 L77.419 309.677 Z M96.774 290.323 L116.129 290.323 L116.129 309.677 L96.774 309.677 Z M116.129 290.323 L135.484 290.323 L135.484 309.677 L116.129 309.677 Z M232.258 290.323 L251.613 290.323 L251.613 309.677 L232.258 309.677 Z M348.387 290.323 L367.742 290.323 L367.742 309.677 L348.387 309.677 Z M387.097 290.323 L406.452 290.323 L406.452 309.677 L387.097 309.677 Z M425.806 290.323 L445.161 290.323 L445.161 309.677 L425.806 309.677 Z M445.161 290.323 L464.516 290.323 L464.516 309.677 L445.161 309.677 Z M464.516 290.323 L483.871 290.323 L483.871 309.677 L464.516 309.677 Z M503.226 290.323 L522.581 290.323 L522.581 309.677 L503.226 309.677 Z M522.581 290.323 L541.935 290.323 L541.935 309.677 L522.581 309.677 Z M541.935 290.323 L561.29 290.323 L561.29 309.677 L541.935 309.677 Z M19.355 309.677 L38.71 309.677 L38.71 329.032 L19.355 329.032 Z M38.71 309.677 L58.065 309.677 L58.065 329.032 L38.71 329.032 Z M58.065 309.677 L77.419 309.677 L77.419 329.032 L58.065 329.032 Z M77.419 309.677 L96.774 309.677 L96.774 329.032 L77.419 329.032 Z M96.774 309.677 L116.129 309.677 L116.129 329.032 L96.774 329.032 Z M135.484 309.677 L154.839 309.677 L154.839 329.032 L135.484 329.032 Z M193.548 309.677 L212.903 309.677 L212.903 329.032 L193.548 329.032 Z M232.258 309.677 L251.613 309.677 L251.613 329.032 L232.258 329.032 Z M348.387 309.677 L367.742 309.677 L367.742 329.032 L348.387 329.032 Z M425.806 309.677 L445.161 309.677 L445.161 329.032 L425.806 329.032 Z M445.161 309.677 L464.516 309.677 L464.516 329.032 L445.161 329.032 Z M483.871 309.677 L503.226 309.677 L503.226 329.032 L483.871 329.032 Z M522.581 309.677 L541.935 309.677 L541.935 329.032 L522.581 329.032 Z M541.935 309.677 L561.29 309.677 L561.29 329.032 L541.935 329.032 Z M561.29 309.677 L580.645 309.677 L580.645 329.032 L561.29 329.032 Z M19.355 329.032 L38.71 329.032 L38.71 348.387 L19.355 348.387 Z M58.065 329.032 L77.419 329.032 L77.419 348.387 L58.065 348.387 Z M96.774 329.032 L116.129 329.032 L116.129 348.387 L96.774 348.387 Z M116.129 329.032 L135.484 329.032 L135.484 348.387 L116.129 348.387 Z M174.194 329.032 L193.548 329.032 L193.548 348.387 L174.194 348.387 Z M232.258 329.032 L251.613 329.032 L251.613 348.387 L232.258 348.387 Z M251.613 329.032 L270.968 329.032 L270.968 348.387 L251.613 348.387 Z M309.677 329.032 L329.032 329.032 L329.032 348.387 L309.677 348.387 Z M445.161 329.032 L464.516 329.032 L464.516 348.387 L445.161 348.387 Z M464.516 329.032 L483.871 329.032 L483.871 348.387 L464.516 348.387 Z M483.871 329.032 L503.226 329.032 L503.226 348.387 L483.871 348.387 Z M503.226 329.032 L522.581 329.032 L522.581 348.387 L503.226 348.387 Z M522.581 329.032 L541.935 329.032 L541.935 348.387 L522.581 348.387 Z M541.935 329.032 L561.29 329.032 L561.29 348.387 L541.935 348.387 Z M561.29 329.032 L580.645 329.032 L580.645 348.387 L561.29 348.387 Z M58.065 348.387 L77.419 348.387 L77.419 367.742 L58.065 367.742 Z M135.484 348.387 L154.839 348.387 L154.839 367.742 L135.484 367.742 Z M154.839 348.387 L174.194 348.387 L174.194 367.742 L154.839 367.742 Z M193.548 348.387 L212.903 348.387 L212.903 367.742 L193.548 367.742 Z M232.258 348.387 L251.613 348.387 L251.613 367.742 L232.258 367.742 Z M270.968 348.387 L290.323 348.387 L290.323 367.742 L270.968 367.742 Z M290.323 348.387 L309.677 348.387 L309.677 367.742 L290.323 367.742 Z M309.677 348.387 L329.032 348.387 L329.032 367.742 L309.677 367.742 Z M367.742 348.387 L387.097 348.387 L387.097 367.742 L367.742 367.742 Z M464.516 348.387 L483.871 348.387 L483.871 367.742 L464.516 367.742 Z M522.581 348.387 L541.935 348.387 L541.935 367.742 L522.581 367.742 Z M541.935 348.387 L561.29 348.387 L561.29 367.742 L541.935 367.742 Z M19.355 367.742 L38.71 367.742 L38.71 387.097 L19.355 387.097 Z M38.71 367.742 L58.065 367.742 L58.065 387.097 L38.71 387.097 Z M77.419 367.742 L96.774 367.742 L96.774 387.097 L77.419 387.097 Z M96.774 367.742 L116.129 367.742 L116.129 387.097 L96.774 387.097 Z M154.839 367.742 L174.194 367.742 L174.194 387.097 L154.839 387.097 Z M174.194 367.742 L193.548 367.742 L193.548 387.097 L174.194 387.097 Z M193.548 367.742 L212.903 367.742 L212.903 387.097 L193.548 387.097 Z M212.903 367.742 L232.258 367.742 L232.258 387.097 L212.903 387.097 Z M232.258 367.742 L251.613 367.742 L251.613 387.097 L232.258 387.097 Z M309.677 367.742 L329.032 367.742 L329.032 387.097 L309.677 387.097 Z M329.032 367.742 L348.387 367.742 L348.387 387.097 L329.032 387.097 Z M348.387 367.742 L367.742 367.742 L367.742 387.097 L348.387 387.097 Z M367.742 367.742 L387.097 367.742 L387.097 387.097 L367.742 387.097 Z M387.097 367.742 L406.452 367.742 L406.452 387.097 L387.097 387.097 Z M425.806 367.742 L445.161 367.742 L445.161 387.097 L425.806 387.097 Z M445.161 367.742 L464.516 367.742 L464.516 387.097 L445.161 387.097 Z M483.871 367.742 L503.226 367.742 L503.226 387.097 L483.871 387.097 Z M522.581 367.742 L541.935 367.742 L541.935 387.097 L522.581 387.097 Z M541.935 367.742 L561.29 367.742 L561.29 387.097 L541.935 387.097 Z M19.355 387.097 L38.71 387.097 L38.71 406.452 L19.355 406.452 Z M38.71 387.097 L58.065 387.097 L58.065 406.452 L38.71 406.452 Z M116.129 387.097 L135.484 387.097 L135.484 406.452 L116.129 406.452 Z M135.484 387.097 L154.839 387.097 L154.839 406.452 L135.484 406.452 Z M154.839 387.097 L174.194 387.097 L174.194 406.452 L154.839 406.452 Z M174.194 387.097 L193.548 387.097 L193.548 406.452 L174.194 406.452 Z M193.548 387.097 L212.903 387.097 L212.903 406.452 L193.548 406.452 Z M212.903 387.097 L232.258 387.097 L232.258 406.452 L212.903 406.452 Z M232.258 387.097 L251.613 387.097 L251.613 406.452 L232.258 406.452 Z M309.677 387.097 L329.032 387.097 L329.032 406.452 L309.677 406.452 Z M329.032 387.097 L348.387 387.097 L348.387 406.452 L329.032 406.452 Z M425.806 387.097 L445.161 387.097 L445.161 406.452 L425.806 406.452 Z M445.161 387.097 L464.516 387.097 L464.516 406.452 L445.161 406.452 Z M464.516 387.097 L483.871 387.097 L483.871 406.452 L464.516 406.452 Z M483.871 387.097 L503.226 387.097 L503.226 406.452 L483.871 406.452 Z M522.581 387.097 L541.935 387.097 L541.935 406.452 L522.581 406.452 Z M541.935 387.097 L561.29 387.097 L561.29 406.452 L541.935 406.452 Z M77.419 406.452 L96.774 406.452 L96.774 425.806 L77.419 425.806 Z M96.774 406.452 L116.129 406.452 L116.129 425.806 L96.774 425.806 Z M116.129 406.452 L135.484 406.452 L135.484 425.806 L116.129 425.806 Z M174.194 406.452 L193.548 406.452 L193.548 425.806 L174.194 425.806 Z M212.903 406.452 L232.258 406.452 L232.258 425.806 L212.903 425.806 Z M270.968 406.452 L290.323 406.452 L290.323 425.806 L270.968 425.806 Z M290.323 406.452 L309.677 406.452 L309.677 425.806 L290.323 425.806 Z M309.677 406.452 L329.032 406.452 L329.032 425.806 L309.677 425.806 Z M367.742 406.452 L387.097 406.452 L387.097 425.806 L367.742 425.806 Z M522.581 406.452 L541.935 406.452 L541.935 425.806 L522.581 425.806 Z M561.29 406.452 L580.645 406.452 L580.645 425.806 L561.29 425.806 Z M270.968 425.806 L290.323 425.806 L290.323 445.161 L270.968 445.161 Z M290.323 425.806 L309.677 425.806 L309.677 445.161 L290.323 445.161 Z M329.032 425.806 L348.387 425.806 L348.387 445.161 L329.032 445.161 Z M348.387 425.806 L367.742 425.806 L367.742 445.161 L348.387 445.161 Z M387.097 425.806 L406.452 425.806 L406.452 445.161 L387.097 445.161 Z M425.806 425.806 L445.161 425.806 L445.161 445.161 L425.806 445.161 Z M445.161 425.806 L464.516 425.806 L464.516 445.161 L445.161 445.161 Z M464.516 425.806 L483.871 425.806 L483.871 445.161 L464.516 445.161 Z M503.226 425.806 L522.581 425.806 L522.581 445.161 L503.226 445.161 Z M193.548 445.161 L212.903 445.161 L212.903 464.516 L193.548 464.516 Z M232.258 445.161 L251.613 445.161 L251.613 464.516 L232.258 464.516 Z M270.968 445.161 L290.323 445.161 L290.323 464.516 L270.968 464.516 Z M290.323 445.161 L309.677 445.161 L309.677 464.516 L290.323 464.516 Z M348.387 445.161 L367.742 445.161 L367.742 464.516 L348.387 464.516 Z M425.806 445.161 L445.161 445.161 L445.161 464.516 L425.806 464.516 Z M464.516 445.161 L483.871 445.161 L483.871 464.516 L464.516 464.516 Z M503.226 445.161 L522.581 445.161 L522.581 464.516 L503.226 464.516 Z M522.581 445.161 L541.935 445.161 L541.935 464.516 L522.581 464.516 Z M541.935 445.161 L561.29 445.161 L561.29 464.516 L541.935 464.516 Z M193.548 464.516 L212.903 464.516 L212.903 483.871 L193.548 483.871 Z M270.968 464.516 L290.323 464.516 L290.323 483.871 L270.968 483.871 Z M290.323 464.516 L309.677 464.516 L309.677 483.871 L290.323 483.871 Z M425.806 464.516 L445.161 464.516 L445.161 483.871 L425.806 483.871 Z M445.161 464.516 L464.516 464.516 L464.516 483.871 L445.161 483.871 Z M464.516 464.516 L483.871 464.516 L483.871 483.871 L464.516 483.871 Z M522.581 464.516 L541.935 464.516 L541.935 483.871 L522.581 483.871 Z M561.29 464.516 L580.645 464.516 L580.645 483.871 L561.29 483.871 Z M232.258 483.871 L251.613 483.871 L251.613 503.226 L232.258 503.226 Z M270.968 483.871 L290.323 483.871 L290.323 503.226 L270.968 503.226 Z M348.387 483.871 L367.742 483.871 L367.742 503.226 L348.387 503.226 Z M503.226 483.871 L522.581 483.871 L522.581 503.226 L503.226 503.226 Z M522.581 483.871 L541.935 483.871 L541.935 503.226 L522.581 503.226 Z M174.194 503.226 L193.548 503.226 L193.548 522.581 L174.194 522.581 Z M232.258 503.226 L251.613 503.226 L251.613 522.581 L232.258 522.581 Z M270.968 503.226 L290.323 503.226 L290.323 522.581 L270.968 522.581 Z M309.677 503.226 L329.032 503.226 L329.032 522.581 L309.677 522.581 Z M387.097 503.226 L406.452 503.226 L406.452 522.581 L387.097 522.581 Z M406.452 503.226 L425.806 503.226 L425.806 522.581 L406.452 522.581 Z M425.806 503.226 L445.161 503.226 L445.161 522.581 L425.806 522.581 Z M445.161 503.226 L464.516 503.226 L464.516 522.581 L445.161 522.581 Z M483.871 503.226 L503.226 503.226 L503.226 522.581 L483.871 522.581 Z M503.226 503.226 L522.581 503.226 L522.581 522.581 L503.226 522.581 Z M561.29 503.226 L580.645 503.226 L580.645 522.581 L561.29 522.581 Z M174.194 522.581 L193.548 522.581 L193.548 541.935 L174.194 541.935 Z M290.323 522.581 L309.677 522.581 L309.677 541.935 L290.323 541.935 Z M309.677 522.581 L329.032 522.581 L329.032 541.935 L309.677 541.935 Z M329.032 522.581 L348.387 522.581 L348.387 541.935 L329.032 541.935 Z M348.387 522.581 L367.742 522.581 L367.742 541.935 L348.387 541.935 Z M445.161 522.581 L464.516 522.581 L464.516 541.935 L445.161 541.935 Z M464.516 522.581 L483.871 522.581 L483.871 541.935 L464.516 541.935 Z M483.871 522.581 L503.226 522.581 L503.226 541.935 L483.871 541.935 Z M503.226 522.581 L522.581 522.581 L522.581 541.935 L503.226 541.935 Z M174.194 541.935 L193.548 541.935 L193.548 561.29 L174.194 561.29 Z M270.968 541.935 L290.323 541.935 L290.323 561.29 L270.968 561.29 Z M387.097 541.935 L406.452 541.935 L406.452 561.29 L387.097 561.29 Z M483.871 541.935 L503.226 541.935 L503.226 561.29 L483.871 561.29 Z M522.581 541.935 L541.935 541.935 L541.935 561.29 L522.581 561.29 Z M174.194 561.29 L193.548 561.29 L193.548 580.645 L174.194 580.645 Z M212.903 561.29 L232.258 561.29 L232.258 580.645 L212.903 580.645 Z M232.258 561.29 L251.613 561.29 L251.613 580.645 L232.258 580.645 Z M270.968 561.29 L290.323 561.29 L290.323 580.645 L270.968 580.645 Z M367.742 561.29 L387.097 561.29 L387.097 580.645 L367.742 580.645 Z M387.097 561.29 L406.452 561.29 L406.452 580.645 L387.097 580.645 Z M425.806 561.29 L445.161 561.29 L445.161 580.645 L425.806 580.645 Z M464.516 561.29 L483.871 561.29 L483.871 580.645 L464.516 580.645 Z M503.226 561.29 L522.581 561.29 L522.581 580.645 L503.226 580.645 Z M522.581 561.29 L541.935 561.29 L541.935 580.645 L522.581 580.645 Z M561.29 561.29 L580.645 561.29 L580.645 580.645 L561.29 580.645 Z " />
   <path fill="#000000" fill-opacity="1.0" d="M180.968 26.129 L186.774 26.129 L186.774 31.935 L180.968 31.935 Z M200.323 26.129 L206.129 26.129 L206.129 31.935 L200.323 31.935 Z M219.677 26.129 L225.484 26.129 L225.484 31.935 L219.677 31.935 Z M239.032 26.129 L244.839 26.129 L244.839 31.935 L239.032 31.935 Z M297.097 26.129 L302.903 26.129 L302.903 31.935 L297.097 31.935 Z M316.452 26.129 L322.258 26.129 L322.258 31.935 L316.452 31.935 Z M335.806 26.129 L341.613 26.129 L341.613 31.935 L335.806 31.935 Z M355.161 26.129 L360.968 26.129 L360.968 31.935 L355.161 31.935 Z M374.516 26.129 L380.323 26.129 L380.323 31.935 L374.516 31.935 Z M316.452 45.484 L322.258 45.484 L322.258 51.29 L316.452 51.29 Z M374.516 45.484 L380.323 45.484 L380.323 51.29 L374.516 51.29 Z M413.226 45.484 L419.032 45.484 L419.032 51.29 L413.226 51.29 Z M180.968 64.839 L186.774 64.839 L186.774 70.645 L180.968 70.645 Z M239.032 64.839 L244.839 64.839 L244.839 70.645 L239.032 70.645 Z M277.742 64.839 L283.548 64.839 L283.548 70.645 L277.742 70.645 Z M316.452 64.839 L322.258 64.839 L322.258 70.645 L316.452 70.645 Z M393.871 64.839 L399.677 64.839 L399.677 70.645 L393.871 70.645 Z M413.226 64.839 L419.032 64.839 L419.032 70.645 L413.226 70.645 Z M180.968 84.194 L186.774 84.194 L186.774 90 L180.968 90 Z M258.387 84.194 L264.194 84.194 L264.194 90 L258.387 90 Z M297.097 84.194 L302.903 84.194 L302.903 90 L297.097 90 Z M316.452 84.194 L322.258 84.194 L322.258 90 L316.452 90 Z M355.161 84.194 L360.968 84.194 L360.968 90 L355.161 90 Z M374.516 84.194 L380.323 84.194 L380.323 90 L374.516 90 Z M393.871 84.194 L399.677 84.194 L399.677 90 L393.871 90 Z M180.968 103.548 L186.774 103.548 L186.774 109.355 L180.968 109.355 Z M200.323 103.548 L206.129 103.548 L206.129 109.355 L200.323 109.355 Z M219.677 103.548 L225.484 103.548 L225.484 109.355 L219.677 109.355 Z M335.806 103.548 L341.613 103.548 L341.613 109.355 L335.806 109.355 Z M393.871 103.548 L399.677 103.548 L399.677 109.355 L393.871 109.355 Z M413.226 103.548 L419.032 103.548 L419.032 109.355 L413.226 109.355 Z M219.677 122.903 L225.484 122.903 L225.484 128.71 L219.677 128.71 Z M239.032 122.903 L244.839 122.903 L244.839 128.71 L239.032 128.71 Z M258.387 122.903 L264.194 122.903 L264.194 128.71 L258.387 128.71 Z M277.742 122.903 L283.548 122.903 L283.548 128.71 L277.742 128.71 Z M297.097 122.903 L302.903 122.903 L302.903 128.71 L297.097 128.71 Z M374.516 122.903 L380.323 122.903 L380.323 128.71 L374.516 128.71 Z M413.226 122.903 L419.032 122.903 L419.032 128.71 L413.226 128.71 Z M200.323 142.258 L206.129 142.258 L206.129 148.065 L200.323 148.065 Z M239.032 142.258 L244.839 142.258 L244.839 148.065 L239.032 148.065 Z M277.742 142.258 L283.548 142.258 L283.548 148.065 L277.742 148.065 Z M316.452 142.258 L322.258 142.258 L322.258 148.065 L316.452 148.065 Z M355.161 142.258 L360.968 142.258 L360.968 148.065 L355.161 148.065 Z M393.871 142.258 L399.677 142.258 L399.677 148.065 L393.871 148.065 Z M219.677 161.613 L225.484 161.613 L225.484 167.419 L219.677 167.419 Z M239.032 161.613 L244.839 161.613 L244.839 167.419 L239.032 167.419 Z M316.452 161.613 L322.258 161.613 L322.258 167.419 L316.452 167.419 Z M335.806 161.613 L341.613 161.613 L341.613 167.419 L335.806 167.419 Z M355.161 161.613 L360.968 161.613 L360.968 167.419 L355.161 167.419 Z M374.516 161.613 L380.323 161.613 L380.323 167.419 L374.516 167.419 Z M26.129 180.968 L31.935 180.968 L31.935 186.774 L26.129 186.774 Z M45.484 180.968 L51.29 180.968 L51.29 186.774 L45.484 186.774 Z M64.839 180.968 L70.645 180.968 L70.645 186.774 L64.839 186.774 Z M84.194 180.968 L90 180.968 L90 186.774 L84.194 186.774 Z M180.968 180.968 L186.774 180.968 L186.774 186.774 L180.968 186.774 Z M200.323 180.968 L206.129 180.968 L206.129 186.774 L200.323 186.774 Z M239.032 180.968 L244.839 180.968 L244.839 186.774 L239.032 186.774 Z M258.387 180.968 L264.194 180.968 L264.194 186.774 L258.387 186.774 Z M277.742 180.968 L283.548 180.968 L283.548 186.774 L277.742 186.774 Z M335.806 180.968 L341.613 180.968 L341.613 186.774 L335.806 186.774 Z M355.161 180.968 L360.968 180.968 L360.968 186.774 L355.161 186.774 Z M374.516 180.968 L380.323 180.968 L380.323 186.774 L374.516 186.774 Z M432.581 180.968 L438.387 180.968 L438.387 186.774 L432.581 186.774 Z M490.645 180.968 L496.452 180.968 L496.452 186.774 L490.645 186.774 Z M510 180.968 L515.806 180.968 L515.806 186.774 L510 186.774 Z M529.355 180.968 L535.161 180.968 L535.161 186.774 L529.355 186.774 Z M568.065 180.968 L573.871 180.968 L573.871 186.774 L568.065 186.774 Z M26.129 200.323 L31.935 200.323 L31.935 206.129 L26.129 206.129 Z M64.839 200.323 L70.645 200.323 L70.645 206.129 L64.839 206.129 Z M84.194 200.323 L90 200.323 L90 206.129 L84.194 206.129 Z M142.258 200.323 L148.065 200.323 L148.065 206.129 L142.258 206.129 Z M161.613 200.323 L167.419 200.323 L167.419 206.129 L161.613 206.129 Z M180.968 200.323 L186.774 200.323 L186.774 206.129 L180.968 206.129 Z M200.323 200.323 L206.129 200.323 L206.129 206.129 L200.323 206.129 Z M219.677 200.323 L225.484 200.323 L225.484 206.129 L219.677 206.129 Z M239.032 200.323 L244.839 200.323 L244.839 206.129 L239.032 206.129 Z M258.387 200.323 L264.194 200.323 L264.194 206.129 L258.387 206.129 Z M335.806 200.323 L341.613 200.323 L341.613 206.129 L335.806 206.129 Z M413.226 200.323 L419.032 200.323 L419.032 206.129 L413.226 206.129 Z M432.581 200.323 L438.387 200.323 L438.387 206.129 L432.581 206.129 Z M510 200.323 L515.806 200.323 L515.806 206.129 L510 206.129 Z M26.129 219.677 L31.935 219.677 L31.935 225.484 L26.129 225.484 Z M45.484 219.677 L51.29 219.677 L51.29 225.484 L45.484 225.484 Z M103.548 219.677 L109.355 219.677 L109.355 225.484 L103.548 225.484 Z M122.903 219.677 L128.71 219.677 L128.71 225.484 L122.903 225.484 Z M161.613 219.677 L167.419 219.677 L167.419 225.484 L161.613 225.484 Z M180.968 219.677 L186.774 219.677 L186.774 225.484 L180.968 225.484 Z M200.323 219.677 L206.129 219.677 L206.129 225.484 L200.323 225.484 Z M239.032 219.677 L244.839 219.677 L244.839 225.484 L239.032 225.484 Z M297.097 219.677 L302.903 219.677 L302.903 225.484 L297.097 225.484 Z M316.452 219.677 L322.258 219.677 L322.258 225.484 L316.452 225.484 Z M355.161 219.677 L360.968 219.677 L360.968 225.484 L355.161 225.484 Z M374.516 219.677 L380.323 219.677 L380.323 225.484 L374.516 225.484 Z M413.226 219.677 L419.032 219.677 L419.032 225.484 L413.226 225.484 Z M451.935 219.677 L457.742 219.677 L457.742 225.484 L451.935 225.484 Z M548.71 219.677 L554.516 219.677 L554.516 225.484 L548.71 225.484 Z M45.484 239.032 L51.29 239.032 L51.29 244.839 L45.484 244.839 Z M64.839 239.032 L70.645 239.032 L70.645 244.839 L64.839 244.839 Z M122.903 239.032 L128.71 239.032 L128.71 244.839 L122.903 244.839 Z M142.258 239.032 L148.065 239.032 L148.065 244.839 L142.258 244.839 Z M180.968 239.032 L186.774 239.032 L186.774 244.839 L180.968 244.839 Z M239.032 239.032 L244.839 239.032 L244.839 244.839 L239.032 244.839 Z M277.742 239.032 L283.548 239.032 L283.548 244.839 L277.742 244.839 Z M374.516 239.032 L380.323 239.032 L380.323 244.839 L374.516 244.839 Z M451.935 239.032 L457.742 239.032 L457.742 244.839 L451.935 244.839 Z M471.29 239.032 L477.097 239.032 L477.097 244.839 L471.29 244.839 Z M529.355 239.032 L535.161 239.032 L535.161 244.839 L529.355 244.839 Z M45.484 258.387 L51.29 258.387 L51.29 264.194 L45.484 264.194 Z M64.839 258.387 L70.645 258.387 L70.645 264.194 L64.839 264.194 Z M84.194 258.387 L90 258.387 L90 264.194 L84.194 264.194 Z M122.903 258.387 L128.71 258.387 L128.71 264.194 L122.903 264.194 Z M161.613 258.387 L167.419 258.387 L167.419 264.194 L161.613 264.194 Z M258.387 258.387 L264.194 258.387 L264.194 264.194 L258.387 264.194 Z M277.742 258.387 L283.548 258.387 L283.548 264.194 L277.742 264.194 Z M297.097 258.387 L302.903 258.387 L302.903 264.194 L297.097 264.194 Z M355.161 258.387 L360.968 258.387 L360.968 264.194 L355.161 264.194 Z M393.871 258.387 L399.677 258.387 L399.677 264.194 L393.871 264.194 Z M413.226 258.387 L419.032 258.387 L419.032 264.194 L413.226 264.194 Z M432.581 258.387 L438.387 258.387 L438.387 264.194 L432.581 264.194 Z M451.935 258.387 L457.742 258.387 L457.742 264.194 L451.935 264.194 Z M490.645 258.387 L496.452 258.387 L496.452 264.194 L490.645 264.194 Z M529.355 258.387 L535.161 258.387 L535.161 264.194 L529.355 264.194 Z M548.71 258.387 L554.516 258.387 L554.516 264.194 L548.71 264.194 Z M26.129 277.742 L31.935 277.742 L31.935 283.548 L26.129 283.548 Z M84.194 277.742 L90 277.742 L90 283.548 L84.194 283.548 Z M142.258 277.742 L148.065 277.742 L148.065 283.548 L142.258 283.548 Z M239.032 277.742 L244.839 277.742 L244.839 283.548 L239.032 283.548 Z M277.742 277.742 L283.548 277.742 L283.548 283.548 L277.742 283.548 Z M297.097 277.742 L302.903 277.742 L302.903 283.548 L297.097 283.548 Z M316.452 277.742 L322.258 277.742 L322.258 283.548 L316.452 283.548 Z M335.806 277.742 L341.613 277.742 L341.613 283.548 L335.806 283.548 Z M374.516 277.742 L380.323 277.742 L380.323 283.548 L374.516 283.548 Z M393.871 277.742 L399.677 277.742 L399.677 283.548 L393.871 283.548 Z M413.226 277.742 L419.032 277.742 L419.032 283.548 L413.226 283.548 Z M432.581 277.742 L438.387 277.742 L438.387 283.548 L432.581 283.548 Z M471.29 277.742 L477.097 277.742 L477.097 283.548 L471.29 283.548 Z M510 277.742 L515.806 277.742 L515.806 283.548 L510 283.548 Z M26.129 297.097 L31.935 297.097 L31.935 302.903 L26.129 302.903 Z M84.194 297.097 L90 297.097 L90 302.903 L84.194 302.903 Z M103.548 297.097 L109.355 297.097 L109.355 302.903 L103.548 302.903 Z M122.903 297.097 L128.71 297.097 L128.71 302.903 L122.903 302.903 Z M239.032 297.097 L244.839 297.097 L244.839 302.903 L239.032 302.903 Z M355.161 297.097 L360.968 297.097 L360.968 302.903 L355.161 302.903 Z M393.871 297.097 L399.677 297.097 L399.677 302.903 L393.871 302.903 Z M432.581 297.097 L438.387 297.097 L438.387 302.903 L432.581 302.903 Z M451.935 297.097 L457.742 297.097 L457.742 302.903 L451.935 302.903 Z M471.29 297.097 L477.097 297.097 L477.097 302.903 L471.29 302.903 Z M510 297.097 L515.806 297.097 L515.806 302.903 L510 302.903 Z M529.355 297.097 L535.161 297.097 L535.161 302.903 L529.355 302.903 Z M548.71 297.097 L554.516 297.097 L554.516 302.903 L548.71 302.903 Z M26.129 316.452 L31.935 316.452 L31.935 322.258 L26.129 322.258 Z M45.484 316.452 L51.29 316.452 L51.29 322.258 L45.484 322.258 Z M64.839 316.452 L70.645 316.452 L70.645 322.258 L64.839 322.258 Z M84.194 316.452 L90 316.452 L90 322.258 L84.194 322.258 Z M103.548 316.452 L109.355 316.452 L109.355 322.258 L103.548 322.258 Z M142.258 316.452 L148.065 316.452 L148.065 322.258 L142.258 322.258 Z M200.323 316.452 L206.129 316.452 L206.129 322.258 L200.323 322.258 Z M239.032 316.452 L244.839 316.452 L244.839 322.258 L239.032 322.258 Z M355.161 316.452 L360.968 316.452 L360.968 322.258 L355.161 322.258 Z M432.581 316.452 L438.387 316.452 L438.387 322.258 L432.581 322.258 Z M451.935 316.452 L457.742 316.452 L457.742 322.258 L451.935 322.258 Z M490.645 316.452 L496.452 316.452 L496.452 322.258 L490.645 322.258 Z M529.355 316.452 L535.161 316.452 L535.161 322.258 L529.355 322.258 Z M548.71 316.452 L554.516 316.452 L554.516 322.258 L548.71 322.258 Z M568.065 316.452 L573.871 316.452 L573.871 322.258 L568.065 322.258 Z M26.129 335.806 L31.935 335.806 L31.935 341.613 L26.129 341.613 Z M64.839 335.806 L70.645 335.806 L70.645 341.613 L64.839 341.613 Z M103.548 335.806 L109.355 335.806 L109.355 341.613 L103.548 341.613 Z M122.903 335.806 L128.71 335.806 L128.71 341.613 L122.903 341.613 Z M180.968 335.806 L186.774 335.806 L186.774 341.613 L180.968 341.613 Z M239.032 335.806 L244.839 335.806 L244.839 341.613 L239.032 341.613 Z M258.387 335.806 L264.194 335.806 L264.194 341.613 L258.387 341.613 Z M316.452 335.806 L322.258 335.806 L322.258 341.613 L316.452 341.613 Z M451.935 335.806 L457.742 335.806 L457.742 341.613 L451.935 341.613 Z M471.29 335.806 L477.097 335.806 L477.097 341.613 L471.29 341.613 Z M490.645 335.806 L496.452 335.806 L496.452 341.613 L490.645 341.613 Z M510 335.806 L515.806 335.806 L515.806 341.613 L510 341.613 Z M529.355 335.806 L535.161 335.806 L535.161 341.613 L529.355 341.613 Z M548.71 335.806 L554.516 335.806 L554.516 341.613 L548.71 341.613 Z M568.065 335.806 L573.871 335.806 L573.871 341.613 L568.065 341.613 Z M64.839 355.161 L70.645 355.161 L70.645 360.968 L64.839 360.968 Z M142.258 355.161 L148.065 355.161 L148.065 360.968 L142.258 360.968 Z M161.613 355.161 L167.419 355.161 L167.419 360.968 L161.613 360.968 Z M200.323 355.161 L206.129 355.161 L206.129 360.968 L200.323 360.968 Z M239.032 355.161 L244.839 355.161 L244.839 360.968 L239.032 360.968 Z M277.742 355.161 L283.548 355.161 L283.548 360.968 L277.742 360.968 Z M297.097 355.161 L302.903 355.161 L302.903 360.968 L297.097 360.968 Z M316.452 355.161 L322.258 355.161 L322.258 360.968 L316.452 360.968 Z M374.516 355.161 L380.323 355.161 L380.323 360.968 L374.516 360.968 Z M471.29 355.161 L477.097 355.161 L477.097 360.968 L471.29 360.968 Z M529.355 355.161 L535.161 355.161 L535.161 360.968 L529.355 360.968 Z M548.71 355.161 L554.516 355.161 L554.516 360.968 L548.71 360.968 Z M26.129 374.516 L31.935 374.516 L31.935 380.323 L26.129 380.323 Z M45.484 374.516 L51.29 374.516 L51.29 380.323 L45.484 380.323 Z M84.194 374.516 L90 374.516 L90 380.323 L84.194 380.323 Z M103.548 374.516 L109.355 374.516 L109.355 380.323 L103.548 380.323 Z M161.613 374.516 L167.419 374.516 L167.419 380.323 L161.613 380.323 Z M180.968 374.516 L186.774 374.516 L186.774 380.323 L180.968 380.323 Z M200.323 374.516 L206.129 374.516 L206.129 380.323 L200.323 380.323 Z M219.677 374.516 L225.484 374.516 L225.484 380.323 L219.677 380.323 Z M239.032 374.516 L244.839 374.516 L244.839 380.323 L239.032 380.323 Z M316.452 374.516 L322.258 374.516 L322.258 380.323 L316.452 380.323 Z M335.806 374.516 L341.613 374.516 L341.613 380.323 L335.806 380.323 Z M355.161 374.516 L360.968 374.516 L360.968 380.323 L355.161 380.323 Z M374.516 374.516 L380.323 374.516 L380.323 380.323 L374.516 380.323 Z M393.871 374.516 L399.677 374.516 L399.677 380.323 L393.871 380.323 Z M432.581 374.516 L438.387 374.516 L438.387 380.323 L432.581 380.323 Z M451.935 374.516 L457.742 374.516 L457.742 380.323 L451.935 380.323 Z M490.645 374.516 L496.452 374.516 L496.452 380.323 L490.645 380.323 Z M529.355 374.516 L535.161 374.516 L535.161 380.323 L529.355 380.323 Z M548.71 374.516 L554.516 374.516 L554.516 380.323 L548.71 380.323 Z M26.129 393.871 L31.935 393.871 L31.935 399.677 L26.129 399.677 Z M45.484 393.871 L51.29 393.871 L51.29 399.677 L45.484 399.677 Z M122.903 393.871 L128.71 393.871 L128.71 399.677 L122.903 399.677 Z M142.258 393.871 L148.065 393.871 L148.065 399.677 L142.258 399.677 Z M161.613 393.871 L167.419 393.871 L167.419 399.677 L161.613 399.677 Z M180.968 393.871 L186.774 393.871 L186.774 399.677 L180.968 399.677 Z M200.323 393.871 L206.129 393.871 L206.129 399.677 L200.323 399.677 Z M219.677 393.871 L225.484 393.871 L225.484 399.677 L219.677 399.677 Z M239.032 393.871 L244.839 393.871 L244.839 399.677 L239.032 399.677 Z M316.452 393.871 L322.258 393.871 L322.258 399.677 L316.452 399.677 Z M335.806 393.871 L341.613 393.871 L341.613 399.677 L335.806 399.677 Z M432.581 393.871 L438.387 393.871 L438.387 399.677 L432.581 399.677 Z M451.935 393.871 L457.742 393.871 L457.742 399.677 L451.935 399.677 Z M471.29 393.871 L477.097 393.871 L477.097 399.677 L471.29 399.677 Z M490.645 393.871 L496.452 393.871 L496.452 399.677 L490.645 399.677 Z M529.355 393.871 L535.161 393.871 L535.161 399.677 L529.355 399.677 Z M548.71 393.871 L554.516 393.871 L554.516 399.677 L548.71 399.677 Z M84.194 413.226 L90 413.226 L90 419.032 L84.194 419.032 Z M103.548 413.226 L109.355 413.226 L109.355 419.032 L103.548 419.032 Z M122.903 413.226 L128.71 413.226 L128.71 419.032 L122.903 419.032 Z M180.968 413.226 L186.774 413.226 L186.774 419.032 L180.968 419.032 Z M219.677 413.226 L225.484 413.226 L225.484 419.032 L219.677 419.032 Z M277.742 413.226 L283.548 413.226 L283.548 419.032 L277.742 419.032 Z M297.097 413.226 L302.903 413.226 L302.903 419.032 L297.097 419.032 Z M316.452 413.226 L322.258 413.226 L322.258 419.032 L316.452 419.032 Z M374.516 413.226 L380.323 413.226 L380.323 419.032 L374.516 419.032 Z M529.355 413.226 L535.161 413.226 L535.161 419.032 L529.355 419.032 Z M568.065 413.226 L573.871 413.226 L573.871 419.032 L568.065 419.032 Z M277.742 432.581 L283.548 432.581 L283.548 438.387 L277.742 438.387 Z M297.097 432.581 L302.903 432.581 L302.903 438.387 L297.097 438.387 Z M335.806 432.581 L341.613 432.581 L341.613 438.387 L335.806 438.387 Z M355.161 432.581 L360.968 432.581 L360.968 438.387 L355.161 438.387 Z M393.871 432.581 L399.677 432.581 L399.677 438.387 L393.871 438.387 Z M432.581 432.581 L438.387 432.581 L438.387 438.387 L432.581 438.387 Z M451.935 432.581 L457.742 432.581 L457.742 438.387 L451.935 438.387 Z M471.29 432.581 L477.097 432.581 L477.097 438.387 L471.29 438.387 Z M510 432.581 L515.806 432.581 L515.806 438.387 L510 438.387 Z M200.323 451.935 L206.129 451.935 L206.129 457.742 L200.323 457.742 Z M239.032 451.935 L244.839 451.935 L244.839 457.742 L239.032 457.742 Z M277.742 451.935 L283.548 451.935 L283.548 457.742 L277.742 457.742 Z M297.097 451.935 L302.903 451.935 L302.903 457.742 L297.097 457.742 Z M355.161 451.935 L360.968 451.935 L360.968 457.742 L355.161 457.742 Z M432.581 451.935 L438.387 451.935 L438.387 457.742 L432.581 457.742 Z M471.29 451.935 L477.097 451.935 L477.097 457.742 L471.29 457.742 Z M510 451.935 L515.806 451.935 L515.806 457.742 L510 457.742 Z M529.355 451.935 L535.161 451.935 L535.161 457.742 L529.355 457.742 Z M548.71 451.935 L554.516 451.935 L554.516 457.742 L548.71 457.742 Z M200.323 471.29 L206.129 471.29 L206.129 477.097 L200.323 477.097 Z M277.742 471.29 L283.548 471.29 L283.548 477.097 L277.742 477.097 Z M297.097 471.29 L302.903 471.29 L302.903 477.097 L297.097 477.097 Z M432.581 471.29 L438.387 471.29 L438.387 477.097 L432.581 477.097 Z M451.935 471.29 L457.742 471.29 L457.742 477.097 L451.935 477.097 Z M471.29 471.29 L477.097 471.29 L477.097 477.097 L471.29 477.097 Z M529.355 471.29 L535.161 471.29 L535.161 477.097 L529.355 477.097 Z M568.065 471.29 L573.871 471.29 L573.871 477.097 L568.065 477.097 Z M239.032 490.645 L244.839 490.645 L244.839 496.452 L239.032 496.452 Z M277.742 490.645 L283.548 490.645 L283.548 496.452 L277.742 496.452 Z M355.161 490.645 L360.968 490.645 L360.968 496.452 L355.161 496.452 Z M510 490.645 L515.806 490.645 L515.806 496.452 L510 496.452 Z M529.355 490.645 L535.161 490.645 L535.161 496.452 L529.355 496.452 Z M180.968 510 L186.774 510 L186.774 515.806 L180.968 515.806 Z M239.032 510 L244.839 510 L244.839 515.806 L239.032 515.806 Z M277.742 510 L283.548 510 L283.548 515.806 L277.742 515.806 Z M316.452 510 L322.258 510 L322.258 515.806 L316.452 515.806 Z M393.871 510 L399.677 510 L399.677 515.806 L393.871 515.806 Z M413.226 510 L419.032 510 L419.032 515.806 L413.226 515.806 Z M432.581 510 L438.387 510 L438.387 515.806 L432.581 515.806 Z M451.935 510 L457.742 510 L457.742 515.806 L451.935 515.806 Z M490.645 510 L496.452 510 L496.452 515.806 L490.645 515.806 Z M510 510 L515.806 510 L515.806 515.806 L510 515.806 Z M568.065 510 L573.871 510 L573.871 515.806 L568.065 515.806 Z M180.968 529.355 L186.774 529.355 L186.774 535.161 L180.968 535.161 Z M297.097 529.355 L302.903 529.355 L302.903 535.161 L297.097 535.161 Z M316.452 529.355 L322.258 529.355 L322.258 535.161 L316.452 535.161 Z M335.806 529.355 L341.613 529.355 L341.613 535.161 L335.806 535.161 Z M355.161 529.355 L360.968 529.355 L360.968 535.161 L355.161 535.161 Z M451.935 529.355 L457.742 529.355 L457.742 535.161 L451.935 535.161 Z M471.29 529.355 L477.097 529.355 L477.097 535.161 L471.29 535.161 Z M490.645 529.355 L496.452 529.355 L496.452 535.161 L490.645 535.161 Z M510 529.355 L515.806 529.355 L515.806 535.161 L510 535.161 Z M180.968 548.71 L186.774 548.71 L186.774 554.516 L180.968 554.516 Z M277.742 548.71 L283.548 548.71 L283.548 554.516 L277.742 554.516 Z M393.871 548.71 L399.677 548.71 L399.677 554.516 L393.871 554.516 Z M490.645 548.71 L496.452 548.71 L496.452 554.516 L490.645 554.516 Z M529.355 548.71 L535.161 548.71 L535.161 554.516 L529.355 554.516 Z M180.968 568.065 L186.774 568.065 L186.774 573.871 L180.968 573.871 Z M219.677 568.065 L225.484 568.065 L225.484 573.871 L219.677 573.871 Z M239.032 568.065 L244.839 568.065 L244.839 573.871 L239.032 573.871 Z M277.742 568.065 L283.548 568.065 L283.548 573.871 L277.742 573.871 Z M374.516 568.065 L380.323 568.065 L380.323 573.871 L374.516 573.871 Z M393.871 568.065 L399.677 568.065 L399.677 573.871 L393.871 573.871 Z M432.581 568.065 L438.387 568.065 L438.387 573.871 L432.581 573.871 Z M471.29 568.065 L477.097 568.065 L477.097 573.871 L471.29 573.871 Z M510 568.065 L515.806 568.065 L515.806 573.871 L510 573.871 Z M529.355 568.065 L535.161 568.065 L535.161 573.871 L529.355 573.871 Z M568.065 568.065 L573.871 568.065 L573.871 573.871 L568.065 573.871 Z " />
   <path fill="#ffffff" fill-opacity="0.2" d="M251.613 19.355 L270.968 19.355 L270.968 38.71 L251.613 38.71 Z M270.968 19.355 L290.323 19.355 L290.323 38.71 L270.968 38.71 Z M387.097 19.355 L406.452 19.355 L406.452 38.71 L387.097 38.71 Z M406.452 19.355 L425.806 19.355 L425.806 38.71 L406.452 38.71 Z M174.194 38.71 L193.548 38.71 L193.548 58.065 L174.194 58.065 Z M193.548 38.71 L212.903 38.71 L212.903 58.065 L193.548 58.065 Z M212.903 38.71 L232.258 38.71 L232.258 58.065 L212.903 58.065 Z M232.258 38.71 L251.613 38.71 L251.613 58.065 L232.258 58.065 Z M251.613 38.71 L270.968 38.71 L270.968 58.065 L251.613 58.065 Z M270.968 38.71 L290.323 38.71 L290.323 58.065 L270.968 58.065 Z M290.323 38.71 L309.677 38.71 L309.677 58.065 L290.323 58.065 Z M329.032 38.71 L348.387 38.71 L348.387 58.065 L329.032 58.065 Z M348.387 38.71 L367.742 38.71 L367.742 58.065 L348.387 58.065 Z M387.097 38.71 L406.452 38.71 L406.452 58.065 L387.097 58.065 Z M193.548 58.065 L212.903 58.065 L212.903 77.419 L193.548 77.419 Z M212.903 58.065 L232.258 58.065 L232.258 77.419 L212.903 77.419 Z M251.613 58.065 L270.968 58.065 L270.968 77.419 L251.613 77.419 Z M290.323 58.065 L309.677 58.065 L309.677 77.419 L290.323 77.419 Z M329.032 58.065 L348.387 58.065 L348.387 77.419 L329.032 77.419 Z M348.387 58.065 L367.742 58.065 L367.742 77.419 L348.387 77.419 Z M367.742 58.065 L387.097 58.065 L387.097 77.419 L367.742 77.419 Z M193.548 77.419 L212.903 77.419 L212.903 96.774 L193.548 96.774 Z M212.903 77.419 L232.258 77.419 L232.258 96.774 L212.903 96.774 Z M232.258 77.419 L251.613 77.419 L251.613 96.774 L232.258 96.774 Z M270.968 77.419 L290.323 77.419 L290.323 96.774 L270.968 96.774 Z M329.032 77.419 L348.387 77.419 L348.387 96.774 L329.032 96.774 Z M406.452 77.419 L425.806 77.419 L425.806 96.774 L406.452 96.774 Z M232.258 96.774 L251.613 96.774 L251.613 116.129 L232.258 116.129 Z M251.613 96.774 L270.968 96.774 L270.968 116.129 L251.613 116.129 Z M270.968 96.774 L290.323 96.774 L290.323 116.129 L270.968 116.129 Z M290.323 96.774 L309.677 96.774 L309.677 116.129 L290.323 116.129 Z M309.677 96.774 L329.032 96.774 L329.032 116.129 L309.677 116.129 Z M348.387 96.774 L367.742 96.774 L367.742 116.129 L348.387 116.129 Z M367.742 96.774 L387.097 96.774 L387.097 116.129 L367.742 116.129 Z M174.194 116.129 L193.548 116.129 L193.548 135.484 L174.194 135.484 Z M193.548 116.129 L212.903 116.129 L212.903 135.484 L193.548 135.484 Z M309.677 116.129 L329.032 116.129 L329.032 135.484 L309.677 135.484 Z M329.032 116.129 L348.387 116.129 L348.387 135.484 L329.032 135.484 Z M348.387 116.129 L367.742 116.129 L367.742 135.484 L348.387 135.484 Z M387.097 116.129 L406.452 116.129 L406.452 135.484 L387.097 135.484 Z M174.194 135.484 L193.548 135.484 L193.548 154.839 L174.194 154.839 Z M212.903 135.484 L232.258 135.484 L232.258 154.839 L212.903 154.839 Z M251.613 135.484 L270.968 135.484 L270.968 154.839 L251.613 154.839 Z M290.323 135.484 L309.677 135.484 L309.677 154.839 L290.323 154.839 Z M329.032 135.484 L348.387 135.484 L348.387 154.839 L329.032 154.839 Z M367.742 135.484 L387.097 135.484 L387.097 154.839 L367.742 154.839 Z M406.452 135.484 L425.806 135.484 L425.806 154.839 L406.452 154.839 Z M174.194 154.839 L193.548 154.839 L193.548 174.194 L174.194 174.194 Z M193.548 154.839 L212.903 154.839 L212.903 174.194 L193.548 174.194 Z M251.613 154.839 L270.968 154.839 L270.968 174.194 L251.613 174.194 Z M270.968 154.839 L290.323 154.839 L290.323 174.194 L270.968 174.194 Z M290.323 154.839 L309.677 154.839 L309.677 174.194 L290.323 174.194 Z M387.097 154.839 L406.452 154.839 L406.452 174.194 L387.097 174.194 Z M406.452 154.839 L425.806 154.839 L425.806 174.194 L406.452 174.194 Z M96.774 174.194 L116.129 174.194 L116.129 193.548 L96.774 193.548 Z M116.129 174.194 L135.484 174.194 L135.484 193.548 L116.129 193.548 Z M135.484 174.194 L154.839 174.194 L154.839 193.548 L135.484 193.548 Z M154.839 174.194 L174.194 174.194 L174.194 193.548 L154.839 193.548 Z M212.903 174.194 L232.258 174.194 L232.258 193.548 L212.903 193.548 Z M290.323 174.194 L309.677 174.194 L309.677 193.548 L290.323 193.548 Z M309.677 174.194 L329.032 174.194 L329.032 193.548 L309.677 193.548 Z M387.097 174.194 L406.452 174.194 L406.452 193.548 L387.097 193.548 Z M406.452 174.194 L425.806 174.194 L425.806 193.548 L406.452 193.548 Z M445.161 174.194 L464.516 174.194 L464.516 193.548 L445.161 193.548 Z M464.516 174.194 L483.871 174.194 L483.871 193.548 L464.516 193.548 Z M541.935 174.194 L561.29 174.194 L561.29 193.548 L541.935 193.548 Z M38.71 193.548 L58.065 193.548 L58.065 212.903 L38.71 212.903 Z M96.774 193.548 L116.129 193.548 L116.129 212.903 L96.774 212.903 Z M116.129 193.548 L135.484 193.548 L135.484 212.903 L116.129 212.903 Z M270.968 193.548 L290.323 193.548 L290.323 212.903 L270.968 212.903 Z M290.323 193.548 L309.677 193.548 L309.677 212.903 L290.323 212.903 Z M309.677 193.548 L329.032 193.548 L329.032 212.903 L309.677 212.903 Z M348.387 193.548 L367.742 193.548 L367.742 212.903 L348.387 212.903 Z M367.742 193.548 L387.097 193.548 L387.097 212.903 L367.742 212.903 Z M387.097 193.548 L406.452 193.548 L406.452 212.903 L387.097 212.903 Z M445.161 193.548 L464.516 193.548 L464.516 212.903 L445.161 212.903 Z M464.516 193.548 L483.871 193.548 L483.871 212.903 L464.516 212.903 Z M483.871 193.548 L503.226 193.548 L503.226 212.903 L483.871 212.903 Z M522.581 193.548 L541.935 193.548 L541.935 212.903 L522.581 212.903 Z M541.935 193.548 L561.29 193.548 L561.29 212.903 L541.935 212.903 Z M561.29 193.548 L580.645 193.548 L580.645 212.903 L561.29 212.903 Z M58.065 212.903 L77.419 212.903 L77.419 232.258 L58.065 232.258 Z M77.419 212.903 L96.774 212.903 L96.774 232.258 L77.419 232.258 Z M135.484 212.903 L154.839 212.903 L154.839 232.258 L135.484 232.258 Z M212.903 212.903 L232.258 212.903 L232.258 232.258 L212.903 232.258 Z M251.613 212.903 L270.968 212.903 L270.968 232.258 L251.613 232.258 Z M270.968 212.903 L290.323 212.903 L290.323 232.258 L270.968 232.258 Z M329.032 212.903 L348.387 212.903 L348.387 232.258 L329.032 232.258 Z M387.097 212.903 L406.452 212.903 L406.452 232.258 L387.097 232.258 Z M425.806 212.903 L445.161 212.903 L445.161 232.258 L425.806 232.258 Z M464.516 212.903 L483.871 212.903 L483.871 232.258 L464.516 232.258 Z M483.871 212.903 L503.226 212.903 L503.226 232.258 L483.871 232.258 Z M503.226 212.903 L522.581 212.903 L522.581 232.258 L503.226 232.258 Z M522.581 212.903 L541.935 212.903 L541.935 232.258 L522.581 232.258 Z M561.29 212.903 L580.645 212.903 L580.645 232.258 L561.29 232.258 Z M19.355 232.258 L38.71 232.258 L38.71 251.613 L19.355 251.613 Z M77.419 232.258 L96.774 232.258 L96.774 251.613 L77.419 251.613 Z M96.774 232.258 L116.129 232.258 L116.129 251.613 L96.774 251.613 Z M154.839 232.258 L174.194 232.258 L174.194 251.613 L154.839 251.613 Z M193.548 232.258 L212.903 232.258 L212.903 251.613 L193.548 251.613 Z M212.903 232.258 L232.258 232.258 L232.258 251.613 L212.903 251.613 Z M251.613 232.258 L270.968 232.258 L270.968 251.613 L251.613 251.613 Z M290.323 232.258 L309.677 232.258 L309.677 251.613 L290.323 251.613 Z M309.677 232.258 L329.032 232.258 L329.032 251.613 L309.677 251.613 Z M329.032 232.258 L348.387 232.258 L348.387 251.613 L329.032 251.613 Z M348.387 232.258 L367.742 232.258 L367.742 251.613 L348.387 251.613 Z M387.097 232.258 L406.452 232.258 L406.452 251.613 L387.097 251.613 Z M406.452 232.258 L425.806 232.258 L425.806 251.613 L406.452 251.613 Z M425.806 232.258 L445.161 232.258 L445.161 251.613 L425.806 251.613 Z M483.871 232.258 L503.226 232.258 L503.226 251.613 L483.871 251.613 Z M503.226 232.258 L522.581 232.258 L522.581 251.613 L503.226 251.613 Z M541.935 232.258 L561.29 232.258 L561.29 251.613 L541.935 251.613 Z M561.29 232.258 L580.645 232.258 L580.645 251.613 L561.29 251.613 Z M19.355 251.613 L38.71 251.613 L38.71 270.968 L19.355 270.968 Z M96.774 251.613 L116.129 251.613 L116.129 270.968 L96.774 270.968 Z M135.484 251.613 L154.839 251.613 L154.839 270.968 L135.484 270.968 Z M174.194 251.613 L193.548 251.613 L193.548 270.968 L174.194 270.968 Z M193.548 251.613 L212.903 251.613 L212.903 270.968 L193.548 270.968 Z M212.903 251.613 L232.258 251.613 L232.258 270.968 L212.903 270.968 Z M232.258 251.613 L251.613 251.613 L251.613 270.968 L232.258 270.968 Z M309.677 251.613 L329.032 251.613 L329.032 270.968 L309.677 270.968 Z M329.032 251.613 L348.387 251.613 L348.387 270.968 L329.032 270.968 Z M367.742 251.613 L387.097 251.613 L387.097 270.968 L367.742 270.968 Z M464.516 251.613 L483.871 251.613 L483.871 270.968 L464.516 270.968 Z M503.226 251.613 L522.581 251.613 L522.581 270.968 L503.226 270.968 Z M561.29 251.613 L580.645 251.613 L580.645 270.968 L561.29 270.968 Z M38.71 270.968 L58.065 270.968 L58.065 290.323 L38.71 290.323 Z M58.065 270.968 L77.419 270.968 L77.419 290.323 L58.065 290.323 Z M96.774 270.968 L116.129 270.968 L116.129 290.323 L96.774 290.323 Z M116.129 270.968 L135.484 270.968 L135.484 290.323 L116.129 290.323 Z M154.839 270.968 L174.194 270.968 L174.194 290.323 L154.839 290.323 Z M174.194 270.968 L193.548 270.968 L193.548 290.323 L174.194 290.323 Z M193.548 270.968 L212.903 270.968 L212.903 290.323 L193.548 290.323 Z M212.903 270.968 L232.258 270.968 L232.258 290.323 L212.903 290.323 Z M251.613 270.968 L270.968 270.968 L270.968 290.323 L251.613 290.323 Z M348.387 270.968 L367.742 270.968 L367.742 290.323 L348.387 290.323 Z M445.161 270.968 L464.516 270.968 L464.516 290.323 L445.161 290.323 Z M483.871 270.968 L503.226 270.968 L503.226 290.323 L483.871 290.323 Z M522.581 270.968 L541.935 270.968 L541.935 290.323 L522.581 290.323 Z M541.935 270.968 L561.29 270.968 L561.29 290.323 L541.935 290.323 Z M561.29 270.968 L580.645 270.968 L580.645 290.323 L561.29 290.323 Z M38.71 290.323 L58.065 290.323 L58.065 309.677 L38.71 309.677 Z M58.065 290.323 L77.419 290.323 L77.419 309.677 L58.065 309.677 Z M135.484 290.323 L154.839 290.323 L154.839 309.677 L135.484 309.677 Z M154.839 290.323 L174.194 290.323 L174.194 309.677 L154.839 309.677 Z M174.194 290.323 L193.548 290.323 L193.548 309.677 L174.194 309.677 Z M193.548 290.323 L212.903 290.323 L212.903 309.677 L193.548 309.677 Z M212.903 290.323 L232.258 290.323 L232.258 309.677 L212.903 309.677 Z M251.613 290.323 L270.968 290.323 L270.968 309.677 L251.613 309.677 Z M270.968 290.323 L290.323 290.323 L290.323 309.677 L270.968 309.677 Z M290.323 290.323 L309.677 290.323 L309.677 309.677 L290.323 309.677 Z M309.677 290.323 L329.032 290.323 L329.032 309.677 L309.677 309.677 Z M329.032 290.323 L348.387 290.323 L348.387 309.677 L329.032 309.677 Z M367.742 290.323 L387.097 290.323 L387.097 309.677 L367.742 309.677 Z M406.452 290.323 L425.806 290.323 L425.806 309.677 L406.452 309.677 Z M483.871 290.323 L503.226 290.323 L503.226 309.677 L483.871 309.677 Z M561.29 290.323 L580.645 290.323 L580.645 309.677 L561.29 309.677 Z M116.129 309.677 L135.484 309.677 L135.484 329.032 L116.129 329.032 Z M154.839 309.677 L174.194 309.677 L174.194 329.032 L154.839 329.032 Z M174.194 309.677 L193.548 309.677 L193.548 329.032 L174.194 329.032 Z M212.903 309.677 L232.258 309.677 L232.258 329.032 L212.903 329.032 Z M251.613 309.677 L270.968 309.677 L270.968 329.032 L251.613 329.032 Z M270.968 309.677 L290.323 309.677 L290.323 329.032 L270.968 329.032 Z M290.323 309.677 L309.677 309.677 L309.677 329.032 L290.323 329.032 Z M309.677 309.677 L329.032 309.677 L329.032 329.032 L309.677 329.032 Z M329.032 309.677 L348.387 309.677 L348.387 329.032 L329.032 329.032 Z M367.742 309.677 L387.097 309.677 L387.097 329.032 L367.742 329.032 Z M387.097 309.677 L406.452 309.677 L406.452 329.032 L387.097 329.032 Z M406.452 309.677 L425.806 309.677 L425.806 329.032 L406.452 329.032 Z M464.516 309.677 L483.871 309.677 L483.871 329.032 L464.516 329.032 Z M503.226 309.677 L522.581 309.677 L522.581 329.032 L503.226 329.032 Z M38.71 329.032 L58.065 329.032 L58.065 348.387 L38.71 348.387 Z M77.419 329.032 L96.774 329.032 L96.774 348.387 L77.419 348.387 Z M135.484 329.032 L154.839 329.032 L154.839 348.387 L135.484 348.387 Z M154.839 329.032 L174.194 329.032 L174.194 348.387 L154.839 348.387 Z M193.548 329.032 L212.903 329.032 L212.903 348.387 L193.548 348.387 Z M212.903 329.032 L232.258 329.032 L232.258 348.387 L212.903 348.387 Z M270.968 329.032 L290.323 329.032 L290.323 348.387 L270.968 348.387 Z M290.323 329.032 L309.677 329.032 L309.677 348.387 L290.323 348.387 Z M329.032 329.032 L348.387 329.032 L348.387 348.387 L329.032 348.387 Z M348.387 329.032 L367.742 329.032 L367.742 348.387 L348.387 348.387 Z M367.742 329.032 L387.097 329.032 L387.097 348.387 L367.742 348.387 Z M387.097 329.032 L406.452 329.032 L406.452 348.387 L387.097 348.387 Z M406.452 329.032 L425.806 329.032 L425.806 348.387 L406.452 348.387 Z M425.806 329.032 L445.161 329.032 L445.161 348.387 L425.806 348.387 Z M19.355 348.387 L38.71 348.387 L38.71 367.742 L19.355 367.742 Z M38.71 348.387 L58.065 348.387 L58.065 367.742 L38.71 367.742 Z M77.419 348.387 L96.774 348.387 L96.774 367.742 L77.419 367.742 Z M96.774 348.387 L116.129 348.387 L116.129 367.742 L96.774 367.742 Z M116.129 348.387 L135.484 348.387 L135.484 367.742 L116.129 367.742 Z M174.194 348.387 L193.548 348.387 L193.548 367.742 L174.194 367.742 Z M212.903 348.387 L232.258 348.387 L232.258 367.742 L212.903 367.742 Z M251.613 348.387 L270.968 348.387 L270.968 367.742 L251.613 367.742 Z M329.032 348.387 L348.387 348.387 L348.387 367.742 L329.032 367.742 Z M348.387 348.387 L367.742 348.387 L367.742 367.742 L348.387 367.742 Z M387.097 348.387 L406.452 348.387 L406.452 367.742 L387.097 367.742 Z M406.452 348.387 L425.806 348.387 L425.806 367.742 L406.452 367.742 Z M425.806 348.387 L445.161 348.387 L445.161 367.742 L425.806 367.742 Z M445.161 348.387 L464.516 348.387 L464.516 367.742 L445.161 367.742 Z M483.871 348.387 L503.226 348.387 L503.226 367.742 L483.871 367.742 Z M503.226 348.387 L522.581 348.387 L522.581 367.742 L503.226 367.742 Z M561.29 348.387 L580.645 348.387 L580.645 367.742 L561.29 367.742 Z M58.065 367.742 L77.419 367.742 L77.419 387.097 L58.065 387.097 Z M116.129 367.742 L135.484 367.742 L135.484 387.097 L116.129 387.097 Z M135.484 367.742 L154.839 367.742 L154.839 387.097 L135.484 387.097 Z M251.613 367.742 L270.968 367.742 L270.968 387.097 L251.613 387.097 Z M270.968 367.742 L290.323 367.742 L290.323 387.097 L270.968 387.097 Z M290.323 367.742 L309.677 367.742 L309.677 387.097 L290.323 387.097 Z M406.452 367.742 L425.806 367.742 L425.806 387.097 L406.452 387.097 Z M464.516 367.742 L483.871 367.742 L483.871 387.097 L464.516 387.097 Z M503.226 367.742 L522.581 367.742 L522.581 387.097 L503.226 387.097 Z M561.29 367.742 L580.645 367.742 L580.645 387.097 L561.29 387.097 Z M58.065 387.097 L77.419 387.097 L77.419 406.452 L58.065 406.452 Z M77.419 387.097 L96.774 387.097 L96.774 406.452 L77.419 406.452 Z M96.774 387.097 L116.129 387.097 L116.129 406.452 L96.774 406.452 Z M251.613 387.097 L270.968 387.097 L270.968 406.452 L251.613 406.452 Z M270.968 387.097 L290.323 387.097 L290.323 406.452 L270.968 406.452 Z M290.323 387.097 L309.677 387.097 L309.677 406.452 L290.323 406.452 Z M348.387 387.097 L367.742 387.097 L367.742 406.452 L348.387 406.452 Z M367.742 387.097 L387.097 387.097 L387.097 406.452 L367.742 406.452 Z M387.097 387.097 L406.452 387.097 L406.452 406.452 L387.097 406.452 Z M406.452 387.097 L425.806 387.097 L425.806 406.452 L406.452 406.452 Z M503.226 387.097 L522.581 387.097 L522.581 406.452 L503.226 406.452 Z M561.29 387.097 L580.645 387.097 L580.645 406.452 L561.29 406.452 Z M19.355 406.452 L38.71 406.452 L38.71 425.806 L19.355 425.806 Z M38.71 406.452 L58.065 406.452 L58.065 425.806 L38.71 425.806 Z M58.065 406.452 L77.419 406.452 L77.419 425.806 L58.065 425.806 Z M135.484 406.452 L154.839 406.452 L154.839 425.806 L135.484 425.806 Z M154.839 406.452 L174.194 406.452 L174.194 425.806 L154.839 425.806 Z M193.548 406.452 L212.903 406.452 L212.903 425.806 L193.548 425.806 Z M232.258 406.452 L251.613 406.452 L251.613 425.806 L232.258 425.806 Z M251.613 406.452 L270.968 406.452 L270.968 425.806 L251.613 425.806 Z M329.032 406.452 L348.387 406.452 L348.387 425.806 L329.032 425.806 Z M348.387 406.452 L367.742 406.452 L367.742 425.806 L348.387 425.806 Z M387.097 406.452 L406.452 406.452 L406.452 425.806 L387.097 425.806 Z M406.452 406.452 L425.806 406.452 L425.806 425.806 L406.452 425.806 Z M425.806 406.452 L445.161 406.452 L445.161 425.806 L425.806 425.806 Z M445.161 406.452 L464.516 406.452 L464.516 425.806 L445.161 425.806 Z M464.516 406.452 L483.871 406.452 L483.871 425.806 L464.516 425.806 Z M483.871 406.452 L503.226 406.452 L503.226 425.806 L483.871 425.806 Z M503.226 406.452 L522.581 406.452 L522.581 425.806 L503.226 425.806 Z M541.935 406.452 L561.29 406.452 L561.29 425.806 L541.935 425.806 Z M174.194 425.806 L193.548 425.806 L193.548 445.161 L174.194 445.161 Z M193.548 425.806 L212.903 425.806 L212.903 445.161 L193.548 445.161 Z M212.903 425.806 L232.258 425.806 L232.258 445.161 L212.903 445.161 Z M232.258 425.806 L251.613 425.806 L251.613 445.161 L232.258 445.161 Z M251.613 425.806 L270.968 425.806 L270.968 445.161 L251.613 445.161 Z M309.677 425.806 L329.032 425.806 L329.032 445.161 L309.677 445.161 Z M367.742 425.806 L387.097 425.806 L387.097 445.161 L367.742 445.161 Z M406.452 425.806 L425.806 425.806 L425.806 445.161 L406.452 445.161 Z M483.871 425.806 L503.226 425.806 L503.226 445.161 L483.871 445.161 Z M522.581 425.806 L541.935 425.806 L541.935 445.161 L522.581 445.161 Z M541.935 425.806 L561.29 425.806 L561.29 445.161 L541.935 445.161 Z M561.29 425.806 L580.645 425.806 L580.645 445.161 L561.29 445.161 Z M174.194 445.161 L193.548 445.161 L193.548 464.516 L174.194 464.516 Z M212.903 445.161 L232.258 445.161 L232.258 464.516 L212.903 464.516 Z M251.613 445.161 L270.968 445.161 L270.968 464.516 L251.613 464.516 Z M309.677 445.161 L329.032 445.161 L329.032 464.516 L309.677 464.516 Z M329.032 445.161 L348.387 445.161 L348.387 464.516 L329.032 464.516 Z M367.742 445.161 L387.097 445.161 L387.097 464.516 L367.742 464.516 Z M387.097 445.161 L406.452 445.161 L406.452 464.516 L387.097 464.516 Z M406.452 445.161 L425.806 445.161 L425.806 464.516 L406.452 464.516 Z M445.161 445.161 L464.516 445.161 L464.516 464.516 L445.161 464.516 Z M483.871 445.161 L503.226 445.161 L503.226 464.516 L483.871 464.516 Z M561.29 445.161 L580.645 445.161 L580.645 464.516 L561.29 464.516 Z M174.194 464.516 L193.548 464.516 L193.548 483.871 L174.194 483.871 Z M212.903 464.516 L232.258 464.516 L232.258 483.871 L212.903 483.871 Z M232.258 464.516 L251.613 464.516 L251.613 483.871 L232.258 483.871 Z M251.613 464.516 L270.968 464.516 L270.968 483.871 L251.613 483.871 Z M309.677 464.516 L329.032 464.516 L329.032 483.871 L309.677 483.871 Z M329.032 464.516 L348.387 464.516 L348.387 483.871 L329.032 483.871 Z M348.387 464.516 L367.742 464.516 L367.742 483.871 L348.387 483.871 Z M367.742 464.516 L387.097 464.516 L387.097 483.871 L367.742 483.871 Z M387.097 464.516 L406.452 464.516 L406.452 483.871 L387.097 483.871 Z M406.452 464.516 L425.806 464.516 L425.806 483.871 L406.452 483.871 Z M483.871 464.516 L503.226 464.516 L503.226 483.871 L483.871 483.871 Z M503.226 464.516 L522.581 464.516 L522.581 483.871 L503.226 483.871 Z M541.935 464.516 L561.29 464.516 L561.29 483.871 L541.935 483.871 Z M174.194 483.871 L193.548 483.871 L193.548 503.226 L174.194 503.226 Z M193.548 483.871 L212.903 483.871 L212.903 503.226 L193.548 503.226 Z M212.903 483.871 L232.258 483.871 L232.258 503.226 L212.903 503.226 Z M251.613 483.871 L270.968 483.871 L270.968 503.226 L251.613 503.226 Z M290.323 483.871 L309.677 483.871 L309.677 503.226 L290.323 503.226 Z M309.677 483.871 L329.032 483.871 L329.032 503.226 L309.677 503.226 Z M329.032 483.871 L348.387 483.871 L348.387 503.226 L329.032 503.226 Z M367.742 483.871 L387.097 483.871 L387.097 503.226 L367.742 503.226 Z M387.097 483.871 L406.452 483.871 L406.452 503.226 L387.097 503.226 Z M406.452 483.871 L425.806 483.871 L425.806 503.226 L406.452 503.226 Z M425.806 483.871 L445.161 483.871 L445.161 503.226 L425.806 503.226 Z M445.161 483.871 L464.516 483.871 L464.516 503.226 L445.161 503.226 Z M464.516 483.871 L483.871 483.871 L483.871 503.226 L464.516 503.226 Z M483.871 483.871 L503.226 483.871 L503.226 503.226 L483.871 503.226 Z M541.935 483.871 L561.29 483.871 L561.29 503.226 L541.935 503.226 Z M561.29 483.871 L580.645 483.871 L580.645 503.226 L561.29 503.226 Z M193.548 503.226 L212.903 503.226 L212.903 522.581 L193.548 522.581 Z M212.903 503.226 L232.258 503.226 L232.258 522.581 L212.903 522.581 Z M251.613 503.226 L270.968 503.226 L270.968 522.581 L251.613 522.581 Z M290.323 503.226 L309.677 503.226 L309.677 522.581 L290.323 522.581 Z M329.032 503.226 L348.387 503.226 L348.387 522.581 L329.032 522.581 Z M348.387 503.226 L367.742 503.226 L367.742 522.581 L348.387 522.581 Z M367.742 503.226 L387.097 503.226 L387.097 522.581 L367.742 522.581 Z M464.516 503.226 L483.871 503.226 L483.871 522.581 L464.516 522.581 Z M522.581 503.226 L541.935 503.226 L541.935 522.581 L522.581 522.581 Z M541.935 503.226 L561.29 503.226 L561.29 522.581 L541.935 522.581 Z M193.548 522.581 L212.903 522.581 L212.903 541.935 L193.548 541.935 Z M212.903 522.581 L232.258 522.581 L232.258 541.935 L212.903 541.935 Z M232.258 522.581 L251.613 522.581 L251.613 541.935 L232.258 541.935 Z M251.613 522.581 L270.968 522.581 L270.968 541.935 L251.613 541.935 Z M270.968 522.581 L290.323 522.581 L290.323 541.935 L270.968 541.935 Z M367.742 522.581 L387.097 522.581 L387.097 541.935 L367.742 541.935 Z M387.097 522.581 L406.452 522.581 L406.452 541.935 L387.097 541.935 Z M406.452 522.581 L425.806 522.581 L425.806 541.935 L406.452 541.935 Z M425.806 522.581 L445.161 522.581 L445.161 541.935 L425.806 541.935 Z M522.581 522.581 L541.935 522.581 L541.935 541.935 L522.581 541.935 Z M541.935 522.581 L561.29 522.581 L561.29 541.935 L541.935 541.935 Z M561.29 522.581 L580.645 522.581 L580.645 541.935 L561.29 541.935 Z M193.548 541.935 L212.903 541.935 L212.903 561.29 L193.548 561.29 Z M212.903 541.935 L232.258 541.935 L232.258 561.29 L212.903 561.29 Z M232.258 541.935 L251.613 541.935 L251.613 561.29 L232.258 561.29 Z M251.613 541.935 L270.968 541.935 L270.968 561.29 L251.613 561.29 Z M290.323 541.935 L309.677 541.935 L309.677 561.29 L290.323 561.29 Z M309.677 541.935 L329.032 541.935 L329.032 561.29 L309.677 561.29 Z M329.032 541.935 L348.387 541.935 L348.387 561.29 L329.032 561.29 Z M348.387 541.935 L367.742 541.935 L367.742 561.29 L348.387 561.29 Z M367.742 541.935 L387.097 541.935 L387.097 561.29 L367.742 561.29 Z M406.452 541.935 L425.806 541.935 L425.806 561.29 L406.452 561.29 Z M425.806 541.935 L445.161 541.935 L445.161 561.29 L425.806 561.29 Z M445.161 541.935 L464.516 541.935 L464.516 561.29 L445.161 561.29 Z M464.516 541.935 L483.871 541.935 L483.871 561.29 L464.516 561.29 Z M503.226 541.935 L522.581 541.935 L522.581 561.29 L503.226 561.29 Z M541.935 541.935 L561.29 541.935 L561.29 561.29 L541.935 561.29 Z M561.29 541.935 L580.645 541.935 L580.645 561.29 L561.29 561.29 Z M193.548 561.29 L212.903 561.29 L212.903 580.645 L193.548 580.645 Z M251.613 561.29 L270.968 561.29 L270.968 580.645 L251.613 580.645 Z M290.323 561.29 L309.677 561.29 L309.677 580.645 L290.323 580.645 Z M309.677 561.29 L329.032 561.29 L329.032 580.645 L309.677 580.645 Z M329.032 561.29 L348.387 561.29 L348.387 580.645 L329.032 580.645 Z M348.387 561.29 L367.742 561.29 L367.742 580.645 L348.387 580.645 Z M406.452 561.29 L425.806 561.29 L425.806 580.645 L406.452 580.645 Z M445.161 561.29 L464.516 561.29 L464.516 580.645 L445.161 580.645 Z M483.871 561.29 L503.226 561.29 L503.226 580.645 L483.871 580.645 Z M541.935 561.29 L561.29 561.29 L561.29 580.645 L541.935 580.645 Z " />
   <path fill="#ffffff" fill-opacity="1.0" d="M258.387 26.129 L264.194 26.129 L264.194 31.935 L258.387 31.935 Z M277.742 26.129 L283.548 26.129 L283.548 31.935 L277.742 31.935 Z M393.871 26.129 L399.677 26.129 L399.677 31.935 L393.871 31.935 Z M413.226 26.129 L419.032 26.129 L419.032 31.935 L413.226 31.935 Z M180.968 45.484 L186.774 45.484 L186.774 51.29 L180.968 51.29 Z M200.323 45.484 L206.129 45.484 L206.129 51.29 L200.323 51.29 Z M219.677 45.484 L225.484 45.484 L225.484 51.29 L219.677 51.29 Z M239.032 45.484 L244.839 45.484 L244.839 51.29 L239.032 51.29 Z M258.387 45.484 L264.194 45.484 L264.194 51.29 L258.387 51.29 Z M277.742 45.484 L283.548 45.484 L283.548 51.29 L277.742 51.29 Z M297.097 45.484 L302.903 45.484 L302.903 51.29 L297.097 51.29 Z M335.806 45.484 L341.613 45.484 L341.613 51.29 L335.806 51.29 Z M355.161 45.484 L360.968 45.484 L360.968 51.29 L355.161 51.29 Z M393.871 45.484 L399.677 45.484 L399.677 51.29 L393.871 51.29 Z M200.323 64.839 L206.129 64.839 L206.129 70.645 L200.323 70.645 Z M219.677 64.839 L225.484 64.839 L225.484 70.645 L219.677 70.645 Z M258.387 64.839 L264.194 64.839 L264.194 70.645 L258.387 70.645 Z M297.097 64.839 L302.903 64.839 L302.903 70.645 L297.097 70.645 Z M335.806 64.839 L341.613 64.839 L341.613 70.645 L335.806 70.645 Z M355.161 64.839 L360.968 64.839 L360.968 70.645 L355.161 70.645 Z M374.516 64.839 L380.323 64.839 L380.323 70.645 L374.516 70.645 Z M200.323 84.194 L206.129 84.194 L206.129 90 L200.323 90 Z M219.677 84.194 L225.484 84.194 L225.484 90 L219.677 90 Z M239.032 84.194 L244.839 84.194 L244.839 90 L239.032 90 Z M277.742 84.194 L283.548 84.194 L283.548 90 L277.742 90 Z M335.806 84.194 L341.613 84.194 L341.613 90 L335.806 90 Z M413.226 84.194 L419.032 84.194 L419.032 90 L413.226 90 Z M239.032 103.548 L244.839 103.548 L244.839 109.355 L239.032 109.355 Z M258.387 103.548 L264.194 103.548 L264.194 109.355 L258.387 109.355 Z M277.742 103.548 L283.548 103.548 L283.548 109.355 L277.742 109.355 Z M297.097 103.548 L302.903 103.548 L302.903 109.355 L297.097 109.355 Z M316.452 103.548 L322.258 103.548 L322.258 109.355 L316.452 109.355 Z M355.161 103.548 L360.968 103.548 L360.968 109.355 L355.161 109.355 Z M374.516 103.548 L380.323 103.548 L380.323 109.355 L374.516 109.355 Z M180.968 122.903 L186.774 122.903 L186.774 128.71 L180.968 128.71 Z M200.323 122.903 L206.129 122.903 L206.129 128.71 L200.323 128.71 Z M316.452 122.903 L322.258 122.903 L322.258 128.71 L316.452 128.71 Z M335.806 122.903 L341.613 122.903 L341.613 128.71 L335.806 128.71 Z M355.161 122.903 L360.968 122.903 L360.968 128.71 L355.161 128.71 Z M393.871 122.903 L399.677 122.903 L399.677 128.71 L393.871 128.71 Z M180.968 142.258 L186.774 142.258 L186.774 148.065 L180.968 148.065 Z M219.677 142.258 L225.484 142.258 L225.484 148.065 L219.677 148.065 Z M258.387 142.258 L264.194 142.258 L264.194 148.065 L258.387 148.065 Z M297.097 142.258 L302.903 142.258 L302.903 148.065 L297.097 148.065 Z M335.806 142.258 L341.613 142.258 L341.613 148.065 L335.806 148.065 Z M374.516 142.258 L380.323 142.258 L380.323 148.065 L374.516 148.065 Z M413.226 142.258 L419.032 142.258 L419.032 148.065 L413.226 148.065 Z M180.968 161.613 L186.774 161.613 L186.774 167.419 L180.968 167.419 Z M200.323 161.613 L206.129 161.613 L206.129 167.419 L200.323 167.419 Z M258.387 161.613 L264.194 161.613 L264.194 167.419 L258.387 167.419 Z M277.742 161.613 L283.548 161.613 L283.548 167.419 L277.742 167.419 Z M297.097 161.613 L302.903 161.613 L302.903 167.419 L297.097 167.419 Z M393.871 161.613 L399.677 161.613 L399.677 167.419 L393.871 167.419 Z M413.226 161.613 L419.032 161.613 L419.032 167.419 L413.226 167.419 Z M103.548 180.968 L109.355 180.968 L109.355 186.774 L103.548 186.774 Z M122.903 180.968 L128.71 180.968 L128.71 186.774 L122.903 186.774 Z M142.258 180.968 L148.065 180.968 L148.065 186.774 L142.258 186.774 Z M161.613 180.968 L167.419 180.968 L167.419 186.774 L161.613 186.774 Z M219.677 180.968 L225.484 180.968 L225.484 186.774 L219.677 186.774 Z M297.097 180.968 L302.903 180.968 L302.903 186.774 L297.097 186.774 Z M316.452 180.968 L322.258 180.968 L322.258 186.774 L316.452 186.774 Z M393.871 180.968 L399.677 180.968 L399.677 186.774 L393.871 186.774 Z M413.226 180.968 L419.032 180.968 L419.032 186.774 L413.226 186.774 Z M451.935 180.968 L457.742 180.968 L457.742 186.774 L451.935 186.774 Z M471.29 180.968 L477.097 180.968 L477.097 186.774 L471.29 186.774 Z M548.71 180.968 L554.516 180.968 L554.516 186.774 L548.71 186.774 Z M45.484 200.323 L51.29 200.323 L51.29 206.129 L45.484 206.129 Z M103.548 200.323 L109.355 200.323 L109.355 206.129 L103.548 206.129 Z M122.903 200.323 L128.71 200.323 L128.71 206.129 L122.903 206.129 Z M277.742 200.323 L283.548 200.323 L283.548 206.129 L277.742 206.129 Z M297.097 200.323 L302.903 200.323 L302.903 206.129 L297.097 206.129 Z M316.452 200.323 L322.258 200.323 L322.258 206.129 L316.452 206.129 Z M355.161 200.323 L360.968 200.323 L360.968 206.129 L355.161 206.129 Z M374.516 200.323 L380.323 200.323 L380.323 206.129 L374.516 206.129 Z M393.871 200.323 L399.677 200.323 L399.677 206.129 L393.871 206.129 Z M451.935 200.323 L457.742 200.323 L457.742 206.129 L451.935 206.129 Z M471.29 200.323 L477.097 200.323 L477.097 206.129 L471.29 206.129 Z M490.645 200.323 L496.452 200.323 L496.452 206.129 L490.645 206.129 Z M529.355 200.323 L535.161 200.323 L535.161 206.129 L529.355 206.129 Z M548.71 200.323 L554.516 200.323 L554.516 206.129 L548.71 206.129 Z M568.065 200.323 L573.871 200.323 L573.871 206.129 L568.065 206.129 Z M64.839 219.677 L70.645 219.677 L70.645 225.484 L64.839 225.484 Z M84.194 219.677 L90 219.677 L90 225.484 L84.194 225.484 Z M142.258 219.677 L148.065 219.677 L148.065 225.484 L142.258 225.484 Z M219.677 219.677 L225.484 219.677 L225.484 225.484 L219.677 225.484 Z M258.387 219.677 L264.194 219.677 L264.194 225.484 L258.387 225.484 Z M277.742 219.677 L283.548 219.677 L283.548 225.484 L277.742 225.484 Z M335.806 219.677 L341.613 219.677 L341.613 225.484 L335.806 225.484 Z M393.871 219.677 L399.677 219.677 L399.677 225.484 L393.871 225.484 Z M432.581 219.677 L438.387 219.677 L438.387 225.484 L432.581 225.484 Z M471.29 219.677 L477.097 219.677 L477.097 225.484 L471.29 225.484 Z M490.645 219.677 L496.452 219.677 L496.452 225.484 L490.645 225.484 Z M510 219.677 L515.806 219.677 L515.806 225.484 L510 225.484 Z M529.355 219.677 L535.161 219.677 L535.161 225.484 L529.355 225.484 Z M568.065 219.677 L573.871 219.677 L573.871 225.484 L568.065 225.484 Z M26.129 239.032 L31.935 239.032 L31.935 244.839 L26.129 244.839 Z M84.194 239.032 L90 239.032 L90 244.839 L84.194 244.839 Z M103.548 239.032 L109.355 239.032 L109.355 244.839 L103.548 244.839 Z M161.613 239.032 L167.419 239.032 L167.419 244.839 L161.613 244.839 Z M200.323 239.032 L206.129 239.032 L206.129 244.839 L200.323 244.839 Z M219.677 239.032 L225.484 239.032 L225.484 244.839 L219.677 244.839 Z M258.387 239.032 L264.194 239.032 L264.194 244.839 L258.387 244.839 Z M297.097 239.032 L302.903 239.032 L302.903 244.839 L297.097 244.839 Z M316.452 239.032 L322.258 239.032 L322.258 244.839 L316.452 244.839 Z M335.806 239.032 L341.613 239.032 L341.613 244.839 L335.806 244.839 Z M355.161 239.032 L360.968 239.032 L360.968 244.839 L355.161 244.839 Z M393.871 239.032 L399.677 239.032 L399.677 244.839 L393.871 244.839 Z M413.226 239.032 L419.032 239.032 L419.032 244.839 L413.226 244.839 Z M432.581 239.032 L438.387 239.032 L438.387 244.839 L432.581 244.839 Z M490.645 239.032 L496.452 239.032 L496.452 244.839 L490.645 244.839 Z M510 239.032 L515.806 239.032 L515.806 244.839 L510 244.839 Z M548.71 239.032 L554.516 239.032 L554.516 244.839 L548.71 244.839 Z M568.065 239.032 L573.871 239.032 L573.871 244.839 L568.065 244.839 Z M26.129 258.387 L31.935 258.387 L31.935 264.194 L26.129 264.194 Z M103.548 258.387 L109.355 258.387 L109.355 264.194 L103.548 264.194 Z M142.258 258.387 L148.065 258.387 L148.065 264.194 L142.258 264.194 Z M180.968 258.387 L186.774 258.387 L186.774 264.194 L180.968 264.194 Z M200.323 258.387 L206.129 258.387 L206.129 264.194 L200.323 264.194 Z M219.677 258.387 L225.484 258.387 L225.484 264.194 L219.677 264.194 Z M239.032 258.387 L244.839 258.387 L244.839 264.194 L239.032 264.194 Z M316.452 258.387 L322.258 258.387 L322.258 264.194 L316.452 264.194 Z M335.806 258.387 L341.613 258.387 L341.613 264.194 L335.806 264.194 Z M374.516 258.387 L380.323 258.387 L380.323 264.194 L374.516 264.194 Z M471.29 258.387 L477.097 258.387 L477.097 264.194 L471.29 264.194 Z M510 258.387 L515.806 258.387 L515.806 264.194 L510 264.194 Z M568.065 258.387 L573.871 258.387 L573.871 264.194 L568.065 264.194 Z M45.484 277.742 L51.29 277.742 L51.29 283.548 L45.484 283.548 Z M64.839 277.742 L70.645 277.742 L70.645 283.548 L64.839 283.548 Z M103.548 277.742 L109.355 277.742 L109.355 283.548 L103.548 283.548 Z M122.903 277.742 L128.71 277.742 L128.71 283.548 L122.903 283.548 Z M161.613 277.742 L167.419 277.742 L167.419 283.548 L161.613 283.548 Z M180.968 277.742 L186.774 277.742 L186.774 283.548 L180.968 283.548 Z M200.323 277.742 L206.129 277.742 L206.129 283.548 L200.323 283.548 Z M219.677 277.742 L225.484 277.742 L225.484 283.548 L219.677 283.548 Z M258.387 277.742 L264.194 277.742 L264.194 283.548 L258.387 283.548 Z M355.161 277.742 L360.968 277.742 L360.968 283.548 L355.161 283.548 Z M451.935 277.742 L457.742 277.742 L457.742 283.548 L451.935 283.548 Z M490.645 277.742 L496.452 277.742 L496.452 283.548 L490.645 283.548 Z M529.355 277.742 L535.161 277.742 L535.161 283.548 L529.355 283.548 Z M548.71 277.742 L554.516 277.742 L554.516 283.548 L548.71 283.548 Z M568.065 277.742 L573.871 277.742 L573.871 283.548 L568.065 283.548 Z M45.484 297.097 L51.29 297.097 L51.29 302.903 L45.484 302.903 Z M64.839 297.097 L70.645 297.097 L70.645 302.903 L64.839 302.903 Z M142.258 297.097 L148.065 297.097 L148.065 302.903 L142.258 302.903 Z M161.613 297.097 L167.419 297.097 L167.419 302.903 L161.613 302.903 Z M180.968 297.097 L186.774 297.097 L186.774 302.903 L180.968 302.903 Z M200.323 297.097 L206.129 297.097 L206.129 302.903 L200.323 302.903 Z M219.677 297.097 L225.484 297.097 L225.484 302.903 L219.677 302.903 Z M258.387 297.097 L264.194 297.097 L264.194 302.903 L258.387 302.903 Z M277.742 297.097 L283.548 297.097 L283.548 302.903 L277.742 302.903 Z M297.097 297.097 L302.903 297.097 L302.903 302.903 L297.097 302.903 Z M316.452 297.097 L322.258 297.097 L322.258 302.903 L316.452 302.903 Z M335.806 297.097 L341.613 297.097 L341.613 302.903 L335.806 302.903 Z M374.516 297.097 L380.323 297.097 L380.323 302.903 L374.516 302.903 Z M413.226 297.097 L419.032 297.097 L419.032 302.903 L413.226 302.903 Z M490.645 297.097 L496.452 297.097 L496.452 302.903 L490.645 302.903 Z M568.065 297.097 L573.871 297.097 L573.871 302.903 L568.065 302.903 Z M122.903 316.452 L128.71 316.452 L128.71 322.258 L122.903 322.258 Z M161.613 316.452 L167.419 316.452 L167.419 322.258 L161.613 322.258 Z M180.968 316.452 L186.774 316.452 L186.774 322.258 L180.968 322.258 Z M219.677 316.452 L225.484 316.452 L225.484 322.258 L219.677 322.258 Z M258.387 316.452 L264.194 316.452 L264.194 322.258 L258.387 322.258 Z M277.742 316.452 L283.548 316.452 L283.548 322.258 L277.742 322.258 Z M297.097 316.452 L302.903 316.452 L302.903 322.258 L297.097 322.258 Z M316.452 316.452 L322.258 316.452 L322.258 322.258 L316.452 322.258 Z M335.806 316.452 L341.613 316.452 L341.613 322.258 L335.806 322.258 Z M374.516 316.452 L380.323 316.452 L380.323 322.258 L374.516 322.258 Z M393.871 316.452 L399.677 316.452 L399.677 322.258 L393.871 322.258 Z M413.226 316.452 L419.032 316.452 L419.032 322.258 L413.226 322.258 Z M471.29 316.452 L477.097 316.452 L477.097 322.258 L471.29 322.258 Z M510 316.452 L515.806 316.452 L515.806 322.258 L510 322.258 Z M45.484 335.806 L51.29 335.806 L51.29 341.613 L45.484 341.613 Z M84.194 335.806 L90 335.806 L90 341.613 L84.194 341.613 Z M142.258 335.806 L148.065 335.806 L148.065 341.613 L142.258 341.613 Z M161.613 335.806 L167.419 335.806 L167.419 341.613 L161.613 341.613 Z M200.323 335.806 L206.129 335.806 L206.129 341.613 L200.323 341.613 Z M219.677 335.806 L225.484 335.806 L225.484 341.613 L219.677 341.613 Z M277.742 335.806 L283.548 335.806 L283.548 341.613 L277.742 341.613 Z M297.097 335.806 L302.903 335.806 L302.903 341.613 L297.097 341.613 Z M335.806 335.806 L341.613 335.806 L341.613 341.613 L335.806 341.613 Z M355.161 335.806 L360.968 335.806 L360.968 341.613 L355.161 341.613 Z M374.516 335.806 L380.323 335.806 L380.323 341.613 L374.516 341.613 Z M393.871 335.806 L399.677 335.806 L399.677 341.613 L393.871 341.613 Z M413.226 335.806 L419.032 335.806 L419.032 341.613 L413.226 341.613 Z M432.581 335.806 L438.387 335.806 L438.387 341.613 L432.581 341.613 Z M26.129 355.161 L31.935 355.161 L31.935 360.968 L26.129 360.968 Z M45.484 355.161 L51.29 355.161 L51.29 360.968 L45.484 360.968 Z M84.194 355.161 L90 355.161 L90 360.968 L84.194 360.968 Z M103.548 355.161 L109.355 355.161 L109.355 360.968 L103.548 360.968 Z M122.903 355.161 L128.71 355.161 L128.71 360.968 L122.903 360.968 Z M180.968 355.161 L186.774 355.161 L186.774 360.968 L180.968 360.968 Z M219.677 355.161 L225.484 355.161 L225.484 360.968 L219.677 360.968 Z M258.387 355.161 L264.194 355.161 L264.194 360.968 L258.387 360.968 Z M335.806 355.161 L341.613 355.161 L341.613 360.968 L335.806 360.968 Z M355.161 355.161 L360.968 355.161 L360.968 360.968 L355.161 360.968 Z M393.871 355.161 L399.677 355.161 L399.677 360.968 L393.871 360.968 Z M413.226 355.161 L419.032 355.161 L419.032 360.968 L413.226 360.968 Z M432.581 355.161 L438.387 355.161 L438.387 360.968 L432.581 360.968 Z M451.935 355.161 L457.742 355.161 L457.742 360.968 L451.935 360.968 Z M490.645 355.161 L496.452 355.161 L496.452 360.968 L490.645 360.968 Z M510 355.161 L515.806 355.161 L515.806 360.968 L510 360.968 Z M568.065 355.161 L573.871 355.161 L573.871 360.968 L568.065 360.968 Z M64.839 374.516 L70.645 374.516 L70.645 380.323 L64.839 380.323 Z M122.903 374.516 L128.71 374.516 L128.71 380.323 L122.903 380.323 Z M142.258 374.516 L148.065 374.516 L148.065 380.323 L142.258 380.323 Z M258.387 374.516 L264.194 374.516 L264.194 380.323 L258.387 380.323 Z M277.742 374.516 L283.548 374.516 L283.548 380.323 L277.742 380.323 Z M297.097 374.516 L302.903 374.516 L302.903 380.323 L297.097 380.323 Z M413.226 374.516 L419.032 374.516 L419.032 380.323 L413.226 380.323 Z M471.29 374.516 L477.097 374.516 L477.097 380.323 L471.29 380.323 Z M510 374.516 L515.806 374.516 L515.806 380.323 L510 380.323 Z M568.065 374.516 L573.871 374.516 L573.871 380.323 L568.065 380.323 Z M64.839 393.871 L70.645 393.871 L70.645 399.677 L64.839 399.677 Z M84.194 393.871 L90 393.871 L90 399.677 L84.194 399.677 Z M103.548 393.871 L109.355 393.871 L109.355 399.677 L103.548 399.677 Z M258.387 393.871 L264.194 393.871 L264.194 399.677 L258.387 399.677 Z M277.742 393.871 L283.548 393.871 L283.548 399.677 L277.742 399.677 Z M297.097 393.871 L302.903 393.871 L302.903 399.677 L297.097 399.677 Z M355.161 393.871 L360.968 393.871 L360.968 399.677 L355.161 399.677 Z M374.516 393.871 L380.323 393.871 L380.323 399.677 L374.516 399.677 Z M393.871 393.871 L399.677 393.871 L399.677 399.677 L393.871 399.677 Z M413.226 393.871 L419.032 393.871 L419.032 399.677 L413.226 399.677 Z M510 393.871 L515.806 393.871 L515.806 399.677 L510 399.677 Z M568.065 393.871 L573.871 393.871 L573.871 399.677 L568.065 399.677 Z M26.129 413.226 L31.935 413.226 L31.935 419.032 L26.129 419.032 Z M45.484 413.226 L51.29 413.226 L51.29 419.032 L45.484 419.032 Z M64.839 413.226 L70.645 413.226 L70.645 419.032 L64.839 419.032 Z M142.258 413.226 L148.065 413.226 L148.065 419.032 L142.258 419.032 Z M161.613 413.226 L167.419 413.226 L167.419 419.032 L161.613 419.032 Z M200.323 413.226 L206.129 413.226 L206.129 419.032 L200.323 419.032 Z M239.032 413.226 L244.839 413.226 L244.839 419.032 L239.032 419.032 Z M258.387 413.226 L264.194 413.226 L264.194 419.032 L258.387 419.032 Z M335.806 413.226 L341.613 413.226 L341.613 419.032 L335.806 419.032 Z M355.161 413.226 L360.968 413.226 L360.968 419.032 L355.161 419.032 Z M393.871 413.226 L399.677 413.226 L399.677 419.032 L393.871 419.032 Z M413.226 413.226 L419.032 413.226 L419.032 419.032 L413.226 419.032 Z M432.581 413.226 L438.387 413.226 L438.387 419.032 L432.581 419.032 Z M451.935 413.226 L457.742 413.226 L457.742 419.032 L451.935 419.032 Z M471.29 413.226 L477.097 413.226 L477.097 419.032 L471.29 419.032 Z M490.645 413.226 L496.452 413.226 L496.452 419.032 L490.645 419.032 Z M510 413.226 L515.806 413.226 L515.806 419.032 L510 419.032 Z M548.71 413.226 L554.516 413.226 L554.516 419.032 L548.71 419.032 Z M180.968 432.581 L186.774 432.581 L186.774 438.387 L180.968 438.387 Z M200.323 432.581 L206.129 432.581 L206.129 438.387 L200.323 438.387 Z M219.677 432.581 L225.484 432.581 L225.484 438.387 L219.677 438.387 Z M239.032 432.581 L244.839 432.581 L244.839 438.387 L239.032 438.387 Z M258.387 432.581 L264.194 432.581 L264.194 438.387 L258.387 438.387 Z M316.452 432.581 L322.258 432.581 L322.258 438.387 L316.452 438.387 Z M374.516 432.581 L380.323 432.581 L380.323 438.387 L374.516 438.387 Z M413.226 432.581 L419.032 432.581 L419.032 438.387 L413.226 438.387 Z M490.645 432.581 L496.452 432.581 L496.452 438.387 L490.645 438.387 Z M529.355 432.581 L535.161 432.581 L535.161 438.387 L529.355 438.387 Z M548.71 432.581 L554.516 432.581 L554.516 438.387 L548.71 438.387 Z M568.065 432.581 L573.871 432.581 L573.871 438.387 L568.065 438.387 Z M180.968 451.935 L186.774 451.935 L186.774 457.742 L180.968 457.742 Z M219.677 451.935 L225.484 451.935 L225.484 457.742 L219.677 457.742 Z M258.387 451.935 L264.194 451.935 L264.194 457.742 L258.387 457.742 Z M316.452 451.935 L322.258 451.935 L322.258 457.742 L316.452 457.742 Z M335.806 451.935 L341.613 451.935 L341.613 457.742 L335.806 457.742 Z M374.516 451.935 L380.323 451.935 L380.323 457.742 L374.516 457.742 Z M393.871 451.935 L399.677 451.935 L399.677 457.742 L393.871 457.742 Z M413.226 451.935 L419.032 451.935 L419.032 457.742 L413.226 457.742 Z M451.935 451.935 L457.742 451.935 L457.742 457.742 L451.935 457.742 Z M490.645 451.935 L496.452 451.935 L496.452 457.742 L490.645 457.742 Z M568.065 451.935 L573.871 451.935 L573.871 457.742 L568.065 457.742 Z M180.968 471.29 L186.774 471.29 L186.774 477.097 L180.968 477.097 Z M219.677 471.29 L225.484 471.29 L225.484 477.097 L219.677 477.097 Z M239.032 471.29 L244.839 471.29 L244.839 477.097 L239.032 477.097 Z M258.387 471.29 L264.194 471.29 L264.194 477.097 L258.387 477.097 Z M316.452 471.29 L322.258 471.29 L322.258 477.097 L316.452 477.097 Z M335.806 471.29 L341.613 471.29 L341.613 477.097 L335.806 477.097 Z M355.161 471.29 L360.968 471.29 L360.968 477.097 L355.161 477.097 Z M374.516 471.29 L380.323 471.29 L380.323 477.097 L374.516 477.097 Z M393.871 471.29 L399.677 471.29 L399.677 477.097 L393.871 477.097 Z M413.226 471.29 L419.032 471.29 L419.032 477.097 L413.226 477.097 Z M490.645 471.29 L496.452 471.29 L496.452 477.097 L490.645 477.097 Z M510 471.29 L515.806 471.29 L515.806 477.097 L510 477.097 Z M548.71 471.29 L554.516 471.29 L554.516 477.097 L548.71 477.097 Z M180.968 490.645 L186.774 490.645 L186.774 496.452 L180.968 496.452 Z M200.323 490.645 L206.129 490.645 L206.129 496.452 L200.323 496.452 Z M219.677 490.645 L225.484 490.645 L225.484 496.452 L219.677 496.452 Z M258.387 490.645 L264.194 490.645 L264.194 496.452 L258.387 496.452 Z M297.097 490.645 L302.903 490.645 L302.903 496.452 L297.097 496.452 Z M316.452 490.645 L322.258 490.645 L322.258 496.452 L316.452 496.452 Z M335.806 490.645 L341.613 490.645 L341.613 496.452 L335.806 496.452 Z M374.516 490.645 L380.323 490.645 L380.323 496.452 L374.516 496.452 Z M393.871 490.645 L399.677 490.645 L399.677 496.452 L393.871 496.452 Z M413.226 490.645 L419.032 490.645 L419.032 496.452 L413.226 496.452 Z M432.581 490.645 L438.387 490.645 L438.387 496.452 L432.581 496.452 Z M451.935 490.645 L457.742 490.645 L457.742 496.452 L451.935 496.452 Z M471.29 490.645 L477.097 490.645 L477.097 496.452 L471.29 496.452 Z M490.645 490.645 L496.452 490.645 L496.452 496.452 L490.645 496.452 Z M548.71 490.645 L554.516 490.645 L554.516 496.452 L548.71 496.452 Z M568.065 490.645 L573.871 490.645 L573.871 496.452 L568.065 496.452 Z M200.323 510 L206.129 510 L206.129 515.806 L200.323 515.806 Z M219.677 510 L225.484 510 L225.484 515.806 L219.677 515.806 Z M258.387 510 L264.194 510 L264.194 515.806 L258.387 515.806 Z M297.097 510 L302.903 510 L302.903 515.806 L297.097 515.806 Z M335.806 510 L341.613 510 L341.613 515.806 L335.806 515.806 Z M355.161 510 L360.968 510 L360.968 515.806 L355.161 515.806 Z M374.516 510 L380.323 510 L380.323 515.806 L374.516 515.806 Z M471.29 510 L477.097 510 L477.097 515.806 L471.29 515.806 Z M529.355 510 L535.161 510 L535.161 515.806 L529.355 515.806 Z M548.71 510 L554.516 510 L554.516 515.806 L548.71 515.806 Z M200.323 529.355 L206.129 529.355 L206.129 535.161 L200.323 535.161 Z M219.677 529.355 L225.484 529.355 L225.484 535.161 L219.677 535.161 Z M239.032 529.355 L244.839 529.355 L244.839 535.161 L239.032 535.161 Z M258.387 529.355 L264.194 529.355 L264.194 535.161 L258.387 535.161 Z M277.742 529.355 L283.548 529.355 L283.548 535.161 L277.742 535.161 Z M374.516 529.355 L380.323 529.355 L380.323 535.161 L374.516 535.161 Z M393.871 529.355 L399.677 529.355 L399.677 535.161 L393.871 535.161 Z M413.226 529.355 L419.032 529.355 L419.032 535.161 L413.226 535.161 Z M432.581 529.355 L438.387 529.355 L438.387 535.161 L432.581 535.161 Z M529.355 529.355 L535.161 529.355 L535.161 535.161 L529.355 535.161 Z M548.71 529.355 L554.516 529.355 L554.516 535.161 L548.71 535.161 Z M568.065 529.355 L573.871 529.355 L573.871 535.161 L568.065 535.161 Z M200.323 548.71 L206.129 548.71 L206.129 554.516 L200.323 554.516 Z M219.677 548.71 L225.484 548.71 L225.484 554.516 L219.677 554.516 Z M239.032 548.71 L244.839 548.71 L244.839 554.516 L239.032 554.516 Z M258.387 548.71 L264.194 548.71 L264.194 554.516 L258.387 554.516 Z M297.097 548.71 L302.903 548.71 L302.903 554.516 L297.097 554.516 Z M316.452 548.71 L322.258 548.71 L322.258 554.516 L316.452 554.516 Z M335.806 548.71 L341.613 548.71 L341.613 554.516 L335.806 554.516 Z M355.161 548.71 L360.968 548.71 L360.968 554.516 L355.161 554.516 Z M374.516 548.71 L380.323 548.71 L380.323 554.516 L374.516 554.516 Z M413.226 548.71 L419.032 548.71 L419.032 554.516 L413.226 554.516 Z M432.581 548.71 L438.387 548.71 L438.387 554.516 L432.581 554.516 Z M451.935 548.71 L457.742 548.71 L457.742 554.516 L451.935 554.516 Z M471.29 548.71 L477.097 548.71 L477.097 554.516 L471.29 554.516 Z M510 548.71 L515.806 548.71 L515.806 554.516 L510 554.516 Z M548.71 548.71 L554.516 548.71 L554.516 554.516 L548.71 554.516 Z M568.065 548.71 L573.871 548.71 L573.871 554.516 L568.065 554.516 Z M200.323 568.065 L206.129 568.065 L206.129 573.871 L200.323 573.871 Z M258.387 568.065 L264.194 568.065 L264.194 573.871 L258.387 573.871 Z M297.097 568.065 L302.903 568.065 L302.903 573.871 L297.097 573.871 Z M316.452 568.065 L322.258 568.065 L322.258 573.871 L316.452 573.871 Z M335.806 568.065 L341.613 568.065 L341.613 573.871 L335.806 573.871 Z M355.161 568.065 L360.968 568.065 L360.968 573.871 L355.161 573.871 Z M413.226 568.065 L419.032 568.065 L419.032 573.871 L413.226 573.871 Z M451.935 568.065 L457.742 568.065 L457.742 573.871 L451.935 573.871 Z M490.645 568.065 L496.452 568.065 L496.452 573.871 L490.645 573.871 Z M548.71 568.065 L554.516 568.065 L554.516 573.871 L548.71 573.871 Z " />
</svg>
