<svg xmlns="http://www.w3.org/2000/svg" xmlns:xlink="http://www.w3.org/1999/xlink" version="1.1" height="600" width="600">
   <rect id='background-shape' fill="#000000" fill-opacity="1.0"  x="0" y="0" width="600" height="600" rx="34px" ry="34px" />
   <path id='pupil-shape' fill="#1ee2ff" fill-opacity="1.0" style="filter:url(#pupil-fill-shadow)" d="M102.857 59.426 L102.857 60.566 C102.857,64.353 99.787,67.423 96,67.423 L58.286 67.423 C54.499,67.423 51.429,64.353 51.429,60.566 L51.429 58.286 C51.429,54.499 54.499,51.429 58.286,51.429 L96 51.429 C99.787,51.429 102.857,54.499 102.857,58.286 Z M102.857 77.134 L102.857 78.274 C102.857,82.061 99.787,85.131 96,85.131 L58.286 85.131 C54.499,85.131 51.429,82.061 51.429,78.274 L51.429 75.994 C51.429,72.207 54.499,69.137 58.286,69.137 L96 69.137 C99.787,69.137 102.857,72.207 102.857,75.994 Z M102.857 94.843 L102.857 95.983 C102.857,99.77 99.787,102.84 96,102.84 L58.286 102.84 C54.499,102.84 51.429,99.77 51.429,95.983 L51.429 93.703 C51.429,89.916 54.499,86.846 58.286,86.846 L96 86.846 C99.787,86.846 102.857,89.916 102.857,93.703 Z M102.857 540.574 L102.857 539.434 C102.857,535.647 99.787,532.577 96,532.577 L58.286 532.577 C54.499,532.577 51.429,535.647 51.429,539.434 L51.429 541.714 C51.429,545.501 54.499,548.571 58.286,548.571 L96 548.571 C99.787,548.571 102.857,545.501 102.857,541.714 Z M102.857 522.866 L102.857 521.726 C102.857,517.939 99.787,514.869 96,514.869 L58.286 514.869 C54.499,514.869 51.429,517.939 51.429,521.726 L51.429 524.006 C51.429,527.793 54.499,530.863 58.286,530.863 L96 530.863 C99.787,530.863 102.857,527.793 102.857,524.006 Z M102.857 505.157 L102.857 504.017 C102.857,500.23 99.787,497.16 96,497.16 L58.286 497.16 C54.499,497.16 51.429,500.23 51.429,504.017 L51.429 506.297 C51.429,510.084 54.499,513.154 58.286,513.154 L96 513.154 C99.787,513.154 102.857,510.084 102.857,506.297 Z M497.143 59.426 L497.143 60.566 C497.143,64.353 500.213,67.423 504,67.423 L541.714 67.423 C545.501,67.423 548.571,64.353 548.571,60.566 L548.571 58.286 C548.571,54.499 545.501,51.429 541.714,51.429 L504 51.429 C500.213,51.429 497.143,54.499 497.143,58.286 Z M497.143 77.134 L497.143 78.274 C497.143,82.061 500.213,85.131 504,85.131 L541.714 85.131 C545.501,85.131 548.571,82.061 548.571,78.274 L548.571 75.994 C548.571,72.207 545.501,69.137 541.714,69.137 L504 69.137 C500.213,69.137 497.143,72.207 497.143,75.994 Z M497.143 94.843 L497.143 95.983 C497.143,99.77 500.213,102.84 504,102.84 L541.714 102.84 C545.501,102.84 548.571,99.77 548.571,95.983 L548.571 93.703 C548.571,89.916 545.501,86.846 541.714,86.846 L504 86.846 C500.213,86.846 497.143,89.916 497.143,93.703 Z " />
   <path id='eye-shape' fill="#1ee2ff" fill-opacity="1.0" style="filter:url(#eye-outer-fill-shadow)" d="M111.429 34.286 L42.857 34.286 C38.126,34.286 34.286,38.126 34.286,42.857 L34.286 111.429 C34.286,116.16 38.126,120 42.857,120 L111.429 120 C116.16,120 120,116.16 120,111.429 L120 42.857 C120,38.126 116.16,34.286 111.429,34.286 Z M137.143 34.286 L137.143 120 C137.143,129.463 129.463,137.143 120,137.143 L34.286 137.143 C24.823,137.143 17.143,129.463 17.143,120 L17.143 34.286 C17.143,24.823 24.823,17.143 34.286,17.143 L120 17.143 C129.463,17.143 137.143,24.823 137.143,34.286 Z M111.429 565.714 L42.857 565.714 C38.126,565.714 34.286,561.874 34.286,557.143 L34.286 488.571 C34.286,483.84 38.126,480 42.857,480 L111.429 480 C116.16,480 120,483.84 120,488.571 L120 557.143 C120,561.874 116.16,565.714 111.429,565.714 Z M137.143 565.714 L137.143 480 C137.143,470.537 129.463,462.857 120,462.857 L34.286 462.857 C24.823,462.857 17.143,470.537 17.143,480 L17.143 565.714 C17.143,575.177 24.823,582.857 34.286,582.857 L120 582.857 C129.463,582.857 137.143,575.177 137.143,565.714 Z M488.571 34.286 L557.143 34.286 C561.874,34.286 565.714,38.126 565.714,42.857 L565.714 111.429 C565.714,116.16 561.874,120 557.143,120 L488.571 120 C483.84,120 480,116.16 480,111.429 L480 42.857 C480,38.126 483.84,34.286 488.571,34.286 Z M462.857 34.286 L462.857 120 C462.857,129.463 470.537,137.143 480,137.143 L565.714 137.143 C575.177,137.143 582.857,129.463 582.857,120 L582.857 34.286 C582.857,24.823 575.177,17.143 565.714,17.143 L480 17.143 C470.537,17.143 462.857,24.823 462.857,34.286 Z " />
   <path id='on-pixels-shape' fill="#1ee2ff" fill-opacity="1.0" style="filter:url(#on-pixels-shadow)" d="M171 25.714 L171 25.714 C171,30.211 167.354,33.857 162.857,33.857 L162.857 33.857 C158.36,33.857 154.714,30.211 154.714,25.714 L154.714 25.714 C154.714,21.217 158.36,17.571 162.857,17.571 L162.857 17.571 C167.354,17.571 171,21.217 171,25.714 Z M291 25.714 L291 25.714 C291,30.211 287.354,33.857 282.857,33.857 L197.143 33.857 C192.646,33.857 189,30.211 189,25.714 L189 25.714 C189,21.217 192.646,17.571 197.143,17.571 L282.857 17.571 C287.354,17.571 291,21.217 291,25.714 Z M359.571 25.714 L359.571 25.714 C359.571,30.211 355.926,33.857 351.429,33.857 L334.286 33.857 C329.789,33.857 326.143,30.211 326.143,25.714 L326.143 25.714 C326.143,21.217 329.789,17.571 334.286,17.571 L351.429 17.571 C355.926,17.571 359.571,21.217 359.571,25.714 Z M428.143 25.714 L428.143 25.714 C428.143,30.211 424.497,33.857 420,33.857 L402.857 33.857 C398.36,33.857 394.714,30.211 394.714,25.714 L394.714 25.714 C394.714,21.217 398.36,17.571 402.857,17.571 L420 17.571 C424.497,17.571 428.143,21.217 428.143,25.714 Z M188.143 42.857 L188.143 42.857 C188.143,47.354 184.497,51 180,51 L180 51 C175.503,51 171.857,47.354 171.857,42.857 L171.857 42.857 C171.857,38.36 175.503,34.714 180,34.714 L180 34.714 C184.497,34.714 188.143,38.36 188.143,42.857 Z M273.857 42.857 L273.857 42.857 C273.857,47.354 270.211,51 265.714,51 L214.286 51 C209.789,51 206.143,47.354 206.143,42.857 L206.143 42.857 C206.143,38.36 209.789,34.714 214.286,34.714 L265.714 34.714 C270.211,34.714 273.857,38.36 273.857,42.857 Z M325.286 42.857 L325.286 42.857 C325.286,47.354 321.64,51 317.143,51 L300 51 C295.503,51 291.857,47.354 291.857,42.857 L291.857 42.857 C291.857,38.36 295.503,34.714 300,34.714 L317.143 34.714 C321.64,34.714 325.286,38.36 325.286,42.857 Z M445.286 42.857 L445.286 42.857 C445.286,47.354 441.64,51 437.143,51 L368.571 51 C364.074,51 360.429,47.354 360.429,42.857 L360.429 42.857 C360.429,38.36 364.074,34.714 368.571,34.714 L437.143 34.714 C441.64,34.714 445.286,38.36 445.286,42.857 Z M205.286 60 L205.286 60 C205.286,64.497 201.64,68.143 197.143,68.143 L162.857 68.143 C158.36,68.143 154.714,64.497 154.714,60 L154.714 60 C154.714,55.503 158.36,51.857 162.857,51.857 L197.143 51.857 C201.64,51.857 205.286,55.503 205.286,60 Z M325.286 60 L325.286 60 C325.286,64.497 321.64,68.143 317.143,68.143 L231.429 68.143 C226.931,68.143 223.286,64.497 223.286,60 L223.286 60 C223.286,55.503 226.931,51.857 231.429,51.857 L317.143 51.857 C321.64,51.857 325.286,55.503 325.286,60 Z M428.143 60 L428.143 60 C428.143,64.497 424.497,68.143 420,68.143 L420 68.143 C415.503,68.143 411.857,64.497 411.857,60 L411.857 60 C411.857,55.503 415.503,51.857 420,51.857 L420 51.857 C424.497,51.857 428.143,55.503 428.143,60 Z M188.143 77.143 L188.143 77.143 C188.143,81.64 184.497,85.286 180,85.286 L162.857 85.286 C158.36,85.286 154.714,81.64 154.714,77.143 L154.714 77.143 C154.714,72.646 158.36,69 162.857,69 L180 69 C184.497,69 188.143,72.646 188.143,77.143 Z M222.429 77.143 L222.429 77.143 C222.429,81.64 218.783,85.286 214.286,85.286 L214.286 85.286 C209.789,85.286 206.143,81.64 206.143,77.143 L206.143 77.143 C206.143,72.646 209.789,69 214.286,69 L214.286 69 C218.783,69 222.429,72.646 222.429,77.143 Z M273.857 77.143 L273.857 77.143 C273.857,81.64 270.211,85.286 265.714,85.286 L265.714 85.286 C261.217,85.286 257.571,81.64 257.571,77.143 L257.571 77.143 C257.571,72.646 261.217,69 265.714,69 L265.714 69 C270.211,69 273.857,72.646 273.857,77.143 Z M325.286 77.143 L325.286 77.143 C325.286,81.64 321.64,85.286 317.143,85.286 L317.143 85.286 C312.646,85.286 309,81.64 309,77.143 L309 77.143 C309,72.646 312.646,69 317.143,69 L317.143 69 C321.64,69 325.286,72.646 325.286,77.143 Z M359.571 77.143 L359.571 77.143 C359.571,81.64 355.926,85.286 351.429,85.286 L351.429 85.286 C346.931,85.286 343.286,81.64 343.286,77.143 L343.286 77.143 C343.286,72.646 346.931,69 351.429,69 L351.429 69 C355.926,69 359.571,72.646 359.571,77.143 Z M393.857 77.143 L393.857 77.143 C393.857,81.64 390.211,85.286 385.714,85.286 L385.714 85.286 C381.217,85.286 377.571,81.64 377.571,77.143 L377.571 77.143 C377.571,72.646 381.217,69 385.714,69 L385.714 69 C390.211,69 393.857,72.646 393.857,77.143 Z M428.143 77.143 L428.143 77.143 C428.143,81.64 424.497,85.286 420,85.286 L420 85.286 C415.503,85.286 411.857,81.64 411.857,77.143 L411.857 77.143 C411.857,72.646 415.503,69 420,69 L420 69 C424.497,69 428.143,72.646 428.143,77.143 Z M205.286 94.286 L205.286 94.286 C205.286,98.783 201.64,102.429 197.143,102.429 L197.143 102.429 C192.646,102.429 189,98.783 189,94.286 L189 94.286 C189,89.789 192.646,86.143 197.143,86.143 L197.143 86.143 C201.64,86.143 205.286,89.789 205.286,94.286 Z M273.857 94.286 L273.857 94.286 C273.857,98.783 270.211,102.429 265.714,102.429 L231.429 102.429 C226.931,102.429 223.286,98.783 223.286,94.286 L223.286 94.286 C223.286,89.789 226.931,86.143 231.429,86.143 L265.714 86.143 C270.211,86.143 273.857,89.789 273.857,94.286 Z M359.571 94.286 L359.571 94.286 C359.571,98.783 355.926,102.429 351.429,102.429 L351.429 102.429 C346.931,102.429 343.286,98.783 343.286,94.286 L343.286 94.286 C343.286,89.789 346.931,86.143 351.429,86.143 L351.429 86.143 C355.926,86.143 359.571,89.789 359.571,94.286 Z M411 94.286 L411 94.286 C411,98.783 407.354,102.429 402.857,102.429 L402.857 102.429 C398.36,102.429 394.714,98.783 394.714,94.286 L394.714 94.286 C394.714,89.789 398.36,86.143 402.857,86.143 L402.857 86.143 C407.354,86.143 411,89.789 411,94.286 Z M188.143 111.429 L188.143 111.429 C188.143,115.926 184.497,119.571 180,119.571 L162.857 119.571 C158.36,119.571 154.714,115.926 154.714,111.429 L154.714 111.429 C154.714,106.931 158.36,103.286 162.857,103.286 L180 103.286 C184.497,103.286 188.143,106.931 188.143,111.429 Z M239.571 111.429 L239.571 111.429 C239.571,115.926 235.926,119.571 231.429,119.571 L231.429 119.571 C226.931,119.571 223.286,115.926 223.286,111.429 L223.286 111.429 C223.286,106.931 226.931,103.286 231.429,103.286 L231.429 103.286 C235.926,103.286 239.571,106.931 239.571,111.429 Z M291 111.429 L291 111.429 C291,115.926 287.354,119.571 282.857,119.571 L265.714 119.571 C261.217,119.571 257.571,115.926 257.571,111.429 L257.571 111.429 C257.571,106.931 261.217,103.286 265.714,103.286 L282.857 103.286 C287.354,103.286 291,106.931 291,111.429 Z M342.429 111.429 L342.429 111.429 C342.429,115.926 338.783,119.571 334.286,119.571 L317.143 119.571 C312.646,119.571 309,115.926 309,111.429 L309 111.429 C309,106.931 312.646,103.286 317.143,103.286 L334.286 103.286 C338.783,103.286 342.429,106.931 342.429,111.429 Z M376.714 111.429 L376.714 111.429 C376.714,115.926 373.069,119.571 368.571,119.571 L368.571 119.571 C364.074,119.571 360.429,115.926 360.429,111.429 L360.429 111.429 C360.429,106.931 364.074,103.286 368.571,103.286 L368.571 103.286 C373.069,103.286 376.714,106.931 376.714,111.429 Z M428.143 111.429 L428.143 111.429 C428.143,115.926 424.497,119.571 420,119.571 L420 119.571 C415.503,119.571 411.857,115.926 411.857,111.429 L411.857 111.429 C411.857,106.931 415.503,103.286 420,103.286 L420 103.286 C424.497,103.286 428.143,106.931 428.143,111.429 Z M171 128.571 L171 128.571 C171,133.069 167.354,136.714 162.857,136.714 L162.857 136.714 C158.36,136.714 154.714,133.069 154.714,128.571 L154.714 128.571 C154.714,124.074 158.36,120.429 162.857,120.429 L162.857 120.429 C167.354,120.429 171,124.074 171,128.571 Z M205.286 128.571 L205.286 128.571 C205.286,133.069 201.64,136.714 197.143,136.714 L197.143 136.714 C192.646,136.714 189,133.069 189,128.571 L189 128.571 C189,124.074 192.646,120.429 197.143,120.429 L197.143 120.429 C201.64,120.429 205.286,124.074 205.286,128.571 Z M239.571 128.571 L239.571 128.571 C239.571,133.069 235.926,136.714 231.429,136.714 L231.429 136.714 C226.931,136.714 223.286,133.069 223.286,128.571 L223.286 128.571 C223.286,124.074 226.931,120.429 231.429,120.429 L231.429 120.429 C235.926,120.429 239.571,124.074 239.571,128.571 Z M273.857 128.571 L273.857 128.571 C273.857,133.069 270.211,136.714 265.714,136.714 L265.714 136.714 C261.217,136.714 257.571,133.069 257.571,128.571 L257.571 128.571 C257.571,124.074 261.217,120.429 265.714,120.429 L265.714 120.429 C270.211,120.429 273.857,124.074 273.857,128.571 Z M308.143 128.571 L308.143 128.571 C308.143,133.069 304.497,136.714 300,136.714 L300 136.714 C295.503,136.714 291.857,133.069 291.857,128.571 L291.857 128.571 C291.857,124.074 295.503,120.429 300,120.429 L300 120.429 C304.497,120.429 308.143,124.074 308.143,128.571 Z M342.429 128.571 L342.429 128.571 C342.429,133.069 338.783,136.714 334.286,136.714 L334.286 136.714 C329.789,136.714 326.143,133.069 326.143,128.571 L326.143 128.571 C326.143,124.074 329.789,120.429 334.286,120.429 L334.286 120.429 C338.783,120.429 342.429,124.074 342.429,128.571 Z M376.714 128.571 L376.714 128.571 C376.714,133.069 373.069,136.714 368.571,136.714 L368.571 136.714 C364.074,136.714 360.429,133.069 360.429,128.571 L360.429 128.571 C360.429,124.074 364.074,120.429 368.571,120.429 L368.571 120.429 C373.069,120.429 376.714,124.074 376.714,128.571 Z M411 128.571 L411 128.571 C411,133.069 407.354,136.714 402.857,136.714 L402.857 136.714 C398.36,136.714 394.714,133.069 394.714,128.571 L394.714 128.571 C394.714,124.074 398.36,120.429 402.857,120.429 L402.857 120.429 C407.354,120.429 411,124.074 411,128.571 Z M445.286 128.571 L445.286 128.571 C445.286,133.069 441.64,136.714 437.143,136.714 L437.143 136.714 C432.646,136.714 429,133.069 429,128.571 L429 128.571 C429,124.074 432.646,120.429 437.143,120.429 L437.143 120.429 C441.64,120.429 445.286,124.074 445.286,128.571 Z M205.286 145.714 L205.286 145.714 C205.286,150.211 201.64,153.857 197.143,153.857 L162.857 153.857 C158.36,153.857 154.714,150.211 154.714,145.714 L154.714 145.714 C154.714,141.217 158.36,137.571 162.857,137.571 L197.143 137.571 C201.64,137.571 205.286,141.217 205.286,145.714 Z M239.571 145.714 L239.571 145.714 C239.571,150.211 235.926,153.857 231.429,153.857 L231.429 153.857 C226.931,153.857 223.286,150.211 223.286,145.714 L223.286 145.714 C223.286,141.217 226.931,137.571 231.429,137.571 L231.429 137.571 C235.926,137.571 239.571,141.217 239.571,145.714 Z M411 145.714 L411 145.714 C411,150.211 407.354,153.857 402.857,153.857 L300 153.857 C295.503,153.857 291.857,150.211 291.857,145.714 L291.857 145.714 C291.857,141.217 295.503,137.571 300,137.571 L402.857 137.571 C407.354,137.571 411,141.217 411,145.714 Z M445.286 145.714 L445.286 145.714 C445.286,150.211 441.64,153.857 437.143,153.857 L437.143 153.857 C432.646,153.857 429,150.211 429,145.714 L429 145.714 C429,141.217 432.646,137.571 437.143,137.571 L437.143 137.571 C441.64,137.571 445.286,141.217 445.286,145.714 Z M51 162.857 L51 162.857 C51,167.354 47.354,171 42.857,171 L42.857 171 C38.36,171 34.714,167.354 34.714,162.857 L34.714 162.857 C34.714,158.36 38.36,154.714 42.857,154.714 L42.857 154.714 C47.354,154.714 51,158.36 51,162.857 Z M85.286 162.857 L85.286 162.857 C85.286,167.354 81.64,171 77.143,171 L77.143 171 C72.646,171 69,167.354 69,162.857 L69 162.857 C69,158.36 72.646,154.714 77.143,154.714 L77.143 154.714 C81.64,154.714 85.286,158.36 85.286,162.857 Z M171 162.857 L171 162.857 C171,167.354 167.354,171 162.857,171 L111.429 171 C106.931,171 103.286,167.354 103.286,162.857 L103.286 162.857 C103.286,158.36 106.931,154.714 111.429,154.714 L162.857 154.714 C167.354,154.714 171,158.36 171,162.857 Z M205.286 162.857 L205.286 162.857 C205.286,167.354 201.64,171 197.143,171 L197.143 171 C192.646,171 189,167.354 189,162.857 L189 162.857 C189,158.36 192.646,154.714 197.143,154.714 L197.143 154.714 C201.64,154.714 205.286,158.36 205.286,162.857 Z M239.571 162.857 L239.571 162.857 C239.571,167.354 235.926,171 231.429,171 L231.429 171 C226.931,171 223.286,167.354 223.286,162.857 L223.286 162.857 C223.286,158.36 226.931,154.714 231.429,154.714 L231.429 154.714 C235.926,154.714 239.571,158.36 239.571,162.857 Z M308.143 162.857 L308.143 162.857 C308.143,167.354 304.497,171 300,171 L300 171 C295.503,171 291.857,167.354 291.857,162.857 L291.857 162.857 C291.857,158.36 295.503,154.714 300,154.714 L300 154.714 C304.497,154.714 308.143,158.36 308.143,162.857 Z M359.571 162.857 L359.571 162.857 C359.571,167.354 355.926,171 351.429,171 L351.429 171 C346.931,171 343.286,167.354 343.286,162.857 L343.286 162.857 C343.286,158.36 346.931,154.714 351.429,154.714 L351.429 154.714 C355.926,154.714 359.571,158.36 359.571,162.857 Z M411 162.857 L411 162.857 C411,167.354 407.354,171 402.857,171 L385.714 171 C381.217,171 377.571,167.354 377.571,162.857 L377.571 162.857 C377.571,158.36 381.217,154.714 385.714,154.714 L402.857 154.714 C407.354,154.714 411,158.36 411,162.857 Z M496.714 162.857 L496.714 162.857 C496.714,167.354 493.069,171 488.571,171 L454.286 171 C449.789,171 446.143,167.354 446.143,162.857 L446.143 162.857 C446.143,158.36 449.789,154.714 454.286,154.714 L488.571 154.714 C493.069,154.714 496.714,158.36 496.714,162.857 Z M548.143 162.857 L548.143 162.857 C548.143,167.354 544.497,171 540,171 L522.857 171 C518.36,171 514.714,167.354 514.714,162.857 L514.714 162.857 C514.714,158.36 518.36,154.714 522.857,154.714 L540 154.714 C544.497,154.714 548.143,158.36 548.143,162.857 Z M582.429 162.857 L582.429 162.857 C582.429,167.354 578.783,171 574.286,171 L574.286 171 C569.789,171 566.143,167.354 566.143,162.857 L566.143 162.857 C566.143,158.36 569.789,154.714 574.286,154.714 L574.286 154.714 C578.783,154.714 582.429,158.36 582.429,162.857 Z M119.571 180 L119.571 180 C119.571,184.497 115.926,188.143 111.429,188.143 L60 188.143 C55.503,188.143 51.857,184.497 51.857,180 L51.857 180 C51.857,175.503 55.503,171.857 60,171.857 L111.429 171.857 C115.926,171.857 119.571,175.503 119.571,180 Z M188.143 180 L188.143 180 C188.143,184.497 184.497,188.143 180,188.143 L180 188.143 C175.503,188.143 171.857,184.497 171.857,180 L171.857 180 C171.857,175.503 175.503,171.857 180,171.857 L180 171.857 C184.497,171.857 188.143,175.503 188.143,180 Z M256.714 180 L256.714 180 C256.714,184.497 253.069,188.143 248.571,188.143 L248.571 188.143 C244.074,188.143 240.429,184.497 240.429,180 L240.429 180 C240.429,175.503 244.074,171.857 248.571,171.857 L248.571 171.857 C253.069,171.857 256.714,175.503 256.714,180 Z M308.143 180 L308.143 180 C308.143,184.497 304.497,188.143 300,188.143 L300 188.143 C295.503,188.143 291.857,184.497 291.857,180 L291.857 180 C291.857,175.503 295.503,171.857 300,171.857 L300 171.857 C304.497,171.857 308.143,175.503 308.143,180 Z M342.429 180 L342.429 180 C342.429,184.497 338.783,188.143 334.286,188.143 L334.286 188.143 C329.789,188.143 326.143,184.497 326.143,180 L326.143 180 C326.143,175.503 329.789,171.857 334.286,171.857 L334.286 171.857 C338.783,171.857 342.429,175.503 342.429,180 Z M376.714 180 L376.714 180 C376.714,184.497 373.069,188.143 368.571,188.143 L368.571 188.143 C364.074,188.143 360.429,184.497 360.429,180 L360.429 180 C360.429,175.503 364.074,171.857 368.571,171.857 L368.571 171.857 C373.069,171.857 376.714,175.503 376.714,180 Z M496.714 180 L496.714 180 C496.714,184.497 493.069,188.143 488.571,188.143 L437.143 188.143 C432.646,188.143 429,184.497 429,180 L429 180 C429,175.503 432.646,171.857 437.143,171.857 L488.571 171.857 C493.069,171.857 496.714,175.503 496.714,180 Z M582.429 180 L582.429 180 C582.429,184.497 578.783,188.143 574.286,188.143 L557.143 188.143 C552.646,188.143 549,184.497 549,180 L549 180 C549,175.503 552.646,171.857 557.143,171.857 L574.286 171.857 C578.783,171.857 582.429,175.503 582.429,180 Z M68.143 197.143 L68.143 197.143 C68.143,201.64 64.497,205.286 60,205.286 L60 205.286 C55.503,205.286 51.857,201.64 51.857,197.143 L51.857 197.143 C51.857,192.646 55.503,189 60,189 L60 189 C64.497,189 68.143,192.646 68.143,197.143 Z M136.714 197.143 L136.714 197.143 C136.714,201.64 133.069,205.286 128.571,205.286 L128.571 205.286 C124.074,205.286 120.429,201.64 120.429,197.143 L120.429 197.143 C120.429,192.646 124.074,189 128.571,189 L128.571 189 C133.069,189 136.714,192.646 136.714,197.143 Z M188.143 197.143 L188.143 197.143 C188.143,201.64 184.497,205.286 180,205.286 L180 205.286 C175.503,205.286 171.857,201.64 171.857,197.143 L171.857 197.143 C171.857,192.646 175.503,189 180,189 L180 189 C184.497,189 188.143,192.646 188.143,197.143 Z M256.714 197.143 L256.714 197.143 C256.714,201.64 253.069,205.286 248.571,205.286 L248.571 205.286 C244.074,205.286 240.429,201.64 240.429,197.143 L240.429 197.143 C240.429,192.646 244.074,189 248.571,189 L248.571 189 C253.069,189 256.714,192.646 256.714,197.143 Z M325.286 197.143 L325.286 197.143 C325.286,201.64 321.64,205.286 317.143,205.286 L300 205.286 C295.503,205.286 291.857,201.64 291.857,197.143 L291.857 197.143 C291.857,192.646 295.503,189 300,189 L317.143 189 C321.64,189 325.286,192.646 325.286,197.143 Z M411 197.143 L411 197.143 C411,201.64 407.354,205.286 402.857,205.286 L351.429 205.286 C346.931,205.286 343.286,201.64 343.286,197.143 L343.286 197.143 C343.286,192.646 346.931,189 351.429,189 L402.857 189 C407.354,189 411,192.646 411,197.143 Z M445.286 197.143 L445.286 197.143 C445.286,201.64 441.64,205.286 437.143,205.286 L437.143 205.286 C432.646,205.286 429,201.64 429,197.143 L429 197.143 C429,192.646 432.646,189 437.143,189 L437.143 189 C441.64,189 445.286,192.646 445.286,197.143 Z M513.857 197.143 L513.857 197.143 C513.857,201.64 510.211,205.286 505.714,205.286 L488.571 205.286 C484.074,205.286 480.429,201.64 480.429,197.143 L480.429 197.143 C480.429,192.646 484.074,189 488.571,189 L505.714 189 C510.211,189 513.857,192.646 513.857,197.143 Z M548.143 197.143 L548.143 197.143 C548.143,201.64 544.497,205.286 540,205.286 L540 205.286 C535.503,205.286 531.857,201.64 531.857,197.143 L531.857 197.143 C531.857,192.646 535.503,189 540,189 L540 189 C544.497,189 548.143,192.646 548.143,197.143 Z M582.429 197.143 L582.429 197.143 C582.429,201.64 578.783,205.286 574.286,205.286 L574.286 205.286 C569.789,205.286 566.143,201.64 566.143,197.143 L566.143 197.143 C566.143,192.646 569.789,189 574.286,189 L574.286 189 C578.783,189 582.429,192.646 582.429,197.143 Z M68.143 214.286 L68.143 214.286 C68.143,218.783 64.497,222.429 60,222.429 L60 222.429 C55.503,222.429 51.857,218.783 51.857,214.286 L51.857 214.286 C51.857,209.789 55.503,206.143 60,206.143 L60 206.143 C64.497,206.143 68.143,209.789 68.143,214.286 Z M171 214.286 L171 214.286 C171,218.783 167.354,222.429 162.857,222.429 L162.857 222.429 C158.36,222.429 154.714,218.783 154.714,214.286 L154.714 214.286 C154.714,209.789 158.36,206.143 162.857,206.143 L162.857 206.143 C167.354,206.143 171,209.789 171,214.286 Z M273.857 214.286 L273.857 214.286 C273.857,218.783 270.211,222.429 265.714,222.429 L197.143 222.429 C192.646,222.429 189,218.783 189,214.286 L189 214.286 C189,209.789 192.646,206.143 197.143,206.143 L265.714 206.143 C270.211,206.143 273.857,209.789 273.857,214.286 Z M325.286 214.286 L325.286 214.286 C325.286,218.783 321.64,222.429 317.143,222.429 L300 222.429 C295.503,222.429 291.857,218.783 291.857,214.286 L291.857 214.286 C291.857,209.789 295.503,206.143 300,206.143 L317.143 206.143 C321.64,206.143 325.286,209.789 325.286,214.286 Z M359.571 214.286 L359.571 214.286 C359.571,218.783 355.926,222.429 351.429,222.429 L351.429 222.429 C346.931,222.429 343.286,218.783 343.286,214.286 L343.286 214.286 C343.286,209.789 346.931,206.143 351.429,206.143 L351.429 206.143 C355.926,206.143 359.571,209.789 359.571,214.286 Z M531 214.286 L531 214.286 C531,218.783 527.354,222.429 522.857,222.429 L505.714 222.429 C501.217,222.429 497.571,218.783 497.571,214.286 L497.571 214.286 C497.571,209.789 501.217,206.143 505.714,206.143 L522.857 206.143 C527.354,206.143 531,209.789 531,214.286 Z M565.286 214.286 L565.286 214.286 C565.286,218.783 561.64,222.429 557.143,222.429 L557.143 222.429 C552.646,222.429 549,218.783 549,214.286 L549 214.286 C549,209.789 552.646,206.143 557.143,206.143 L557.143 206.143 C561.64,206.143 565.286,209.789 565.286,214.286 Z M33.857 231.429 L33.857 231.429 C33.857,235.926 30.211,239.571 25.714,239.571 L25.714 239.571 C21.217,239.571 17.571,235.926 17.571,231.429 L17.571 231.429 C17.571,226.931 21.217,223.286 25.714,223.286 L25.714 223.286 C30.211,223.286 33.857,226.931 33.857,231.429 Z M153.857 231.429 L153.857 231.429 C153.857,235.926 150.211,239.571 145.714,239.571 L77.143 239.571 C72.646,239.571 69,235.926 69,231.429 L69 231.429 C69,226.931 72.646,223.286 77.143,223.286 L145.714 223.286 C150.211,223.286 153.857,226.931 153.857,231.429 Z M205.286 231.429 L205.286 231.429 C205.286,235.926 201.64,239.571 197.143,239.571 L180 239.571 C175.503,239.571 171.857,235.926 171.857,231.429 L171.857 231.429 C171.857,226.931 175.503,223.286 180,223.286 L197.143 223.286 C201.64,223.286 205.286,226.931 205.286,231.429 Z M256.714 231.429 L256.714 231.429 C256.714,235.926 253.069,239.571 248.571,239.571 L248.571 239.571 C244.074,239.571 240.429,235.926 240.429,231.429 L240.429 231.429 C240.429,226.931 244.074,223.286 248.571,223.286 L248.571 223.286 C253.069,223.286 256.714,226.931 256.714,231.429 Z M428.143 231.429 L428.143 231.429 C428.143,235.926 424.497,239.571 420,239.571 L420 239.571 C415.503,239.571 411.857,235.926 411.857,231.429 L411.857 231.429 C411.857,226.931 415.503,223.286 420,223.286 L420 223.286 C424.497,223.286 428.143,226.931 428.143,231.429 Z M479.571 231.429 L479.571 231.429 C479.571,235.926 475.926,239.571 471.429,239.571 L454.286 239.571 C449.789,239.571 446.143,235.926 446.143,231.429 L446.143 231.429 C446.143,226.931 449.789,223.286 454.286,223.286 L471.429 223.286 C475.926,223.286 479.571,226.931 479.571,231.429 Z M531 231.429 L531 231.429 C531,235.926 527.354,239.571 522.857,239.571 L522.857 239.571 C518.36,239.571 514.714,235.926 514.714,231.429 L514.714 231.429 C514.714,226.931 518.36,223.286 522.857,223.286 L522.857 223.286 C527.354,223.286 531,226.931 531,231.429 Z M565.286 231.429 L565.286 231.429 C565.286,235.926 561.64,239.571 557.143,239.571 L557.143 239.571 C552.646,239.571 549,235.926 549,231.429 L549 231.429 C549,226.931 552.646,223.286 557.143,223.286 L557.143 223.286 C561.64,223.286 565.286,226.931 565.286,231.429 Z M33.857 248.571 L33.857 248.571 C33.857,253.069 30.211,256.714 25.714,256.714 L25.714 256.714 C21.217,256.714 17.571,253.069 17.571,248.571 L17.571 248.571 C17.571,244.074 21.217,240.429 25.714,240.429 L25.714 240.429 C30.211,240.429 33.857,244.074 33.857,248.571 Z M119.571 248.571 L119.571 248.571 C119.571,253.069 115.926,256.714 111.429,256.714 L94.286 256.714 C89.789,256.714 86.143,253.069 86.143,248.571 L86.143 248.571 C86.143,244.074 89.789,240.429 94.286,240.429 L111.429 240.429 C115.926,240.429 119.571,244.074 119.571,248.571 Z M153.857 248.571 L153.857 248.571 C153.857,253.069 150.211,256.714 145.714,256.714 L145.714 256.714 C141.217,256.714 137.571,253.069 137.571,248.571 L137.571 248.571 C137.571,244.074 141.217,240.429 145.714,240.429 L145.714 240.429 C150.211,240.429 153.857,244.074 153.857,248.571 Z M273.857 248.571 L273.857 248.571 C273.857,253.069 270.211,256.714 265.714,256.714 L197.143 256.714 C192.646,256.714 189,253.069 189,248.571 L189 248.571 C189,244.074 192.646,240.429 197.143,240.429 L265.714 240.429 C270.211,240.429 273.857,244.074 273.857,248.571 Z M325.286 248.571 L325.286 248.571 C325.286,253.069 321.64,256.714 317.143,256.714 L317.143 256.714 C312.646,256.714 309,253.069 309,248.571 L309 248.571 C309,244.074 312.646,240.429 317.143,240.429 L317.143 240.429 C321.64,240.429 325.286,244.074 325.286,248.571 Z M428.143 248.571 L428.143 248.571 C428.143,253.069 424.497,256.714 420,256.714 L402.857 256.714 C398.36,256.714 394.714,253.069 394.714,248.571 L394.714 248.571 C394.714,244.074 398.36,240.429 402.857,240.429 L420 240.429 C424.497,240.429 428.143,244.074 428.143,248.571 Z M479.571 248.571 L479.571 248.571 C479.571,253.069 475.926,256.714 471.429,256.714 L471.429 256.714 C466.931,256.714 463.286,253.069 463.286,248.571 L463.286 248.571 C463.286,244.074 466.931,240.429 471.429,240.429 L471.429 240.429 C475.926,240.429 479.571,244.074 479.571,248.571 Z M513.857 248.571 L513.857 248.571 C513.857,253.069 510.211,256.714 505.714,256.714 L505.714 256.714 C501.217,256.714 497.571,253.069 497.571,248.571 L497.571 248.571 C497.571,244.074 501.217,240.429 505.714,240.429 L505.714 240.429 C510.211,240.429 513.857,244.074 513.857,248.571 Z M582.429 248.571 L582.429 248.571 C582.429,253.069 578.783,256.714 574.286,256.714 L557.143 256.714 C552.646,256.714 549,253.069 549,248.571 L549 248.571 C549,244.074 552.646,240.429 557.143,240.429 L574.286 240.429 C578.783,240.429 582.429,244.074 582.429,248.571 Z M68.143 265.714 L68.143 265.714 C68.143,270.211 64.497,273.857 60,273.857 L60 273.857 C55.503,273.857 51.857,270.211 51.857,265.714 L51.857 265.714 C51.857,261.217 55.503,257.571 60,257.571 L60 257.571 C64.497,257.571 68.143,261.217 68.143,265.714 Z M136.714 265.714 L136.714 265.714 C136.714,270.211 133.069,273.857 128.571,273.857 L94.286 273.857 C89.789,273.857 86.143,270.211 86.143,265.714 L86.143 265.714 C86.143,261.217 89.789,257.571 94.286,257.571 L128.571 257.571 C133.069,257.571 136.714,261.217 136.714,265.714 Z M222.429 265.714 L222.429 265.714 C222.429,270.211 218.783,273.857 214.286,273.857 L180 273.857 C175.503,273.857 171.857,270.211 171.857,265.714 L171.857 265.714 C171.857,261.217 175.503,257.571 180,257.571 L214.286 257.571 C218.783,257.571 222.429,261.217 222.429,265.714 Z M256.714 265.714 L256.714 265.714 C256.714,270.211 253.069,273.857 248.571,273.857 L248.571 273.857 C244.074,273.857 240.429,270.211 240.429,265.714 L240.429 265.714 C240.429,261.217 244.074,257.571 248.571,257.571 L248.571 257.571 C253.069,257.571 256.714,261.217 256.714,265.714 Z M325.286 265.714 L325.286 265.714 C325.286,270.211 321.64,273.857 317.143,273.857 L282.857 273.857 C278.36,273.857 274.714,270.211 274.714,265.714 L274.714 265.714 C274.714,261.217 278.36,257.571 282.857,257.571 L317.143 257.571 C321.64,257.571 325.286,261.217 325.286,265.714 Z M393.857 265.714 L393.857 265.714 C393.857,270.211 390.211,273.857 385.714,273.857 L368.571 273.857 C364.074,273.857 360.429,270.211 360.429,265.714 L360.429 265.714 C360.429,261.217 364.074,257.571 368.571,257.571 L385.714 257.571 C390.211,257.571 393.857,261.217 393.857,265.714 Z M428.143 265.714 L428.143 265.714 C428.143,270.211 424.497,273.857 420,273.857 L420 273.857 C415.503,273.857 411.857,270.211 411.857,265.714 L411.857 265.714 C411.857,261.217 415.503,257.571 420,257.571 L420 257.571 C424.497,257.571 428.143,261.217 428.143,265.714 Z M496.714 265.714 L496.714 265.714 C496.714,270.211 493.069,273.857 488.571,273.857 L454.286 273.857 C449.789,273.857 446.143,270.211 446.143,265.714 L446.143 265.714 C446.143,261.217 449.789,257.571 454.286,257.571 L488.571 257.571 C493.069,257.571 496.714,261.217 496.714,265.714 Z M531 265.714 L531 265.714 C531,270.211 527.354,273.857 522.857,273.857 L522.857 273.857 C518.36,273.857 514.714,270.211 514.714,265.714 L514.714 265.714 C514.714,261.217 518.36,257.571 522.857,257.571 L522.857 257.571 C527.354,257.571 531,261.217 531,265.714 Z M565.286 265.714 L565.286 265.714 C565.286,270.211 561.64,273.857 557.143,273.857 L557.143 273.857 C552.646,273.857 549,270.211 549,265.714 L549 265.714 C549,261.217 552.646,257.571 557.143,257.571 L557.143 257.571 C561.64,257.571 565.286,261.217 565.286,265.714 Z M85.286 282.857 L85.286 282.857 C85.286,287.354 81.64,291 77.143,291 L60 291 C55.503,291 51.857,287.354 51.857,282.857 L51.857 282.857 C51.857,278.36 55.503,274.714 60,274.714 L77.143 274.714 C81.64,274.714 85.286,278.36 85.286,282.857 Z M119.571 282.857 L119.571 282.857 C119.571,287.354 115.926,291 111.429,291 L111.429 291 C106.931,291 103.286,287.354 103.286,282.857 L103.286 282.857 C103.286,278.36 106.931,274.714 111.429,274.714 L111.429 274.714 C115.926,274.714 119.571,278.36 119.571,282.857 Z M188.143 282.857 L188.143 282.857 C188.143,287.354 184.497,291 180,291 L162.857 291 C158.36,291 154.714,287.354 154.714,282.857 L154.714 282.857 C154.714,278.36 158.36,274.714 162.857,274.714 L180 274.714 C184.497,274.714 188.143,278.36 188.143,282.857 Z M256.714 282.857 L256.714 282.857 C256.714,287.354 253.069,291 248.571,291 L231.429 291 C226.931,291 223.286,287.354 223.286,282.857 L223.286 282.857 C223.286,278.36 226.931,274.714 231.429,274.714 L248.571 274.714 C253.069,274.714 256.714,278.36 256.714,282.857 Z M291 282.857 L291 282.857 C291,287.354 287.354,291 282.857,291 L282.857 291 C278.36,291 274.714,287.354 274.714,282.857 L274.714 282.857 C274.714,278.36 278.36,274.714 282.857,274.714 L282.857 274.714 C287.354,274.714 291,278.36 291,282.857 Z M359.571 282.857 L359.571 282.857 C359.571,287.354 355.926,291 351.429,291 L317.143 291 C312.646,291 309,287.354 309,282.857 L309 282.857 C309,278.36 312.646,274.714 317.143,274.714 L351.429 274.714 C355.926,274.714 359.571,278.36 359.571,282.857 Z M393.857 282.857 L393.857 282.857 C393.857,287.354 390.211,291 385.714,291 L385.714 291 C381.217,291 377.571,287.354 377.571,282.857 L377.571 282.857 C377.571,278.36 381.217,274.714 385.714,274.714 L385.714 274.714 C390.211,274.714 393.857,278.36 393.857,282.857 Z M428.143 282.857 L428.143 282.857 C428.143,287.354 424.497,291 420,291 L420 291 C415.503,291 411.857,287.354 411.857,282.857 L411.857 282.857 C411.857,278.36 415.503,274.714 420,274.714 L420 274.714 C424.497,274.714 428.143,278.36 428.143,282.857 Z M496.714 282.857 L496.714 282.857 C496.714,287.354 493.069,291 488.571,291 L471.429 291 C466.931,291 463.286,287.354 463.286,282.857 L463.286 282.857 C463.286,278.36 466.931,274.714 471.429,274.714 L488.571 274.714 C493.069,274.714 496.714,278.36 496.714,282.857 Z M531 282.857 L531 282.857 C531,287.354 527.354,291 522.857,291 L522.857 291 C518.36,291 514.714,287.354 514.714,282.857 L514.714 282.857 C514.714,278.36 518.36,274.714 522.857,274.714 L522.857 274.714 C527.354,274.714 531,278.36 531,282.857 Z M565.286 282.857 L565.286 282.857 C565.286,287.354 561.64,291 557.143,291 L557.143 291 C552.646,291 549,287.354 549,282.857 L549 282.857 C549,278.36 552.646,274.714 557.143,274.714 L557.143 274.714 C561.64,274.714 565.286,278.36 565.286,282.857 Z M33.857 300 L33.857 300 C33.857,304.497 30.211,308.143 25.714,308.143 L25.714 308.143 C21.217,308.143 17.571,304.497 17.571,300 L17.571 300 C17.571,295.503 21.217,291.857 25.714,291.857 L25.714 291.857 C30.211,291.857 33.857,295.503 33.857,300 Z M136.714 300 L136.714 300 C136.714,304.497 133.069,308.143 128.571,308.143 L128.571 308.143 C124.074,308.143 120.429,304.497 120.429,300 L120.429 300 C120.429,295.503 124.074,291.857 128.571,291.857 L128.571 291.857 C133.069,291.857 136.714,295.503 136.714,300 Z M205.286 300 L205.286 300 C205.286,304.497 201.64,308.143 197.143,308.143 L180 308.143 C175.503,308.143 171.857,304.497 171.857,300 L171.857 300 C171.857,295.503 175.503,291.857 180,291.857 L197.143 291.857 C201.64,291.857 205.286,295.503 205.286,300 Z M273.857 300 L273.857 300 C273.857,304.497 270.211,308.143 265.714,308.143 L231.429 308.143 C226.931,308.143 223.286,304.497 223.286,300 L223.286 300 C223.286,295.503 226.931,291.857 231.429,291.857 L265.714 291.857 C270.211,291.857 273.857,295.503 273.857,300 Z M325.286 300 L325.286 300 C325.286,304.497 321.64,308.143 317.143,308.143 L317.143 308.143 C312.646,308.143 309,304.497 309,300 L309 300 C309,295.503 312.646,291.857 317.143,291.857 L317.143 291.857 C321.64,291.857 325.286,295.503 325.286,300 Z M411 300 L411 300 C411,304.497 407.354,308.143 402.857,308.143 L351.429 308.143 C346.931,308.143 343.286,304.497 343.286,300 L343.286 300 C343.286,295.503 346.931,291.857 351.429,291.857 L402.857 291.857 C407.354,291.857 411,295.503 411,300 Z M445.286 300 L445.286 300 C445.286,304.497 441.64,308.143 437.143,308.143 L437.143 308.143 C432.646,308.143 429,304.497 429,300 L429 300 C429,295.503 432.646,291.857 437.143,291.857 L437.143 291.857 C441.64,291.857 445.286,295.503 445.286,300 Z M479.571 300 L479.571 300 C479.571,304.497 475.926,308.143 471.429,308.143 L471.429 308.143 C466.931,308.143 463.286,304.497 463.286,300 L463.286 300 C463.286,295.503 466.931,291.857 471.429,291.857 L471.429 291.857 C475.926,291.857 479.571,295.503 479.571,300 Z M513.857 300 L513.857 300 C513.857,304.497 510.211,308.143 505.714,308.143 L505.714 308.143 C501.217,308.143 497.571,304.497 497.571,300 L497.571 300 C497.571,295.503 501.217,291.857 505.714,291.857 L505.714 291.857 C510.211,291.857 513.857,295.503 513.857,300 Z M565.286 300 L565.286 300 C565.286,304.497 561.64,308.143 557.143,308.143 L557.143 308.143 C552.646,308.143 549,304.497 549,300 L549 300 C549,295.503 552.646,291.857 557.143,291.857 L557.143 291.857 C561.64,291.857 565.286,295.503 565.286,300 Z M85.286 317.143 L85.286 317.143 C85.286,321.64 81.64,325.286 77.143,325.286 L25.714 325.286 C21.217,325.286 17.571,321.64 17.571,317.143 L17.571 317.143 C17.571,312.646 21.217,309 25.714,309 L77.143 309 C81.64,309 85.286,312.646 85.286,317.143 Z M119.571 317.143 L119.571 317.143 C119.571,321.64 115.926,325.286 111.429,325.286 L111.429 325.286 C106.931,325.286 103.286,321.64 103.286,317.143 L103.286 317.143 C103.286,312.646 106.931,309 111.429,309 L111.429 309 C115.926,309 119.571,312.646 119.571,317.143 Z M273.857 317.143 L273.857 317.143 C273.857,321.64 270.211,325.286 265.714,325.286 L265.714 325.286 C261.217,325.286 257.571,321.64 257.571,317.143 L257.571 317.143 C257.571,312.646 261.217,309 265.714,309 L265.714 309 C270.211,309 273.857,312.646 273.857,317.143 Z M342.429 317.143 L342.429 317.143 C342.429,321.64 338.783,325.286 334.286,325.286 L317.143 325.286 C312.646,325.286 309,321.64 309,317.143 L309 317.143 C309,312.646 312.646,309 317.143,309 L334.286 309 C338.783,309 342.429,312.646 342.429,317.143 Z M393.857 317.143 L393.857 317.143 C393.857,321.64 390.211,325.286 385.714,325.286 L385.714 325.286 C381.217,325.286 377.571,321.64 377.571,317.143 L377.571 317.143 C377.571,312.646 381.217,309 385.714,309 L385.714 309 C390.211,309 393.857,312.646 393.857,317.143 Z M462.429 317.143 L462.429 317.143 C462.429,321.64 458.783,325.286 454.286,325.286 L420 325.286 C415.503,325.286 411.857,321.64 411.857,317.143 L411.857 317.143 C411.857,312.646 415.503,309 420,309 L454.286 309 C458.783,309 462.429,312.646 462.429,317.143 Z M496.714 317.143 L496.714 317.143 C496.714,321.64 493.069,325.286 488.571,325.286 L488.571 325.286 C484.074,325.286 480.429,321.64 480.429,317.143 L480.429 317.143 C480.429,312.646 484.074,309 488.571,309 L488.571 309 C493.069,309 496.714,312.646 496.714,317.143 Z M531 317.143 L531 317.143 C531,321.64 527.354,325.286 522.857,325.286 L522.857 325.286 C518.36,325.286 514.714,321.64 514.714,317.143 L514.714 317.143 C514.714,312.646 518.36,309 522.857,309 L522.857 309 C527.354,309 531,312.646 531,317.143 Z M565.286 317.143 L565.286 317.143 C565.286,321.64 561.64,325.286 557.143,325.286 L557.143 325.286 C552.646,325.286 549,321.64 549,317.143 L549 317.143 C549,312.646 552.646,309 557.143,309 L557.143 309 C561.64,309 565.286,312.646 565.286,317.143 Z M68.143 334.286 L68.143 334.286 C68.143,338.783 64.497,342.429 60,342.429 L25.714 342.429 C21.217,342.429 17.571,338.783 17.571,334.286 L17.571 334.286 C17.571,329.789 21.217,326.143 25.714,326.143 L60 326.143 C64.497,326.143 68.143,329.789 68.143,334.286 Z M102.429 334.286 L102.429 334.286 C102.429,338.783 98.783,342.429 94.286,342.429 L94.286 342.429 C89.789,342.429 86.143,338.783 86.143,334.286 L86.143 334.286 C86.143,329.789 89.789,326.143 94.286,326.143 L94.286 326.143 C98.783,326.143 102.429,329.789 102.429,334.286 Z M136.714 334.286 L136.714 334.286 C136.714,338.783 133.069,342.429 128.571,342.429 L128.571 342.429 C124.074,342.429 120.429,338.783 120.429,334.286 L120.429 334.286 C120.429,329.789 124.074,326.143 128.571,326.143 L128.571 326.143 C133.069,326.143 136.714,329.789 136.714,334.286 Z M239.571 334.286 L239.571 334.286 C239.571,338.783 235.926,342.429 231.429,342.429 L197.143 342.429 C192.646,342.429 189,338.783 189,334.286 L189 334.286 C189,329.789 192.646,326.143 197.143,326.143 L231.429 326.143 C235.926,326.143 239.571,329.789 239.571,334.286 Z M325.286 334.286 L325.286 334.286 C325.286,338.783 321.64,342.429 317.143,342.429 L265.714 342.429 C261.217,342.429 257.571,338.783 257.571,334.286 L257.571 334.286 C257.571,329.789 261.217,326.143 265.714,326.143 L317.143 326.143 C321.64,326.143 325.286,329.789 325.286,334.286 Z M411 334.286 L411 334.286 C411,338.783 407.354,342.429 402.857,342.429 L402.857 342.429 C398.36,342.429 394.714,338.783 394.714,334.286 L394.714 334.286 C394.714,329.789 398.36,326.143 402.857,326.143 L402.857 326.143 C407.354,326.143 411,329.789 411,334.286 Z M479.571 334.286 L479.571 334.286 C479.571,338.783 475.926,342.429 471.429,342.429 L437.143 342.429 C432.646,342.429 429,338.783 429,334.286 L429 334.286 C429,329.789 432.646,326.143 437.143,326.143 L471.429 326.143 C475.926,326.143 479.571,329.789 479.571,334.286 Z M582.429 334.286 L582.429 334.286 C582.429,338.783 578.783,342.429 574.286,342.429 L540 342.429 C535.503,342.429 531.857,338.783 531.857,334.286 L531.857 334.286 C531.857,329.789 535.503,326.143 540,326.143 L574.286 326.143 C578.783,326.143 582.429,329.789 582.429,334.286 Z M33.857 351.429 L33.857 351.429 C33.857,355.926 30.211,359.571 25.714,359.571 L25.714 359.571 C21.217,359.571 17.571,355.926 17.571,351.429 L17.571 351.429 C17.571,346.931 21.217,343.286 25.714,343.286 L25.714 343.286 C30.211,343.286 33.857,346.931 33.857,351.429 Z M119.571 351.429 L119.571 351.429 C119.571,355.926 115.926,359.571 111.429,359.571 L77.143 359.571 C72.646,359.571 69,355.926 69,351.429 L69 351.429 C69,346.931 72.646,343.286 77.143,343.286 L111.429 343.286 C115.926,343.286 119.571,346.931 119.571,351.429 Z M239.571 351.429 L239.571 351.429 C239.571,355.926 235.926,359.571 231.429,359.571 L231.429 359.571 C226.931,359.571 223.286,355.926 223.286,351.429 L223.286 351.429 C223.286,346.931 226.931,343.286 231.429,343.286 L231.429 343.286 C235.926,343.286 239.571,346.931 239.571,351.429 Z M291 351.429 L291 351.429 C291,355.926 287.354,359.571 282.857,359.571 L282.857 359.571 C278.36,359.571 274.714,355.926 274.714,351.429 L274.714 351.429 C274.714,346.931 278.36,343.286 282.857,343.286 L282.857 343.286 C287.354,343.286 291,346.931 291,351.429 Z M393.857 351.429 L393.857 351.429 C393.857,355.926 390.211,359.571 385.714,359.571 L317.143 359.571 C312.646,359.571 309,355.926 309,351.429 L309 351.429 C309,346.931 312.646,343.286 317.143,343.286 L385.714 343.286 C390.211,343.286 393.857,346.931 393.857,351.429 Z M445.286 351.429 L445.286 351.429 C445.286,355.926 441.64,359.571 437.143,359.571 L420 359.571 C415.503,359.571 411.857,355.926 411.857,351.429 L411.857 351.429 C411.857,346.931 415.503,343.286 420,343.286 L437.143 343.286 C441.64,343.286 445.286,346.931 445.286,351.429 Z M496.714 351.429 L496.714 351.429 C496.714,355.926 493.069,359.571 488.571,359.571 L488.571 359.571 C484.074,359.571 480.429,355.926 480.429,351.429 L480.429 351.429 C480.429,346.931 484.074,343.286 488.571,343.286 L488.571 343.286 C493.069,343.286 496.714,346.931 496.714,351.429 Z M582.429 351.429 L582.429 351.429 C582.429,355.926 578.783,359.571 574.286,359.571 L557.143 359.571 C552.646,359.571 549,355.926 549,351.429 L549 351.429 C549,346.931 552.646,343.286 557.143,343.286 L574.286 343.286 C578.783,343.286 582.429,346.931 582.429,351.429 Z M33.857 368.571 L33.857 368.571 C33.857,373.069 30.211,376.714 25.714,376.714 L25.714 376.714 C21.217,376.714 17.571,373.069 17.571,368.571 L17.571 368.571 C17.571,364.074 21.217,360.429 25.714,360.429 L25.714 360.429 C30.211,360.429 33.857,364.074 33.857,368.571 Z M68.143 368.571 L68.143 368.571 C68.143,373.069 64.497,376.714 60,376.714 L60 376.714 C55.503,376.714 51.857,373.069 51.857,368.571 L51.857 368.571 C51.857,364.074 55.503,360.429 60,360.429 L60 360.429 C64.497,360.429 68.143,364.074 68.143,368.571 Z M136.714 368.571 L136.714 368.571 C136.714,373.069 133.069,376.714 128.571,376.714 L128.571 376.714 C124.074,376.714 120.429,373.069 120.429,368.571 L120.429 368.571 C120.429,364.074 124.074,360.429 128.571,360.429 L128.571 360.429 C133.069,360.429 136.714,364.074 136.714,368.571 Z M188.143 368.571 L188.143 368.571 C188.143,373.069 184.497,376.714 180,376.714 L162.857 376.714 C158.36,376.714 154.714,373.069 154.714,368.571 L154.714 368.571 C154.714,364.074 158.36,360.429 162.857,360.429 L180 360.429 C184.497,360.429 188.143,364.074 188.143,368.571 Z M256.714 368.571 L256.714 368.571 C256.714,373.069 253.069,376.714 248.571,376.714 L248.571 376.714 C244.074,376.714 240.429,373.069 240.429,368.571 L240.429 368.571 C240.429,364.074 244.074,360.429 248.571,360.429 L248.571 360.429 C253.069,360.429 256.714,364.074 256.714,368.571 Z M291 368.571 L291 368.571 C291,373.069 287.354,376.714 282.857,376.714 L282.857 376.714 C278.36,376.714 274.714,373.069 274.714,368.571 L274.714 368.571 C274.714,364.074 278.36,360.429 282.857,360.429 L282.857 360.429 C287.354,360.429 291,364.074 291,368.571 Z M359.571 368.571 L359.571 368.571 C359.571,373.069 355.926,376.714 351.429,376.714 L334.286 376.714 C329.789,376.714 326.143,373.069 326.143,368.571 L326.143 368.571 C326.143,364.074 329.789,360.429 334.286,360.429 L351.429 360.429 C355.926,360.429 359.571,364.074 359.571,368.571 Z M462.429 368.571 L462.429 368.571 C462.429,373.069 458.783,376.714 454.286,376.714 L402.857 376.714 C398.36,376.714 394.714,373.069 394.714,368.571 L394.714 368.571 C394.714,364.074 398.36,360.429 402.857,360.429 L454.286 360.429 C458.783,360.429 462.429,364.074 462.429,368.571 Z M513.857 368.571 L513.857 368.571 C513.857,373.069 510.211,376.714 505.714,376.714 L505.714 376.714 C501.217,376.714 497.571,373.069 497.571,368.571 L497.571 368.571 C497.571,364.074 501.217,360.429 505.714,360.429 L505.714 360.429 C510.211,360.429 513.857,364.074 513.857,368.571 Z M582.429 368.571 L582.429 368.571 C582.429,373.069 578.783,376.714 574.286,376.714 L557.143 376.714 C552.646,376.714 549,373.069 549,368.571 L549 368.571 C549,364.074 552.646,360.429 557.143,360.429 L574.286 360.429 C578.783,360.429 582.429,364.074 582.429,368.571 Z M68.143 385.714 L68.143 385.714 C68.143,390.211 64.497,393.857 60,393.857 L60 393.857 C55.503,393.857 51.857,390.211 51.857,385.714 L51.857 385.714 C51.857,381.217 55.503,377.571 60,377.571 L60 377.571 C64.497,377.571 68.143,381.217 68.143,385.714 Z M171 385.714 L171 385.714 C171,390.211 167.354,393.857 162.857,393.857 L145.714 393.857 C141.217,393.857 137.571,390.211 137.571,385.714 L137.571 385.714 C137.571,381.217 141.217,377.571 145.714,377.571 L162.857 377.571 C167.354,377.571 171,381.217 171,385.714 Z M308.143 385.714 L308.143 385.714 C308.143,390.211 304.497,393.857 300,393.857 L265.714 393.857 C261.217,393.857 257.571,390.211 257.571,385.714 L257.571 385.714 C257.571,381.217 261.217,377.571 265.714,377.571 L300 377.571 C304.497,377.571 308.143,381.217 308.143,385.714 Z M479.571 385.714 L479.571 385.714 C479.571,390.211 475.926,393.857 471.429,393.857 L334.286 393.857 C329.789,393.857 326.143,390.211 326.143,385.714 L326.143 385.714 C326.143,381.217 329.789,377.571 334.286,377.571 L471.429 377.571 C475.926,377.571 479.571,381.217 479.571,385.714 Z M582.429 385.714 L582.429 385.714 C582.429,390.211 578.783,393.857 574.286,393.857 L540 393.857 C535.503,393.857 531.857,390.211 531.857,385.714 L531.857 385.714 C531.857,381.217 535.503,377.571 540,377.571 L574.286 377.571 C578.783,377.571 582.429,381.217 582.429,385.714 Z M85.286 402.857 L85.286 402.857 C85.286,407.354 81.64,411 77.143,411 L25.714 411 C21.217,411 17.571,407.354 17.571,402.857 L17.571 402.857 C17.571,398.36 21.217,394.714 25.714,394.714 L77.143 394.714 C81.64,394.714 85.286,398.36 85.286,402.857 Z M136.714 402.857 L136.714 402.857 C136.714,407.354 133.069,411 128.571,411 L111.429 411 C106.931,411 103.286,407.354 103.286,402.857 L103.286 402.857 C103.286,398.36 106.931,394.714 111.429,394.714 L128.571 394.714 C133.069,394.714 136.714,398.36 136.714,402.857 Z M308.143 402.857 L308.143 402.857 C308.143,407.354 304.497,411 300,411 L231.429 411 C226.931,411 223.286,407.354 223.286,402.857 L223.286 402.857 C223.286,398.36 226.931,394.714 231.429,394.714 L300 394.714 C304.497,394.714 308.143,398.36 308.143,402.857 Z M393.857 402.857 L393.857 402.857 C393.857,407.354 390.211,411 385.714,411 L368.571 411 C364.074,411 360.429,407.354 360.429,402.857 L360.429 402.857 C360.429,398.36 364.074,394.714 368.571,394.714 L385.714 394.714 C390.211,394.714 393.857,398.36 393.857,402.857 Z M445.286 402.857 L445.286 402.857 C445.286,407.354 441.64,411 437.143,411 L420 411 C415.503,411 411.857,407.354 411.857,402.857 L411.857 402.857 C411.857,398.36 415.503,394.714 420,394.714 L437.143 394.714 C441.64,394.714 445.286,398.36 445.286,402.857 Z M479.571 402.857 L479.571 402.857 C479.571,407.354 475.926,411 471.429,411 L471.429 411 C466.931,411 463.286,407.354 463.286,402.857 L463.286 402.857 C463.286,398.36 466.931,394.714 471.429,394.714 L471.429 394.714 C475.926,394.714 479.571,398.36 479.571,402.857 Z M531 402.857 L531 402.857 C531,407.354 527.354,411 522.857,411 L505.714 411 C501.217,411 497.571,407.354 497.571,402.857 L497.571 402.857 C497.571,398.36 501.217,394.714 505.714,394.714 L522.857 394.714 C527.354,394.714 531,398.36 531,402.857 Z M582.429 402.857 L582.429 402.857 C582.429,407.354 578.783,411 574.286,411 L574.286 411 C569.789,411 566.143,407.354 566.143,402.857 L566.143 402.857 C566.143,398.36 569.789,394.714 574.286,394.714 L574.286 394.714 C578.783,394.714 582.429,398.36 582.429,402.857 Z M51 420 L51 420 C51,424.497 47.354,428.143 42.857,428.143 L42.857 428.143 C38.36,428.143 34.714,424.497 34.714,420 L34.714 420 C34.714,415.503 38.36,411.857 42.857,411.857 L42.857 411.857 C47.354,411.857 51,415.503 51,420 Z M102.429 420 L102.429 420 C102.429,424.497 98.783,428.143 94.286,428.143 L77.143 428.143 C72.646,428.143 69,424.497 69,420 L69 420 C69,415.503 72.646,411.857 77.143,411.857 L94.286 411.857 C98.783,411.857 102.429,415.503 102.429,420 Z M188.143 420 L188.143 420 C188.143,424.497 184.497,428.143 180,428.143 L162.857 428.143 C158.36,428.143 154.714,424.497 154.714,420 L154.714 420 C154.714,415.503 158.36,411.857 162.857,411.857 L180 411.857 C184.497,411.857 188.143,415.503 188.143,420 Z M222.429 420 L222.429 420 C222.429,424.497 218.783,428.143 214.286,428.143 L214.286 428.143 C209.789,428.143 206.143,424.497 206.143,420 L206.143 420 C206.143,415.503 209.789,411.857 214.286,411.857 L214.286 411.857 C218.783,411.857 222.429,415.503 222.429,420 Z M273.857 420 L273.857 420 C273.857,424.497 270.211,428.143 265.714,428.143 L248.571 428.143 C244.074,428.143 240.429,424.497 240.429,420 L240.429 420 C240.429,415.503 244.074,411.857 248.571,411.857 L265.714 411.857 C270.211,411.857 273.857,415.503 273.857,420 Z M342.429 420 L342.429 420 C342.429,424.497 338.783,428.143 334.286,428.143 L334.286 428.143 C329.789,428.143 326.143,424.497 326.143,420 L326.143 420 C326.143,415.503 329.789,411.857 334.286,411.857 L334.286 411.857 C338.783,411.857 342.429,415.503 342.429,420 Z M445.286 420 L445.286 420 C445.286,424.497 441.64,428.143 437.143,428.143 L385.714 428.143 C381.217,428.143 377.571,424.497 377.571,420 L377.571 420 C377.571,415.503 381.217,411.857 385.714,411.857 L437.143 411.857 C441.64,411.857 445.286,415.503 445.286,420 Z M496.714 420 L496.714 420 C496.714,424.497 493.069,428.143 488.571,428.143 L488.571 428.143 C484.074,428.143 480.429,424.497 480.429,420 L480.429 420 C480.429,415.503 484.074,411.857 488.571,411.857 L488.571 411.857 C493.069,411.857 496.714,415.503 496.714,420 Z M531 420 L531 420 C531,424.497 527.354,428.143 522.857,428.143 L522.857 428.143 C518.36,428.143 514.714,424.497 514.714,420 L514.714 420 C514.714,415.503 518.36,411.857 522.857,411.857 L522.857 411.857 C527.354,411.857 531,415.503 531,420 Z M582.429 420 L582.429 420 C582.429,424.497 578.783,428.143 574.286,428.143 L574.286 428.143 C569.789,428.143 566.143,424.497 566.143,420 L566.143 420 C566.143,415.503 569.789,411.857 574.286,411.857 L574.286 411.857 C578.783,411.857 582.429,415.503 582.429,420 Z M33.857 437.143 L33.857 437.143 C33.857,441.64 30.211,445.286 25.714,445.286 L25.714 445.286 C21.217,445.286 17.571,441.64 17.571,437.143 L17.571 437.143 C17.571,432.646 21.217,429 25.714,429 L25.714 429 C30.211,429 33.857,432.646 33.857,437.143 Z M153.857 437.143 L153.857 437.143 C153.857,441.64 150.211,445.286 145.714,445.286 L128.571 445.286 C124.074,445.286 120.429,441.64 120.429,437.143 L120.429 437.143 C120.429,432.646 124.074,429 128.571,429 L145.714 429 C150.211,429 153.857,432.646 153.857,437.143 Z M205.286 437.143 L205.286 437.143 C205.286,441.64 201.64,445.286 197.143,445.286 L197.143 445.286 C192.646,445.286 189,441.64 189,437.143 L189 437.143 C189,432.646 192.646,429 197.143,429 L197.143 429 C201.64,429 205.286,432.646 205.286,437.143 Z M291 437.143 L291 437.143 C291,441.64 287.354,445.286 282.857,445.286 L231.429 445.286 C226.931,445.286 223.286,441.64 223.286,437.143 L223.286 437.143 C223.286,432.646 226.931,429 231.429,429 L282.857 429 C287.354,429 291,432.646 291,437.143 Z M393.857 437.143 L393.857 437.143 C393.857,441.64 390.211,445.286 385.714,445.286 L334.286 445.286 C329.789,445.286 326.143,441.64 326.143,437.143 L326.143 437.143 C326.143,432.646 329.789,429 334.286,429 L385.714 429 C390.211,429 393.857,432.646 393.857,437.143 Z M548.143 437.143 L548.143 437.143 C548.143,441.64 544.497,445.286 540,445.286 L420 445.286 C415.503,445.286 411.857,441.64 411.857,437.143 L411.857 437.143 C411.857,432.646 415.503,429 420,429 L540 429 C544.497,429 548.143,432.646 548.143,437.143 Z M582.429 437.143 L582.429 437.143 C582.429,441.64 578.783,445.286 574.286,445.286 L574.286 445.286 C569.789,445.286 566.143,441.64 566.143,437.143 L566.143 437.143 C566.143,432.646 569.789,429 574.286,429 L574.286 429 C578.783,429 582.429,432.646 582.429,437.143 Z M205.286 454.286 L205.286 454.286 C205.286,458.783 201.64,462.429 197.143,462.429 L162.857 462.429 C158.36,462.429 154.714,458.783 154.714,454.286 L154.714 454.286 C154.714,449.789 158.36,446.143 162.857,446.143 L197.143 446.143 C201.64,446.143 205.286,449.789 205.286,454.286 Z M256.714 454.286 L256.714 454.286 C256.714,458.783 253.069,462.429 248.571,462.429 L248.571 462.429 C244.074,462.429 240.429,458.783 240.429,454.286 L240.429 454.286 C240.429,449.789 244.074,446.143 248.571,446.143 L248.571 446.143 C253.069,446.143 256.714,449.789 256.714,454.286 Z M325.286 454.286 L325.286 454.286 C325.286,458.783 321.64,462.429 317.143,462.429 L317.143 462.429 C312.646,462.429 309,458.783 309,454.286 L309 454.286 C309,449.789 312.646,446.143 317.143,446.143 L317.143 446.143 C321.64,446.143 325.286,449.789 325.286,454.286 Z M359.571 454.286 L359.571 454.286 C359.571,458.783 355.926,462.429 351.429,462.429 L351.429 462.429 C346.931,462.429 343.286,458.783 343.286,454.286 L343.286 454.286 C343.286,449.789 346.931,446.143 351.429,446.143 L351.429 446.143 C355.926,446.143 359.571,449.789 359.571,454.286 Z M411 454.286 L411 454.286 C411,458.783 407.354,462.429 402.857,462.429 L402.857 462.429 C398.36,462.429 394.714,458.783 394.714,454.286 L394.714 454.286 C394.714,449.789 398.36,446.143 402.857,446.143 L402.857 446.143 C407.354,446.143 411,449.789 411,454.286 Z M445.286 454.286 L445.286 454.286 C445.286,458.783 441.64,462.429 437.143,462.429 L437.143 462.429 C432.646,462.429 429,458.783 429,454.286 L429 454.286 C429,449.789 432.646,446.143 437.143,446.143 L437.143 446.143 C441.64,446.143 445.286,449.789 445.286,454.286 Z M531 454.286 L531 454.286 C531,458.783 527.354,462.429 522.857,462.429 L505.714 462.429 C501.217,462.429 497.571,458.783 497.571,454.286 L497.571 454.286 C497.571,449.789 501.217,446.143 505.714,446.143 L522.857 446.143 C527.354,446.143 531,449.789 531,454.286 Z M582.429 454.286 L582.429 454.286 C582.429,458.783 578.783,462.429 574.286,462.429 L574.286 462.429 C569.789,462.429 566.143,458.783 566.143,454.286 L566.143 454.286 C566.143,449.789 569.789,446.143 574.286,446.143 L574.286 446.143 C578.783,446.143 582.429,449.789 582.429,454.286 Z M171 471.429 L171 471.429 C171,475.926 167.354,479.571 162.857,479.571 L162.857 479.571 C158.36,479.571 154.714,475.926 154.714,471.429 L154.714 471.429 C154.714,466.931 158.36,463.286 162.857,463.286 L162.857 463.286 C167.354,463.286 171,466.931 171,471.429 Z M325.286 471.429 L325.286 471.429 C325.286,475.926 321.64,479.571 317.143,479.571 L248.571 479.571 C244.074,479.571 240.429,475.926 240.429,471.429 L240.429 471.429 C240.429,466.931 244.074,463.286 248.571,463.286 L317.143 463.286 C321.64,463.286 325.286,466.931 325.286,471.429 Z M393.857 471.429 L393.857 471.429 C393.857,475.926 390.211,479.571 385.714,479.571 L368.571 479.571 C364.074,479.571 360.429,475.926 360.429,471.429 L360.429 471.429 C360.429,466.931 364.074,463.286 368.571,463.286 L385.714 463.286 C390.211,463.286 393.857,466.931 393.857,471.429 Z M445.286 471.429 L445.286 471.429 C445.286,475.926 441.64,479.571 437.143,479.571 L437.143 479.571 C432.646,479.571 429,475.926 429,471.429 L429 471.429 C429,466.931 432.646,463.286 437.143,463.286 L437.143 463.286 C441.64,463.286 445.286,466.931 445.286,471.429 Z M479.571 471.429 L479.571 471.429 C479.571,475.926 475.926,479.571 471.429,479.571 L471.429 479.571 C466.931,479.571 463.286,475.926 463.286,471.429 L463.286 471.429 C463.286,466.931 466.931,463.286 471.429,463.286 L471.429 463.286 C475.926,463.286 479.571,466.931 479.571,471.429 Z M565.286 471.429 L565.286 471.429 C565.286,475.926 561.64,479.571 557.143,479.571 L505.714 479.571 C501.217,479.571 497.571,475.926 497.571,471.429 L497.571 471.429 C497.571,466.931 501.217,463.286 505.714,463.286 L557.143 463.286 C561.64,463.286 565.286,466.931 565.286,471.429 Z M188.143 488.571 L188.143 488.571 C188.143,493.069 184.497,496.714 180,496.714 L162.857 496.714 C158.36,496.714 154.714,493.069 154.714,488.571 L154.714 488.571 C154.714,484.074 158.36,480.429 162.857,480.429 L180 480.429 C184.497,480.429 188.143,484.074 188.143,488.571 Z M222.429 488.571 L222.429 488.571 C222.429,493.069 218.783,496.714 214.286,496.714 L214.286 496.714 C209.789,496.714 206.143,493.069 206.143,488.571 L206.143 488.571 C206.143,484.074 209.789,480.429 214.286,480.429 L214.286 480.429 C218.783,480.429 222.429,484.074 222.429,488.571 Z M376.714 488.571 L376.714 488.571 C376.714,493.069 373.069,496.714 368.571,496.714 L351.429 496.714 C346.931,496.714 343.286,493.069 343.286,488.571 L343.286 488.571 C343.286,484.074 346.931,480.429 351.429,480.429 L368.571 480.429 C373.069,480.429 376.714,484.074 376.714,488.571 Z M445.286 488.571 L445.286 488.571 C445.286,493.069 441.64,496.714 437.143,496.714 L437.143 496.714 C432.646,496.714 429,493.069 429,488.571 L429 488.571 C429,484.074 432.646,480.429 437.143,480.429 L437.143 480.429 C441.64,480.429 445.286,484.074 445.286,488.571 Z M513.857 488.571 L513.857 488.571 C513.857,493.069 510.211,496.714 505.714,496.714 L505.714 496.714 C501.217,496.714 497.571,493.069 497.571,488.571 L497.571 488.571 C497.571,484.074 501.217,480.429 505.714,480.429 L505.714 480.429 C510.211,480.429 513.857,484.074 513.857,488.571 Z M582.429 488.571 L582.429 488.571 C582.429,493.069 578.783,496.714 574.286,496.714 L557.143 496.714 C552.646,496.714 549,493.069 549,488.571 L549 488.571 C549,484.074 552.646,480.429 557.143,480.429 L574.286 480.429 C578.783,480.429 582.429,484.074 582.429,488.571 Z M222.429 505.714 L222.429 505.714 C222.429,510.211 218.783,513.857 214.286,513.857 L197.143 513.857 C192.646,513.857 189,510.211 189,505.714 L189 505.714 C189,501.217 192.646,497.571 197.143,497.571 L214.286 497.571 C218.783,497.571 222.429,501.217 222.429,505.714 Z M325.286 505.714 L325.286 505.714 C325.286,510.211 321.64,513.857 317.143,513.857 L282.857 513.857 C278.36,513.857 274.714,510.211 274.714,505.714 L274.714 505.714 C274.714,501.217 278.36,497.571 282.857,497.571 L317.143 497.571 C321.64,497.571 325.286,501.217 325.286,505.714 Z M411 505.714 L411 505.714 C411,510.211 407.354,513.857 402.857,513.857 L402.857 513.857 C398.36,513.857 394.714,510.211 394.714,505.714 L394.714 505.714 C394.714,501.217 398.36,497.571 402.857,497.571 L402.857 497.571 C407.354,497.571 411,501.217 411,505.714 Z M531 505.714 L531 505.714 C531,510.211 527.354,513.857 522.857,513.857 L437.143 513.857 C432.646,513.857 429,510.211 429,505.714 L429 505.714 C429,501.217 432.646,497.571 437.143,497.571 L522.857 497.571 C527.354,497.571 531,501.217 531,505.714 Z M582.429 505.714 L582.429 505.714 C582.429,510.211 578.783,513.857 574.286,513.857 L557.143 513.857 C552.646,513.857 549,510.211 549,505.714 L549 505.714 C549,501.217 552.646,497.571 557.143,497.571 L574.286 497.571 C578.783,497.571 582.429,501.217 582.429,505.714 Z M171 522.857 L171 522.857 C171,527.354 167.354,531 162.857,531 L162.857 531 C158.36,531 154.714,527.354 154.714,522.857 L154.714 522.857 C154.714,518.36 158.36,514.714 162.857,514.714 L162.857 514.714 C167.354,514.714 171,518.36 171,522.857 Z M222.429 522.857 L222.429 522.857 C222.429,527.354 218.783,531 214.286,531 L197.143 531 C192.646,531 189,527.354 189,522.857 L189 522.857 C189,518.36 192.646,514.714 197.143,514.714 L214.286 514.714 C218.783,514.714 222.429,518.36 222.429,522.857 Z M256.714 522.857 L256.714 522.857 C256.714,527.354 253.069,531 248.571,531 L248.571 531 C244.074,531 240.429,527.354 240.429,522.857 L240.429 522.857 C240.429,518.36 244.074,514.714 248.571,514.714 L248.571 514.714 C253.069,514.714 256.714,518.36 256.714,522.857 Z M376.714 522.857 L376.714 522.857 C376.714,527.354 373.069,531 368.571,531 L317.143 531 C312.646,531 309,527.354 309,522.857 L309 522.857 C309,518.36 312.646,514.714 317.143,514.714 L368.571 514.714 C373.069,514.714 376.714,518.36 376.714,522.857 Z M428.143 522.857 L428.143 522.857 C428.143,527.354 424.497,531 420,531 L420 531 C415.503,531 411.857,527.354 411.857,522.857 L411.857 522.857 C411.857,518.36 415.503,514.714 420,514.714 L420 514.714 C424.497,514.714 428.143,518.36 428.143,522.857 Z M479.571 522.857 L479.571 522.857 C479.571,527.354 475.926,531 471.429,531 L471.429 531 C466.931,531 463.286,527.354 463.286,522.857 L463.286 522.857 C463.286,518.36 466.931,514.714 471.429,514.714 L471.429 514.714 C475.926,514.714 479.571,518.36 479.571,522.857 Z M513.857 522.857 L513.857 522.857 C513.857,527.354 510.211,531 505.714,531 L505.714 531 C501.217,531 497.571,527.354 497.571,522.857 L497.571 522.857 C497.571,518.36 501.217,514.714 505.714,514.714 L505.714 514.714 C510.211,514.714 513.857,518.36 513.857,522.857 Z M565.286 522.857 L565.286 522.857 C565.286,527.354 561.64,531 557.143,531 L557.143 531 C552.646,531 549,527.354 549,522.857 L549 522.857 C549,518.36 552.646,514.714 557.143,514.714 L557.143 514.714 C561.64,514.714 565.286,518.36 565.286,522.857 Z M205.286 540 L205.286 540 C205.286,544.497 201.64,548.143 197.143,548.143 L197.143 548.143 C192.646,548.143 189,544.497 189,540 L189 540 C189,535.503 192.646,531.857 197.143,531.857 L197.143 531.857 C201.64,531.857 205.286,535.503 205.286,540 Z M273.857 540 L273.857 540 C273.857,544.497 270.211,548.143 265.714,548.143 L265.714 548.143 C261.217,548.143 257.571,544.497 257.571,540 L257.571 540 C257.571,535.503 261.217,531.857 265.714,531.857 L265.714 531.857 C270.211,531.857 273.857,535.503 273.857,540 Z M342.429 540 L342.429 540 C342.429,544.497 338.783,548.143 334.286,548.143 L334.286 548.143 C329.789,548.143 326.143,544.497 326.143,540 L326.143 540 C326.143,535.503 329.789,531.857 334.286,531.857 L334.286 531.857 C338.783,531.857 342.429,535.503 342.429,540 Z M393.857 540 L393.857 540 C393.857,544.497 390.211,548.143 385.714,548.143 L385.714 548.143 C381.217,548.143 377.571,544.497 377.571,540 L377.571 540 C377.571,535.503 381.217,531.857 385.714,531.857 L385.714 531.857 C390.211,531.857 393.857,535.503 393.857,540 Z M548.143 540 L548.143 540 C548.143,544.497 544.497,548.143 540,548.143 L505.714 548.143 C501.217,548.143 497.571,544.497 497.571,540 L497.571 540 C497.571,535.503 501.217,531.857 505.714,531.857 L540 531.857 C544.497,531.857 548.143,535.503 548.143,540 Z M582.429 540 L582.429 540 C582.429,544.497 578.783,548.143 574.286,548.143 L574.286 548.143 C569.789,548.143 566.143,544.497 566.143,540 L566.143 540 C566.143,535.503 569.789,531.857 574.286,531.857 L574.286 531.857 C578.783,531.857 582.429,535.503 582.429,540 Z M188.143 557.143 L188.143 557.143 C188.143,561.64 184.497,565.286 180,565.286 L162.857 565.286 C158.36,565.286 154.714,561.64 154.714,557.143 L154.714 557.143 C154.714,552.646 158.36,549 162.857,549 L180 549 C184.497,549 188.143,552.646 188.143,557.143 Z M256.714 557.143 L256.714 557.143 C256.714,561.64 253.069,565.286 248.571,565.286 L248.571 565.286 C244.074,565.286 240.429,561.64 240.429,557.143 L240.429 557.143 C240.429,552.646 244.074,549 248.571,549 L248.571 549 C253.069,549 256.714,552.646 256.714,557.143 Z M342.429 557.143 L342.429 557.143 C342.429,561.64 338.783,565.286 334.286,565.286 L282.857 565.286 C278.36,565.286 274.714,561.64 274.714,557.143 L274.714 557.143 C274.714,552.646 278.36,549 282.857,549 L334.286 549 C338.783,549 342.429,552.646 342.429,557.143 Z M393.857 557.143 L393.857 557.143 C393.857,561.64 390.211,565.286 385.714,565.286 L385.714 565.286 C381.217,565.286 377.571,561.64 377.571,557.143 L377.571 557.143 C377.571,552.646 381.217,549 385.714,549 L385.714 549 C390.211,549 393.857,552.646 393.857,557.143 Z M428.143 557.143 L428.143 557.143 C428.143,561.64 424.497,565.286 420,565.286 L420 565.286 C415.503,565.286 411.857,561.64 411.857,557.143 L411.857 557.143 C411.857,552.646 415.503,549 420,549 L420 549 C424.497,549 428.143,552.646 428.143,557.143 Z M462.429 557.143 L462.429 557.143 C462.429,561.64 458.783,565.286 454.286,565.286 L454.286 565.286 C449.789,565.286 446.143,561.64 446.143,557.143 L446.143 557.143 C446.143,552.646 449.789,549 454.286,549 L454.286 549 C458.783,549 462.429,552.646 462.429,557.143 Z M256.714 574.286 L256.714 574.286 C256.714,578.783 253.069,582.429 248.571,582.429 L197.143 582.429 C192.646,582.429 189,578.783 189,574.286 L189 574.286 C189,569.789 192.646,566.143 197.143,566.143 L248.571 566.143 C253.069,566.143 256.714,569.789 256.714,574.286 Z M308.143 574.286 L308.143 574.286 C308.143,578.783 304.497,582.429 300,582.429 L300 582.429 C295.503,582.429 291.857,578.783 291.857,574.286 L291.857 574.286 C291.857,569.789 295.503,566.143 300,566.143 L300 566.143 C304.497,566.143 308.143,569.789 308.143,574.286 Z M393.857 574.286 L393.857 574.286 C393.857,578.783 390.211,582.429 385.714,582.429 L385.714 582.429 C381.217,582.429 377.571,578.783 377.571,574.286 L377.571 574.286 C377.571,569.789 381.217,566.143 385.714,566.143 L385.714 566.143 C390.211,566.143 393.857,569.789 393.857,574.286 Z M462.429 574.286 L462.429 574.286 C462.429,578.783 458.783,582.429 454.286,582.429 L420 582.429 C415.503,582.429 411.857,578.783 411.857,574.286 L411.857 574.286 C411.857,569.789 415.503,566.143 420,566.143 L454.286 566.143 C458.783,566.143 462.429,569.789 462.429,574.286 Z M513.857 574.286 L513.857 574.286 C513.857,578.783 510.211,582.429 505.714,582.429 L505.714 582.429 C501.217,582.429 497.571,578.783 497.571,574.286 L497.571 574.286 C497.571,569.789 501.217,566.143 505.714,566.143 L505.714 566.143 C510.211,566.143 513.857,569.789 513.857,574.286 Z M565.286 574.286 L565.286 574.286 C565.286,578.783 561.64,582.429 557.143,582.429 L540 582.429 C535.503,582.429 531.857,578.783 531.857,574.286 L531.857 574.286 C531.857,569.789 535.503,566.143 540,566.143 L557.143 566.143 C561.64,566.143 565.286,569.789 565.286,574.286 Z " />
<defs>
<filter
 style='color-interpolation-filters:sRGB'
 id='pupil-fill-shadow'
   x='-0.1'
   y='-0.1'
   width='1.2'
   height='1.2'>
  <feFlood
      result='flood-pupil-fill-shadow'
      in='SourceGraphic'
      flood-opacity='1.0'
      flood-color='rgb(0,0,0)'
      id='feFlood-pupil-fill-shadow' />
  <feGaussianBlur
      result='blur'
      in='SourceGraphic'
      stdDeviation='3.0'
      id='feGaussian-pupil-fill-shadow' />
  <feOffset
      result='offset-pupil-fill-shadow'
      in='blur'
      dx='2.571428571428571'
      dy='2.571428571428571'
      id='feOffset-pupil-fill-shadow' />
  <feComposite
      result='comp1'
      operator='out'
      in='flood-pupil-fill-shadow'
      in2='offset-pupil-fill-shadow'
      id='feComposite-pupil-fill-shadow-6' />
  <feComposite
      result='comp2'
      operator='atop'
      in='comp1'
      in2='SourceGraphic'
     id='feComposite-pupil-fill-shadow-7' />
</filter>
<filter
 style='color-interpolation-filters:sRGB'
 id='eye-outer-fill-shadow'
   x='-0.1'
   y='-0.1'
   width='1.2'
   height='1.2'>
  <feFlood
      result='flood-eye-outer-fill-shadow'
      in='SourceGraphic'
      flood-opacity='1.0'
      flood-color='rgb(0,0,0)'
      id='feFlood-eye-outer-fill-shadow' />
  <feGaussianBlur
      result='blur'
      in='SourceGraphic'
      stdDeviation='3.0'
      id='feGaussian-eye-outer-fill-shadow' />
  <feOffset
      result='offset-eye-outer-fill-shadow'
      in='blur'
      dx='2.571428571428571'
      dy='2.571428571428571'
      id='feOffset-eye-outer-fill-shadow' />
  <feComposite
      result='comp1'
      operator='out'
      in='flood-eye-outer-fill-shadow'
      in2='offset-eye-outer-fill-shadow'
      id='feComposite-eye-outer-fill-shadow-6' />
  <feComposite
      result='comp2'
      operator='atop'
      in='comp1'
      in2='SourceGraphic'
     id='feComposite-eye-outer-fill-shadow-7' />
</filter>
<filter
 style='color-interpolation-filters:sRGB'
 id='on-pixels-shadow'
   x='-0.1'
   y='-0.1'
   width='1.2'
   height='1.2'>
  <feFlood
      result='flood-on-pixels-shadow'
      in='SourceGraphic'
      flood-opacity='1.0'
      flood-color='rgb(0,0,0)'
      id='feFlood-on-pixels-shadow' />
  <feGaussianBlur
      result='blur'
      in='SourceGraphic'
      stdDeviation='3.0'
      id='feGaussian-on-pixels-shadow' />
  <feOffset
      result='offset-on-pixels-shadow'
      in='blur'
      dx='2.571428571428571'
      dy='2.571428571428571'
      id='feOffset-on-pixels-shadow' />
  <feComposite
      result='comp1'
      operator='out'
      in='flood-on-pixels-shadow'
      in2='offset-on-pixels-shadow'
      id='feComposite-on-pixels-shadow-6' />
  <feComposite
      result='comp2'
      operator='atop'
      in='comp1'
      in2='SourceGraphic'
     id='feComposite-on-pixels-shadow-7' />
</filter>
</defs>
</svg>
